<svg width="429" height="287" viewBox="0 0 429 287" fill="none" xmlns="http://www.w3.org/2000/svg">
<path d="M19.8673 285.594H413.983" stroke="#C3DBE6" stroke-miterlimit="10"/>
<path d="M67.4436 102.368C84.8802 95.4056 93.3717 75.6267 86.4098 58.1901C79.4479 40.7534 59.669 32.262 42.2324 39.2239C24.7957 46.1857 16.3042 65.9647 23.2661 83.4013C30.228 100.838 50.0069 109.329 67.4436 102.368Z" fill="#C3DBE6"/>
<path d="M83.111 75.4695C85.6802 59.8596 75.1086 45.1225 59.4988 42.5533C43.8889 39.9841 29.1518 50.5557 26.5826 66.1655C24.0134 81.7754 34.585 96.5124 50.1948 99.0817C65.8047 101.651 80.5418 91.0793 83.111 75.4695Z" fill="white"/>
<path d="M71.4034 87.3684C80.5514 78.2205 80.5514 63.3887 71.4034 54.2407C62.2554 45.0927 47.4236 45.0927 38.2757 54.2407C29.1277 63.3887 29.1277 78.2205 38.2757 87.3684C47.4236 96.5164 62.2554 96.5164 71.4034 87.3684Z" fill="#C3DBE6"/>
<path d="M65.2223 72.5041C66.1564 66.7776 62.2714 61.3781 56.5448 60.444C50.8183 59.5098 45.4188 63.3949 44.4846 69.1214C43.5505 74.848 47.4356 80.2475 53.1621 81.1816C58.8886 82.1157 64.2882 78.2307 65.2223 72.5041Z" fill="white"/>
<path d="M56.9508 75.9253C59.7833 74.7592 61.1341 71.5176 59.968 68.6851C58.8018 65.8526 55.5603 64.5018 52.7278 65.6679C49.8953 66.8341 48.5445 70.0756 49.7106 72.9081C50.8768 75.7406 54.1183 77.0914 56.9508 75.9253Z" fill="#C3DBE6"/>
<path d="M12.8852 96.6923L7.92609 99.498L12.1674 100.803L17.1265 97.9973L12.8852 96.6923Z" fill="#A2C5D2"/>
<path d="M16.0824 102.304L11.1234 105.175L12.1674 100.803L17.1264 97.9973L16.0824 102.304Z" fill="#A2C5D2"/>
<path d="M13.9292 99.8244C13.4724 99.0414 18.301 95.5178 25.7396 91.2765C33.2434 87.0352 44.1403 82.7286 44.1403 82.7286C44.1403 82.7286 34.8747 89.841 27.3709 94.0823C19.867 98.3236 14.3859 100.607 13.9292 99.8244Z" fill="#A2C5D2"/>
<path d="M12.1674 100.803C14.7775 99.1718 17.3875 97.6058 20.0628 96.0398C22.6728 94.4737 25.3481 92.973 28.0234 91.4722C30.6987 89.9714 33.374 88.4707 36.0493 86.9699C38.7245 85.5344 41.4651 84.0336 44.1404 82.6633C41.5303 84.2946 38.9203 85.8606 36.245 87.4266C33.635 88.9927 30.9597 90.4934 28.2844 91.9942C25.6091 93.495 22.9338 94.9957 20.2585 96.4313C17.5832 97.9973 14.908 99.4328 12.1674 100.803Z" fill="#C3DBE6"/>
<path d="M31.0251 46.5795L26.6533 42.8602L26.9143 47.2973L31.2209 51.0166L31.0251 46.5795Z" fill="#A2C5D2"/>
<path d="M26.8493 51.4734L22.4775 47.8194L26.9146 47.2974L31.2212 51.0167L26.8493 51.4734Z" fill="#A2C5D2"/>
<path d="M28.4803 48.6676C29.0676 48.0151 34.0267 51.2777 40.617 56.824C47.1421 62.3703 54.9722 71.1139 54.9722 71.1139C54.9722 71.1139 45.0541 64.8498 38.529 59.2383C31.9386 53.6919 27.8931 49.3201 28.4803 48.6676Z" fill="#A2C5D2"/>
<path d="M26.9143 47.2974C29.3286 49.1896 31.7429 51.1472 34.0919 53.0394C36.4409 54.997 38.79 56.9545 41.139 58.912C43.488 60.9348 45.7718 62.8923 48.1209 64.9151C50.4046 66.9379 52.7537 68.9607 54.9722 71.0487C52.5579 69.1564 50.1436 67.1989 47.7946 65.3066C45.4456 63.3491 43.0965 61.3916 40.7475 59.434C38.3985 57.4113 36.1147 55.4537 33.7657 53.431C31.4166 51.4082 29.1328 49.3854 26.9143 47.2974Z" fill="#C3DBE6"/>
<path d="M96.1458 173.949V49.2549C96.1458 42.5341 101.627 37.053 108.348 37.053H325.503C332.224 37.053 337.705 42.5341 337.705 49.2549V173.949C337.705 180.67 332.224 186.151 325.503 186.151H108.348C101.627 186.151 96.1458 180.67 96.1458 173.949Z" fill="#C3DBE6"/>
<path d="M109 183.541C103.323 183.541 98.7558 178.974 98.7558 173.297V49.4506C98.7558 44.0348 103.128 39.663 108.543 39.663H325.242C330.658 39.663 335.029 44.0348 335.029 49.4506V173.297C335.029 178.974 330.462 183.541 324.785 183.541H109Z" fill="white"/>
<path d="M108.021 39.663H325.242C330.657 39.663 335.029 44.0348 335.029 49.4506V57.346H98.2337V49.4506C98.2337 44.0348 102.671 39.663 108.021 39.663Z" fill="#0D97D6"/>
<path d="M111.61 50.8209C112.872 50.8209 113.894 49.7984 113.894 48.5371C113.894 47.2758 112.872 46.2533 111.61 46.2533C110.349 46.2533 109.327 47.2758 109.327 48.5371C109.327 49.7984 110.349 50.8209 111.61 50.8209Z" fill="#DCECF0"/>
<path d="M125.052 50.8209C126.313 50.8209 127.336 49.7984 127.336 48.5371C127.336 47.2758 126.313 46.2533 125.052 46.2533C123.791 46.2533 122.768 47.2758 122.768 48.5371C122.768 49.7984 123.791 50.8209 125.052 50.8209Z" fill="#DCECF0"/>
<path d="M140.712 48.5371C140.712 49.7768 139.733 50.8209 138.428 50.8209C137.189 50.8209 136.145 49.8421 136.145 48.5371C136.145 47.2973 137.123 46.2533 138.428 46.2533C139.733 46.2533 140.712 47.2321 140.712 48.5371Z" fill="#DCECF0"/>
<path d="M110.958 159.855H245.701" stroke="#C3DBE6" stroke-width="3" stroke-miterlimit="10" stroke-linecap="round" stroke-linejoin="round"/>
<path d="M110.958 167.62H216.207" stroke="#C3DBE6" stroke-width="3" stroke-miterlimit="10" stroke-linecap="round" stroke-linejoin="round"/>
<path d="M110.958 175.385H176.535" stroke="#C3DBE6" stroke-width="3" stroke-miterlimit="10" stroke-linecap="round" stroke-linejoin="round"/>
<path d="M264.689 159.855H277.152" stroke="#C3DBE6" stroke-width="3" stroke-miterlimit="10" stroke-linecap="round" stroke-linejoin="round"/>
<path d="M264.689 167.62H277.152" stroke="#C3DBE6" stroke-width="3" stroke-miterlimit="10" stroke-linecap="round" stroke-linejoin="round"/>
<path d="M264.689 175.385H277.152" stroke="#C3DBE6" stroke-width="3" stroke-miterlimit="10" stroke-linecap="round" stroke-linejoin="round"/>
<path d="M287.527 159.855H299.99" stroke="#C3DBE6" stroke-width="3" stroke-miterlimit="10" stroke-linecap="round" stroke-linejoin="round"/>
<path d="M287.527 167.62H299.99" stroke="#C3DBE6" stroke-width="3" stroke-miterlimit="10" stroke-linecap="round" stroke-linejoin="round"/>
<path d="M287.527 175.385H299.99" stroke="#C3DBE6" stroke-width="3" stroke-miterlimit="10" stroke-linecap="round" stroke-linejoin="round"/>
<path d="M310.43 159.855H322.893" stroke="#C3DBE6" stroke-width="3" stroke-miterlimit="10" stroke-linecap="round" stroke-linejoin="round"/>
<path d="M310.43 167.62H322.893" stroke="#C3DBE6" stroke-width="3" stroke-miterlimit="10" stroke-linecap="round" stroke-linejoin="round"/>
<path d="M310.43 175.385H322.893" stroke="#C3DBE6" stroke-width="3" stroke-miterlimit="10" stroke-linecap="round" stroke-linejoin="round"/>
<path d="M321.979 61.7179V91.6028" stroke="#C3DBE6" stroke-width="0.7903" stroke-miterlimit="10"/>
<path d="M321.979 70.9835V84.621" stroke="#C3DBE6" stroke-width="6.3222" stroke-miterlimit="10"/>
<path d="M315.324 66.7422V96.6924" stroke="#C3DBE6" stroke-width="0.7903" stroke-miterlimit="10"/>
<path d="M315.324 80.7059V89.6453" stroke="#C3DBE6" stroke-width="6.3222" stroke-miterlimit="10"/>
<path d="M308.668 69.4175V99.3024" stroke="#C3DBE6" stroke-width="0.7903" stroke-miterlimit="10"/>
<path d="M308.668 84.621V98.6499" stroke="#C3DBE6" stroke-width="6.3222" stroke-miterlimit="10"/>
<path d="M302.012 67.9167V97.8017" stroke="#C3DBE6" stroke-width="0.7903" stroke-miterlimit="10"/>
<path d="M302.012 72.2885V90.8197" stroke="#C3DBE6" stroke-width="6.3222" stroke-miterlimit="10"/>
<path d="M295.357 78.1611V100.607" stroke="#C3DBE6" stroke-width="0.7903" stroke-miterlimit="10"/>
<path d="M295.357 83.9684V93.8213" stroke="#C3DBE6" stroke-width="6.3222" stroke-miterlimit="10"/>
<path d="M288.701 81.3584V108.046" stroke="#C3DBE6" stroke-width="0.7903" stroke-miterlimit="10"/>
<path d="M288.701 88.4055V104.261" stroke="#C3DBE6" stroke-width="6.3222" stroke-miterlimit="10"/>
<path d="M282.111 76.6604V99.8897" stroke="#C3DBE6" stroke-width="0.7903" stroke-miterlimit="10"/>
<path d="M282.111 82.0762V95.2569" stroke="#C3DBE6" stroke-width="6.3222" stroke-miterlimit="10"/>
<path d="M275.455 67.3295V95.1916" stroke="#C3DBE6" stroke-width="0.7903" stroke-miterlimit="10"/>
<path d="M275.455 72.7454V90.2326" stroke="#C3DBE6" stroke-width="6.3222" stroke-miterlimit="10"/>
<path d="M268.8 80.5101V102.565" stroke="#C3DBE6" stroke-width="0.7903" stroke-miterlimit="10"/>
<path d="M268.8 85.7955V96.4967" stroke="#C3DBE6" stroke-width="6.3222" stroke-miterlimit="10"/>
<path d="M262.144 89.5148V111.765" stroke="#C3DBE6" stroke-width="0.7903" stroke-miterlimit="10"/>
<path d="M262.144 96.5619V104.718" stroke="#C3DBE6" stroke-width="6.3222" stroke-miterlimit="10"/>
<path d="M255.489 83.7727V106.48" stroke="#C3DBE6" stroke-width="0.7903" stroke-miterlimit="10"/>
<path d="M255.489 90.8198V99.3677" stroke="#C3DBE6" stroke-width="6.3222" stroke-miterlimit="10"/>
<path d="M248.833 89.5148V117.051" stroke="#C3DBE6" stroke-width="0.7903" stroke-miterlimit="10"/>
<path d="M248.833 96.5619V112.418" stroke="#C3DBE6" stroke-width="6.3222" stroke-miterlimit="10"/>
<path d="M242.243 89.5148V108.568" stroke="#C3DBE6" stroke-width="0.7903" stroke-miterlimit="10"/>
<path d="M242.243 96.5619V104.327" stroke="#C3DBE6" stroke-width="6.3222" stroke-miterlimit="10"/>
<path d="M235.587 86.5785V106.48" stroke="#C3DBE6" stroke-width="0.7903" stroke-miterlimit="10"/>
<path d="M235.587 93.5604V99.3678" stroke="#C3DBE6" stroke-width="6.3222" stroke-miterlimit="10"/>
<path d="M228.931 89.5148V127.621" stroke="#C3DBE6" stroke-width="0.7903" stroke-miterlimit="10"/>
<path d="M228.931 96.5619V123.511" stroke="#C3DBE6" stroke-width="6.3222" stroke-miterlimit="10"/>
<path d="M222.276 100.216V130.166" stroke="#C3DBE6" stroke-width="0.7903" stroke-miterlimit="10"/>
<path d="M222.276 107.263V123.119" stroke="#C3DBE6" stroke-width="6.3222" stroke-miterlimit="10"/>
<path d="M215.62 101.521V135.582" stroke="#C3DBE6" stroke-width="0.7903" stroke-miterlimit="10"/>
<path d="M215.62 107.916V128.535" stroke="#C3DBE6" stroke-width="6.3222" stroke-miterlimit="10"/>
<path d="M208.965 121.031V148.697" stroke="#C3DBE6" stroke-width="0.7903" stroke-miterlimit="10"/>
<path d="M208.965 125.794V141.65" stroke="#C3DBE6" stroke-width="6.3222" stroke-miterlimit="10"/>
<path d="M202.374 94.4739V124.359" stroke="#C3DBE6" stroke-width="0.7903" stroke-miterlimit="10"/>
<path d="M202.374 101.456V121.031" stroke="#C3DBE6" stroke-width="6.3222" stroke-miterlimit="10"/>
<path d="M195.719 96.8882V126.838" stroke="#C3DBE6" stroke-width="0.7903" stroke-miterlimit="10"/>
<path d="M195.719 108.177V119.791" stroke="#C3DBE6" stroke-width="6.3222" stroke-miterlimit="10"/>
<path d="M189.063 108.177V138.061" stroke="#C3DBE6" stroke-width="0.7903" stroke-miterlimit="10"/>
<path d="M189.063 120.966V131.08" stroke="#C3DBE6" stroke-width="6.3222" stroke-miterlimit="10"/>
<path d="M182.408 115.224V145.109" stroke="#C3DBE6" stroke-width="0.7903" stroke-miterlimit="10"/>
<path d="M182.408 130.166V138.062" stroke="#C3DBE6" stroke-width="6.3222" stroke-miterlimit="10"/>
<path d="M175.752 111.048V140.998" stroke="#C3DBE6" stroke-width="0.7903" stroke-miterlimit="10"/>
<path d="M175.752 124.294V133.951" stroke="#C3DBE6" stroke-width="6.3222" stroke-miterlimit="10"/>
<path d="M169.096 108.177V138.061" stroke="#C3DBE6" stroke-width="0.7903" stroke-miterlimit="10"/>
<path d="M169.096 119.008V131.08" stroke="#C3DBE6" stroke-width="6.3222" stroke-miterlimit="10"/>
<path d="M162.506 115.55V145.435" stroke="#C3DBE6" stroke-width="0.7903" stroke-miterlimit="10"/>
<path d="M162.506 119.791V138.453" stroke="#C3DBE6" stroke-width="6.3222" stroke-miterlimit="10"/>
<path d="M155.85 103.087V133.037" stroke="#C3DBE6" stroke-width="0.7903" stroke-miterlimit="10"/>
<path d="M155.85 110.134V128.209" stroke="#C3DBE6" stroke-width="6.3222" stroke-miterlimit="10"/>
<path d="M149.195 90.8198V120.705" stroke="#C3DBE6" stroke-width="0.7903" stroke-miterlimit="10"/>
<path d="M149.195 97.8016V116.137" stroke="#C3DBE6" stroke-width="6.3222" stroke-miterlimit="10"/>
<path d="M142.539 95.8441V125.794" stroke="#C3DBE6" stroke-width="0.7903" stroke-miterlimit="10"/>
<path d="M142.539 100.934V118.747" stroke="#C3DBE6" stroke-width="6.3222" stroke-miterlimit="10"/>
<path d="M135.884 89.6453V119.595" stroke="#C3DBE6" stroke-width="0.7903" stroke-miterlimit="10"/>
<path d="M135.884 96.6924V101.586" stroke="#C3DBE6" stroke-width="6.3222" stroke-miterlimit="10"/>
<path d="M129.228 82.8593V112.809" stroke="#C3DBE6" stroke-width="0.7903" stroke-miterlimit="10"/>
<path d="M129.228 89.9062V97.8016" stroke="#C3DBE6" stroke-width="6.3222" stroke-miterlimit="10"/>
<path d="M122.638 97.2797V132.776" stroke="#C3DBE6" stroke-width="0.7903" stroke-miterlimit="10"/>
<path d="M122.638 100.999V125.794" stroke="#C3DBE6" stroke-width="6.3222" stroke-miterlimit="10"/>
<path d="M115.982 117.638V147.523" stroke="#C3DBE6" stroke-width="0.7903" stroke-miterlimit="10"/>
<path d="M115.982 110.004V123.51" stroke="#C3DBE6" stroke-width="6.3222" stroke-miterlimit="10"/>
<path d="M109.326 115.55V145.435" stroke="#C3DBE6" stroke-width="0.7903" stroke-miterlimit="10"/>
<path d="M109.326 120.966V138.453" stroke="#C3DBE6" stroke-width="6.3222" stroke-miterlimit="10"/>
<path d="M393.494 132.189L384.685 145.761H368.503C369.025 136.952 376.333 129.97 385.207 129.97C388.209 129.97 391.08 130.818 393.494 132.189Z" fill="#DCECF0"/>
<path d="M401.977 146.74C401.977 149.937 401.063 152.873 399.562 155.418L386.577 146.479L395.191 133.233C399.301 136.3 401.977 141.193 401.977 146.74Z" fill="#C3DBE6"/>
<path d="M398.453 157.049C395.386 160.964 390.623 163.509 385.207 163.509C376.268 163.509 368.96 156.527 368.503 147.718H384.946L398.453 157.049Z" fill="#A2C5D2"/>
<path d="M395.647 269.216C395.647 269.216 407.719 265.823 406.936 258.123C406.153 250.489 396.887 248.923 402.238 242.137C407.588 235.351 409.089 231.827 405.304 228.238C401.585 224.649 408.371 222.17 408.11 215.58C407.849 208.924 401.193 207.619 397.083 210.555C392.907 213.491 395.843 218.646 394.212 222.692C392.58 226.737 386.577 228.108 385.533 233.132C384.489 238.156 389.905 242.332 389.97 245.986C390.036 249.64 383.054 253.686 383.054 259.102C383.119 264.583 393.363 269.151 395.647 269.216Z" fill="#005B84"/>
<path d="M396.756 271.434C396.039 266.867 395.647 262.234 395.451 257.536C395.321 252.903 395.386 248.205 395.778 243.572C396.169 238.939 396.887 234.307 397.931 229.739C399.04 225.171 400.606 220.8 402.564 216.558C400.476 220.734 398.779 225.106 397.539 229.674C396.365 234.241 395.451 238.809 394.995 243.507C394.473 248.205 394.277 252.903 394.342 257.601C394.407 262.299 394.668 266.997 395.256 271.695L396.756 271.434Z" fill="white"/>
<path d="M393.559 280.113C393.559 280.113 385.598 274.632 387.752 268.824C389.905 263.017 391.863 264.322 391.667 256.296C391.536 248.27 394.407 243.637 403.151 242.789C411.895 241.941 415.418 238.744 419.855 237.373C424.292 236.003 427.359 236.786 428.534 239.657C429.708 242.528 428.534 247.03 422.857 247.813C417.18 248.596 414.178 250.293 413.656 256.166C413.069 262.038 410.394 263.539 405.174 264.518C400.019 265.496 406.218 278.481 393.559 280.113Z" fill="#005B84"/>
<path d="M393.298 278.938C393.755 270.912 396.235 263.082 400.737 256.427C405.174 249.836 411.634 244.616 419.072 241.81C411.764 244.812 405.5 250.162 401.324 256.753C397.083 263.343 394.864 271.173 394.669 278.938H393.298Z" fill="white"/>
<path d="M390.166 271.695C390.166 271.695 380.901 270.456 379.335 265.04C377.769 259.624 381.488 257.666 376.268 255.644C371.048 253.686 367.198 254.339 366.154 249.118C365.11 243.898 363.479 240.31 359.368 238.091C355.257 235.873 358.715 230 363.087 231.827C367.524 233.654 368.894 237.112 375.158 236.59C382.206 236.003 386.251 237.765 385.599 243.246C385.077 247.552 386.121 248.074 390.688 249.967C398.518 253.229 397.018 261.255 394.538 266.671C392.058 272.087 390.166 271.695 390.166 271.695Z" fill="#005B84"/>
<path d="M388.404 270.194C388.665 266.54 387.882 262.756 386.512 259.363C385.077 255.905 383.054 252.707 380.64 249.771C378.225 246.835 375.485 244.225 372.548 241.876C369.547 239.527 366.35 237.504 362.957 235.807C366.415 237.439 369.677 239.396 372.744 241.68C375.811 243.964 378.617 246.508 381.162 249.379C383.641 252.25 385.794 255.448 387.36 258.971C388.926 262.495 389.84 266.345 389.644 270.26L388.404 270.194Z" fill="white"/>
<path d="M403.086 268.563H393.037H382.989C382.989 268.563 381.357 277.307 385.99 285.594H393.103H400.215C404.717 277.307 403.086 268.563 403.086 268.563Z" fill="#304A5F"/>
<path d="M404.456 272.152C404.391 269.934 404.195 268.563 404.195 268.563H393.037H381.88C381.88 268.563 381.684 269.934 381.619 272.152H404.456Z" fill="#2C4C6A"/>
<path d="M38.3985 272.805C38.4637 269.607 44.5973 260.603 43.6838 257.014C41.7915 249.836 34.9402 251.924 35.5927 243.898C35.9842 239.266 33.0479 234.959 24.239 235.546C15.2996 236.199 13.3421 232.74 8.83981 231.631C4.27224 230.522 1.2707 231.566 0.291938 234.567C-0.686825 237.569 0.813945 241.941 6.55603 242.332C12.2981 242.724 14.4514 243.768 15.4301 249.64C16.4089 255.513 21.368 252.055 25.7398 255.187C29.2633 257.732 23.7823 260.081 27.3058 264.648C29.3286 267.389 36.702 268.041 38.3985 272.805Z" fill="#497D2D"/>
<path d="M37.224 271.76C36.441 263.93 33.6352 256.296 28.9371 249.901C24.239 243.572 17.5835 238.613 9.9491 236.133C17.5835 238.417 24.5 243.181 29.4591 249.51C34.4182 255.839 37.5502 263.604 38.529 271.63L37.224 271.76Z" fill="white"/>
<path d="M46.2938 271.434C46.2938 271.434 33.3089 269.542 33.1131 261.516C32.9174 253.49 40.2255 250.815 33.7656 244.551C27.3058 238.222 27.371 234.567 30.7641 230.391C34.1571 226.15 26.7185 224.584 26.1313 217.668C25.544 210.751 32.1996 208.467 36.8977 210.947C41.5957 213.426 39.2467 219.168 41.5305 223.149C43.8143 227.129 50.2088 227.716 51.9054 232.806C53.6671 237.895 51.6444 242.202 52.1011 245.986C52.5579 249.771 57.2559 253.817 57.9737 259.428C58.6262 264.974 48.6428 271.108 46.2938 271.434Z" fill="#497D2D"/>
<path d="M45.5762 273.914C45.7067 269.085 45.4457 264.191 44.9889 259.363C44.5321 254.534 43.7491 249.706 42.7704 244.942C41.7264 240.179 40.3561 235.481 38.5943 230.913C36.8325 226.346 34.614 221.974 31.9387 217.863C34.6793 221.909 37.0283 226.215 38.8553 230.783C40.6823 235.351 42.1831 239.983 43.3576 244.747C44.4669 249.51 45.3804 254.339 45.9024 259.232C46.4897 264.126 46.8159 269.02 46.8159 273.979L45.5762 273.914Z" fill="white"/>
<path d="M62.7372 264.844C64.0422 258.906 59.3441 260.537 64.8252 258.058C70.3063 255.578 71.8723 255.448 72.6553 249.771C73.4383 244.094 74.9391 240.114 79.2456 237.504C83.4869 234.894 79.4414 228.76 74.8086 231.044C70.1758 233.328 68.936 237.112 62.2151 236.982C54.646 236.786 50.4047 238.939 51.4487 244.812C52.297 249.379 50.7962 253.229 45.9677 255.578C37.8113 259.559 46.3592 266.997 48.8387 275.088C53.2105 263.93 61.4321 270.717 62.7372 264.844Z" fill="#497D2D"/>
<path d="M48.9692 273.979C48.5124 269.803 49.2302 265.562 50.6657 261.712C52.1012 257.862 54.1893 254.273 56.734 251.011C59.2136 247.748 62.0846 244.812 65.2167 242.202C68.3487 239.592 71.7417 237.243 75.2653 235.285C71.7417 237.373 68.414 239.722 65.4124 242.463C62.3456 245.138 59.6051 248.14 57.2561 251.467C54.907 254.73 52.8842 258.319 51.6445 262.103C50.3395 265.888 49.7522 269.934 50.3395 273.849L48.9692 273.979Z" fill="white"/>
<path d="M34.8097 268.563H44.8583H54.9069C54.9069 268.563 56.5382 277.307 51.9054 285.594H44.793H37.6807C33.1784 277.307 34.8097 268.563 34.8097 268.563Z" fill="#304A5F"/>
<path d="M33.4393 272.152C33.5046 269.934 33.7003 268.563 33.7003 268.563H44.8582H56.0161C56.0161 268.563 56.2119 269.934 56.2772 272.152H33.4393Z" fill="#2C4C6A"/>
<path d="M354.931 137.605H317.085C315.845 137.605 314.867 136.626 314.867 135.386V109.416C314.867 108.177 315.845 107.198 317.085 107.198H354.931C356.17 107.198 357.149 108.177 357.149 109.416V135.386C357.149 136.626 356.17 137.605 354.931 137.605Z" fill="white" stroke="#C3DBE6" stroke-width="2.7309" stroke-miterlimit="10"/>
<path d="M317.933 133.82C320.935 133.82 320.935 129.709 323.936 129.709C326.938 129.709 326.938 122.466 329.939 122.466C332.941 122.466 332.093 127.23 335.16 127.23C338.161 127.23 339.009 114.832 342.011 114.832C345.012 114.832 345.012 120.248 348.014 120.248C351.016 120.248 351.015 114.832 354.017 114.832" stroke="#C3DBE6" stroke-width="2" stroke-miterlimit="10" stroke-linecap="round" stroke-linejoin="round"/>
<path d="M375.354 79.8576H372.81C372.353 79.8576 371.961 79.5966 371.766 79.1398C371.57 78.6178 371.374 78.1611 371.178 77.7043C370.983 77.3128 371.048 76.7908 371.374 76.4645L373.201 74.6375C373.593 74.246 373.593 73.5283 373.201 73.1367L371.374 71.3097C370.983 70.9182 370.265 70.9182 369.873 71.3097L368.046 73.1367C367.72 73.463 367.198 73.5283 366.806 73.3325C366.35 73.0715 365.828 72.8757 365.371 72.7452C364.914 72.6147 364.653 72.2232 364.653 71.7012V69.1564C364.653 68.5692 364.196 68.1124 363.609 68.1124H361.064C360.477 68.1124 360.02 68.5692 360.02 69.1564V71.7012C360.02 72.158 359.759 72.5495 359.303 72.7452C358.781 72.941 358.324 73.1367 357.867 73.3325C357.476 73.5283 356.954 73.463 356.627 73.1367L354.8 71.3097C354.409 70.9182 353.691 70.9182 353.3 71.3097L351.472 73.1367C351.081 73.5283 351.081 74.246 351.472 74.6375L353.3 76.4645C353.626 76.7908 353.691 77.3128 353.495 77.7043C353.234 78.1611 353.039 78.6831 352.908 79.1398C352.778 79.5966 352.386 79.8576 351.864 79.8576H349.319C348.732 79.8576 348.275 80.3143 348.275 80.9016V83.4464C348.275 84.0337 348.732 84.4904 349.319 84.4904H351.864C352.321 84.4904 352.712 84.7514 352.908 85.2082C353.104 85.7302 353.299 86.1869 353.495 86.6437C353.691 87.0352 353.626 87.5572 353.3 87.8835L351.472 89.7105C351.081 90.102 351.081 90.8197 351.472 91.2112L353.3 93.0383C353.691 93.4298 354.409 93.4298 354.8 93.0383L356.627 91.2112C356.954 90.885 357.476 90.8197 357.867 91.0155C358.324 91.2765 358.846 91.4723 359.303 91.6028C359.759 91.7333 360.02 92.1248 360.02 92.6468V95.1916C360.02 95.7788 360.477 96.2356 361.064 96.2356H363.609C364.196 96.2356 364.653 95.7788 364.653 95.1916V92.6468C364.653 92.19 364.914 91.7985 365.371 91.6028C365.893 91.407 366.35 91.2112 366.806 91.0155C367.198 90.8197 367.72 90.885 368.046 91.2112L369.873 93.0383C370.265 93.4298 370.983 93.4298 371.374 93.0383L373.201 91.2112C373.593 90.8197 373.593 90.102 373.201 89.7105L371.374 87.8835C371.048 87.5572 370.983 87.0352 371.178 86.6437C371.439 86.1869 371.635 85.6649 371.766 85.2082C371.896 84.7514 372.288 84.4904 372.81 84.4904H375.354C375.942 84.4904 376.398 84.0337 376.398 83.4464V80.9016C376.398 80.3796 375.942 79.8576 375.354 79.8576ZM362.239 87.6224C359.303 87.6224 356.888 85.2082 356.888 82.2719C356.888 79.3356 359.303 76.9213 362.239 76.9213C365.175 76.9213 367.589 79.3356 367.589 82.2719C367.589 85.2082 365.24 87.6224 362.239 87.6224Z" fill="#C3DBE6"/>
<path d="M393.625 91.5375H391.993C391.732 91.5375 391.471 91.3418 391.341 91.0808C391.21 90.7545 391.08 90.4283 390.949 90.1673C390.819 89.9063 390.884 89.58 391.08 89.3843L392.189 88.275C392.45 88.014 392.45 87.5572 392.189 87.2962L391.015 86.1217C390.754 85.8607 390.297 85.8607 390.036 86.1217L388.926 87.231C388.731 87.4267 388.405 87.492 388.144 87.3615C387.817 87.231 387.556 87.1005 387.23 86.97C386.969 86.9047 386.773 86.6437 386.773 86.3175V84.6862C386.773 84.2947 386.447 84.0337 386.121 84.0337H384.489C384.098 84.0337 383.837 84.3599 383.837 84.6862V86.3175C383.837 86.5785 383.641 86.8395 383.38 86.97C383.054 87.1005 382.728 87.231 382.467 87.3615C382.206 87.492 381.879 87.4267 381.684 87.231L380.574 86.1217C380.313 85.8607 379.857 85.8607 379.596 86.1217L378.421 87.2962C378.16 87.5572 378.16 88.014 378.421 88.275L379.53 89.3843C379.726 89.58 379.791 89.9063 379.661 90.1673C379.53 90.4935 379.4 90.7545 379.269 91.0808C379.204 91.3418 378.943 91.5375 378.617 91.5375H376.986C376.594 91.5375 376.333 91.8638 376.333 92.1901V93.8213C376.333 94.2128 376.659 94.4738 376.986 94.4738H378.617C378.878 94.4738 379.139 94.6696 379.269 94.9306C379.4 95.2568 379.53 95.5831 379.661 95.8441C379.791 96.1051 379.726 96.4314 379.53 96.6271L378.421 97.7364C378.16 97.9974 378.16 98.4541 378.421 98.7151L379.596 99.8897C379.857 100.151 380.313 100.151 380.574 99.8897L381.684 98.7804C381.879 98.5846 382.206 98.5194 382.467 98.6499C382.793 98.7804 383.054 98.9109 383.38 99.0414C383.641 99.1067 383.837 99.3677 383.837 99.6939V101.325C383.837 101.717 384.163 101.978 384.489 101.978H386.121C386.512 101.978 386.773 101.651 386.773 101.325V99.6939C386.773 99.4329 386.969 99.1719 387.23 99.0414C387.556 98.9109 387.883 98.7804 388.144 98.6499C388.405 98.5194 388.731 98.5846 388.926 98.7804L390.036 99.8897C390.297 100.151 390.754 100.151 391.015 99.8897L392.189 98.7151C392.45 98.4541 392.45 97.9974 392.189 97.7364L391.08 96.6271C390.884 96.4314 390.819 96.1051 390.949 95.8441C391.08 95.5179 391.21 95.2568 391.341 94.9306C391.406 94.6696 391.667 94.4738 391.993 94.4738H393.625C394.016 94.4738 394.277 94.1476 394.277 93.8213V92.1901C394.277 91.7985 393.951 91.5375 393.625 91.5375ZM385.338 96.3661C383.445 96.3661 381.945 94.8653 381.945 92.9731C381.945 91.0808 383.445 89.58 385.338 89.58C387.23 89.58 388.731 91.0808 388.731 92.9731C388.731 94.8653 387.23 96.3661 385.338 96.3661Z" fill="#C3DBE6"/>
<path d="M377.964 62.8271H376.985C376.79 62.8271 376.659 62.6966 376.594 62.5661C376.529 62.3703 376.463 62.1746 376.333 61.9788C376.268 61.8483 376.268 61.6526 376.398 61.5221L377.116 60.8043C377.312 60.6086 377.312 60.3476 377.116 60.217L376.398 59.4993C376.202 59.3035 375.941 59.3035 375.811 59.4993L375.093 60.217C374.963 60.3476 374.767 60.3476 374.636 60.2823C374.441 60.2171 374.245 60.0866 374.049 60.0213C373.853 59.956 373.788 59.8255 373.788 59.6298V58.651C373.788 58.39 373.592 58.2595 373.397 58.2595H372.418C372.157 58.2595 372.026 58.4553 372.026 58.651V59.6298C372.026 59.8255 371.896 59.956 371.765 60.0213C371.57 60.0866 371.374 60.1518 371.178 60.2823C371.048 60.3476 370.852 60.3476 370.721 60.217L370.004 59.4993C369.808 59.3035 369.547 59.3035 369.416 59.4993L368.699 60.217C368.503 60.4128 368.503 60.6738 368.699 60.8043L369.416 61.5221C369.547 61.6526 369.547 61.8483 369.482 61.9788C369.416 62.1746 369.286 62.3703 369.221 62.5661C369.155 62.7618 369.025 62.8271 368.829 62.8271H367.85C367.589 62.8271 367.459 63.0228 367.459 63.2186V64.1974C367.459 64.4584 367.655 64.5889 367.85 64.5889H368.829C369.025 64.5889 369.155 64.7194 369.221 64.8499C369.286 65.0456 369.351 65.2414 369.482 65.4371C369.547 65.5676 369.547 65.7634 369.416 65.8939L368.699 66.6116C368.503 66.8074 368.503 67.0684 368.699 67.1989L369.416 67.9167C369.612 68.1124 369.873 68.1124 370.004 67.9167L370.721 67.1989C370.852 67.0684 371.048 67.0684 371.178 67.1336C371.374 67.1989 371.57 67.3294 371.765 67.3946C371.961 67.4599 372.026 67.5904 372.026 67.7862V68.7649C372.026 69.0259 372.222 69.1564 372.418 69.1564H373.397C373.658 69.1564 373.788 68.9607 373.788 68.7649V67.7862C373.788 67.5904 373.919 67.4599 374.049 67.3946C374.245 67.3294 374.441 67.2642 374.636 67.1336C374.767 67.0684 374.963 67.0684 375.093 67.1989L375.811 67.9167C376.007 68.1124 376.268 68.1124 376.398 67.9167L377.116 67.1989C377.312 67.0031 377.312 66.7421 377.116 66.6116L376.398 65.8939C376.268 65.7634 376.268 65.5676 376.333 65.4371C376.398 65.2414 376.529 65.0456 376.594 64.8499C376.659 64.6541 376.79 64.5889 376.985 64.5889H377.964C378.225 64.5889 378.356 64.3931 378.356 64.1974V63.2186C378.421 63.0228 378.225 62.8271 377.964 62.8271ZM372.875 65.8286C371.7 65.8286 370.787 64.9151 370.787 63.7406C370.787 62.5661 371.7 61.6526 372.875 61.6526C374.049 61.6526 374.963 62.5661 374.963 63.7406C374.963 64.9151 374.049 65.8286 372.875 65.8286Z" fill="#C3DBE6"/>
<path d="M230.106 237.112C229.845 234.894 228.67 232.806 227.169 231.109C225.669 229.413 223.842 228.042 222.015 226.672C219.665 224.976 217.121 223.344 214.25 223.018C212.879 222.888 211.444 223.018 210.269 223.736C209.095 224.454 208.181 225.693 208.181 227.064C208.181 228.76 209.356 230.196 210.661 231.24C211.966 232.284 213.467 233.132 214.511 234.437C215.816 236.133 216.207 238.417 217.251 240.31C218.295 242.137 219.992 243.507 222.015 244.094C223.776 244.616 226.843 244.877 228.213 243.311C229.714 241.68 230.367 239.331 230.106 237.112Z" fill="#005B84"/>
<path d="M230.562 237.308C229.91 235.742 229.649 233.98 230.04 232.284C230.497 230.391 231.802 228.76 232.455 226.868C233.107 224.976 233.172 222.822 234.282 221.126C235.521 219.168 238.131 218.189 240.35 218.907C242.569 219.625 244.069 222.039 243.808 224.323C243.613 225.954 242.634 227.325 242.242 228.891C241.655 231.109 242.112 233.523 241.459 235.742C240.872 237.569 239.502 239.135 237.74 239.918C236.892 240.309 236.043 240.505 235.13 240.831C234.543 241.027 233.89 241.419 233.303 241.288C231.933 240.897 231.019 238.417 230.562 237.308Z" fill="#005B84"/>
<path d="M234.869 251.467C235.717 249.901 237.479 248.792 239.306 248.727C240.611 248.662 241.851 249.053 243.156 249.184C244.591 249.314 246.027 249.053 247.462 249.379C248.833 249.706 250.268 250.815 250.138 252.25C250.072 253.294 249.159 254.143 248.18 254.469C247.201 254.795 246.157 254.795 245.113 254.73C244.069 254.665 243.025 254.599 241.981 254.86C240.807 255.187 239.763 255.97 238.653 256.557C237.479 257.144 235.587 257.666 234.804 256.361C233.89 254.926 234.086 252.838 234.869 251.467Z" fill="#005B84"/>
<path d="M231.084 269.411C231.084 269.411 232.455 252.25 241.459 251.272" stroke="white" stroke-width="0.724" stroke-miterlimit="10"/>
<path d="M231.215 273.326C231.215 273.326 229.78 246.574 236.892 227.325" stroke="white" stroke-width="0.724" stroke-miterlimit="10"/>
<path d="M231.411 257.47C231.411 257.47 231.672 239.07 216.077 228.825" stroke="white" stroke-width="0.724" stroke-miterlimit="10"/>
<path d="M241.068 268.759H231.084H221.101C221.101 268.759 219.47 277.437 224.037 285.594H231.084H238.131C242.699 277.437 241.068 268.759 241.068 268.759Z" fill="#304A5F"/>
<path d="M242.438 272.282C242.373 270.064 242.177 268.759 242.177 268.759H231.15H220.122C220.122 268.759 219.926 270.129 219.861 272.282H242.438Z" fill="#2C4C6A"/>
<path d="M281.784 12.0618H269.517V30.9193H281.784V12.0618Z" fill="#C3DBE6"/>
<path d="M275.651 0.186157L264.493 14.0194H286.809L275.651 0.186157Z" fill="#C3DBE6"/>
<path d="M184.626 63.8711H172.359V82.7286H184.626V63.8711Z" fill="#C3DBE6"/>
<path d="M178.492 94.6043L189.65 80.7711H167.334L178.492 94.6043Z" fill="#C3DBE6"/>
<path d="M367.213 29.8088C368.252 23.4058 363.904 17.3727 357.501 16.3336C351.098 15.2944 345.065 19.6426 344.025 26.0456C342.986 32.4486 347.334 38.4817 353.737 39.5209C360.14 40.56 366.174 36.2118 367.213 29.8088Z" stroke="#A2C5D2" stroke-width="8.5831" stroke-miterlimit="10"/>
<path d="M349.776 38.097C346.252 36.0742 343.903 32.2897 343.903 27.9178" stroke="#C3DBE6" stroke-width="8.5831" stroke-miterlimit="10"/>
<path d="M343.903 27.9178C343.903 21.4579 349.123 16.1726 355.648 16.1726" stroke="#DCECF0" stroke-width="8.5831" stroke-miterlimit="10"/>
<path d="M101.757 29.4838H94.1228C93.2746 29.4838 92.6221 28.8313 92.6221 27.983V20.3487C92.6221 19.5004 93.2746 18.8479 94.1228 18.8479H101.757C102.605 18.8479 103.258 19.5004 103.258 20.3487V27.983C103.258 28.766 102.605 29.4838 101.757 29.4838Z" fill="#C3DBE6"/>
<path d="M95.4279 24.7205L96.6025 26.0255L100.452 22.241" stroke="white" stroke-width="2.2181" stroke-miterlimit="10" stroke-linecap="round" stroke-linejoin="round"/>
<path d="M382.14 188.957H374.506C373.658 188.957 373.005 188.305 373.005 187.456V179.822C373.005 178.974 373.658 178.321 374.506 178.321H382.14C382.989 178.321 383.641 178.974 383.641 179.822V187.456C383.641 188.239 382.989 188.957 382.14 188.957Z" fill="#C3DBE6"/>
<path d="M375.811 184.194L377.051 185.499L380.901 181.714" stroke="white" stroke-width="2.2181" stroke-miterlimit="10" stroke-linecap="round" stroke-linejoin="round"/>
<path d="M54.4502 131.732H43.0966C41.8568 131.732 40.8781 130.753 40.8781 129.513V118.16C40.8781 116.92 41.8568 115.941 43.0966 115.941H54.4502C55.69 115.941 56.6688 116.92 56.6688 118.16V129.513C56.734 130.753 55.69 131.732 54.4502 131.732Z" fill="#C3DBE6"/>
<path d="M45.054 124.685L46.8158 126.642L52.5579 121.031" stroke="white" stroke-width="3.3059" stroke-miterlimit="10" stroke-linecap="round" stroke-linejoin="round"/>
<path d="M160.418 28.4398H156.176V32.9421H160.418V28.4398Z" fill="#C3DBE6"/>
<path d="M166.486 25.6993H162.245V32.8769H166.486V25.6993Z" fill="#C3DBE6"/>
<path d="M172.489 22.3062H168.248V32.9421H172.489V22.3062Z" fill="#C3DBE6"/>
<path d="M178.492 17.9344H174.251V32.8769H178.492V17.9344Z" fill="#C3DBE6"/>
<path d="M113.633 279.525H107.108L106.455 268.955L112.785 268.563L113.633 279.525Z" fill="#FFC29F"/>
<path d="M78.854 279.33L72.4594 279.134L73.5687 269.868L79.5065 270.717L78.854 279.33Z" fill="#FFC29F"/>
<path d="M84.5309 169.317L71.7417 275.349H79.5718L98.1683 198.223L106.064 275.349H113.829L111.936 169.317H84.5309Z" fill="#497D2D"/>
<path d="M131.185 130.296C131.185 130.296 132.49 127.817 132.36 126.642C132.229 125.468 132.033 123.837 133.208 122.075C133.469 121.683 134.252 120.574 134.252 120.574C134.252 120.574 134.905 121.227 134.578 121.944C134.252 122.662 134.056 123.38 134.056 123.38C134.056 123.38 134.644 122.336 136.797 121.749C137.776 121.488 141.756 120.444 141.756 120.444C142.343 120.444 142.213 121.227 141.169 121.749C141.169 121.749 141.691 122.271 140.777 122.793C140.777 122.793 141.43 123.249 140.19 123.967C140.19 123.967 140.712 124.359 139.407 125.142C138.232 125.859 136.405 126.838 135.949 127.491C135.427 128.339 134.513 131.406 134.513 131.406L131.185 130.296Z" fill="#FFC29F"/>
<path d="M90.0771 118.943C90.0771 118.943 82.1165 121.292 80.2895 121.749C78.4625 122.205 80.2895 133.755 82.769 147.001C85.2485 160.247 84.5308 169.382 84.5308 169.382H111.871C111.871 169.382 112.98 126.642 112.393 125.207C111.218 122.597 99.7995 118.943 99.7995 118.943H90.0771Z" fill="#0D97D6"/>
<path d="M91.7085 109.481C91.7085 109.481 91.9695 116.007 90.8603 118.682L92.2305 121.357L95.8846 123.576L98.2336 121.814L98.8861 119.791V109.481H91.7085Z" fill="#FFA980"/>
<path d="M88.7722 104.653C88.4459 103.805 88.4459 102.826 88.8374 102.043C89.1637 101.39 89.6857 100.803 90.0119 100.151C90.2729 99.5633 90.4687 98.9108 90.9254 98.4541C91.3822 97.9973 92.0999 97.8668 92.7525 97.9973C93.405 98.1278 93.927 98.5193 94.3837 98.9761C95.0362 99.6286 95.4278 100.412 95.6235 101.325C95.8845 102.369 95.754 103.478 95.5582 104.522C95.3625 105.501 95.1015 106.48 94.449 107.198C93.927 107.785 93.2092 108.111 92.4262 108.176C91.6432 108.242 90.5339 108.046 90.1424 107.328C89.9467 107.002 89.8162 106.545 89.6204 106.219C89.3594 105.632 88.9679 105.175 88.7722 104.653Z" fill="#2B2F3A"/>
<path d="M102.801 99.0413C102.801 99.0413 104.367 113.592 100.126 115.68C97.3853 117.051 93.0134 115.615 92.2957 109.09C91.6432 102.63 94.5142 99.4981 97.9725 99.0413C100.974 98.6498 102.801 99.0413 102.801 99.0413Z" fill="#FFC29F"/>
<path d="M92.2304 106.284C92.2304 106.284 91.2517 105.175 90.2729 106.284C89.2941 107.393 91.0559 109.612 92.3609 109.742L92.2304 106.284Z" fill="#FFC29F"/>
<path d="M94.449 101.129C95.232 101.26 96.015 101.129 96.798 101.26C97.7115 101.39 98.5598 101.782 99.4733 102.108C100.778 102.565 102.149 102.891 103.519 102.761C104.889 102.63 106.259 101.978 107.042 100.868C107.891 99.6939 108.021 98.1278 107.434 96.8881C106.847 95.5831 105.542 94.6695 104.106 94.6043C102.54 94.4738 101.039 95.2568 99.6038 95.7788C98.0377 96.3661 96.3412 96.6923 94.6447 96.6923C93.9269 96.6923 93.2744 96.6923 92.5567 96.8228C91.9042 97.0186 91.2517 97.4101 90.9907 98.0626C90.6644 98.9108 91.1864 99.4981 91.8389 100.02C92.6872 100.477 93.4702 100.999 94.449 101.129Z" fill="#2B2F3A"/>
<path d="M91.1212 117.899C91.1212 117.899 92.0347 121.096 95.9498 123.576C95.8193 124.75 92.4915 127.164 91.056 123.184C90.3382 121.227 90.1425 118.943 90.1425 118.943L91.1212 117.899Z" fill="#005B84"/>
<path d="M95.8846 123.576C98.8208 121.553 98.8861 118.029 98.8861 118.029L99.7996 118.943C99.7996 118.943 100.452 122.923 99.0818 124.75C98.1031 125.99 96.0151 124.359 95.8846 123.576Z" fill="#005B84"/>
<path d="M82.7039 169.773C82.7039 169.773 85.4444 173.949 86.6842 174.928C87.8587 175.907 88.7722 177.864 88.7722 177.864L85.2486 182.628C85.2486 182.628 83.1606 181.91 82.4429 179.43C81.7903 176.886 81.1378 176.625 80.0286 174.21C78.9193 171.796 78.9193 171.796 78.9193 171.796L82.7039 169.773Z" fill="#FFC29F"/>
<path d="M79.898 122.205C79.898 122.205 75.8525 122.466 73.9602 129.905C72.0679 137.344 69.7189 149.546 69.0664 154.766C68.8054 156.984 80.4853 176.298 80.4853 176.298C80.4853 176.298 82.8343 174.21 84.8571 172.449C84.8571 172.449 78.3973 158.942 78.3973 153.983C78.3973 153.983 84.2046 137.866 84.4003 132.972C84.5961 127.882 84.6614 122.662 79.898 122.205Z" fill="#24BAFF"/>
<path d="M112.458 125.207C113.959 125.468 118.592 135.778 121.593 141.128C124.53 146.479 124.53 146.479 124.53 146.479L131.642 128.209C131.642 128.209 133.991 127.817 135.426 129.905C135.426 129.905 131.642 154.57 130.663 157.31C129.684 160.051 126.748 162.074 121.528 155.483C116.308 148.893 107.238 136.169 106.52 134.734C105.737 133.298 103.649 123.837 112.458 125.207Z" fill="#24BAFF"/>
<path d="M107.108 278.808H113.176C113.176 278.808 113.829 278.808 115.851 280.896C117.874 282.984 123.681 280.961 125.835 285.202H106.586C106.586 285.137 104.824 281.809 107.108 278.808Z" fill="#005B84"/>
<path d="M70.2408 285.137C69.5231 282.723 71.2196 280.896 71.7416 278.742C72.0679 277.437 78.7887 276.589 79.4412 279.525C80.0937 282.331 79.5717 285.137 79.5717 285.137H70.2408Z" fill="#005B84"/>
<path d="M89.28 175.41L83.8702 183.331L85.1095 184.177L90.5193 176.256L89.28 175.41Z" fill="#5E9A3D"/>
<path d="M111.936 169.317H84.5308V171.274H111.936V169.317Z" fill="#5E9A3D"/>
<path d="M98.1683 198.223L102.018 183.998L99.4734 210.881L98.1683 198.223Z" fill="#5E9A3D"/>
<path d="M112.524 143.347L112.654 132.907L115.068 146.87L112.524 143.347Z" fill="#0D97D6"/>
<path d="M82.0514 142.89L83.8132 136.43L83.1607 149.089C83.1607 149.089 82.1166 143.543 82.0514 142.89Z" fill="#0D97D6"/>
<path d="M345.013 284.289L332.354 228.825H337.117L346.905 284.289C346.775 285.463 345.013 285.463 345.013 284.289Z" fill="#2C4C6A"/>
<path d="M312.974 284.289L300.316 228.825H305.079L314.867 284.289C314.801 285.463 313.04 285.463 312.974 284.289Z" fill="#2C4C6A"/>
<path d="M269.126 284.289L281.785 228.825H277.021L267.234 284.289C267.299 285.463 269.061 285.463 269.126 284.289Z" fill="#A2C5D2"/>
<path d="M349.776 184.911H324.002C322.371 184.911 320.87 185.956 320.283 187.522L307.689 222.17C306.776 224.715 308.668 227.455 311.408 227.455H337.183C338.814 227.455 340.315 226.411 340.902 224.845L353.495 190.197C354.474 187.652 352.516 184.911 349.776 184.911Z" fill="#A2C5D2"/>
<path d="M339.662 230.196H273.498C272.715 230.196 272.128 229.608 272.128 228.825C272.128 228.042 272.715 227.455 273.498 227.455H339.727C340.51 227.455 341.098 228.042 341.098 228.825C341.098 229.543 340.445 230.196 339.662 230.196Z" fill="#A2C5D2"/>
<path d="M339.662 230.196H312.975C312.192 230.196 311.604 229.608 311.604 228.825C311.604 228.042 312.192 227.455 312.975 227.455H339.662C340.445 227.455 341.033 228.042 341.033 228.825C341.098 229.543 340.445 230.196 339.662 230.196Z" fill="#91B9C4"/>
<path d="M299.011 284.289L311.669 228.825H306.971L297.184 284.289C297.249 285.463 298.945 285.463 299.011 284.289Z" fill="#A2C5D2"/>
<path d="M320.152 149.154C320.152 149.154 316.367 149.35 316.041 153.461C315.715 157.571 316.498 159.725 314.671 163.835C312.909 167.946 311.474 173.493 318.847 174.015C326.286 174.537 328.569 174.21 330.853 175.972C333.137 177.734 340.902 172.383 338.161 167.62C335.355 162.857 334.311 160.116 335.421 156.462C336.595 152.808 334.181 148.763 329.679 147.001C326.025 145.565 322.958 145.826 320.152 149.154Z" fill="#21323F"/>
<path d="M318.195 172.775C318.195 172.775 319.239 176.037 316.694 185.368C314.149 194.699 313.301 197.766 310.886 199.528C309.386 200.637 292.551 200.637 292.551 200.637V195.874L307.428 194.047C307.428 194.047 309.32 184.846 311.213 179.039C311.865 177.016 312.974 171.861 315.323 170.817C317.607 169.773 318.195 172.775 318.195 172.775Z" fill="#5E9A3D"/>
<path d="M337.313 188.696C336.595 193.981 334.703 206.836 334.703 206.836H314.997C314.997 206.836 315.584 198.941 314.606 194.699C314.41 193.916 314.214 193.264 313.888 192.742C312.387 190.327 311.017 188.044 310.952 185.499C310.952 184.912 311.017 184.259 311.213 183.607C312.126 180.279 313.431 173.036 315.062 171.013C316.694 168.99 324.915 169.251 324.915 169.251C324.915 169.251 335.682 169.251 338.879 171.078C339.727 171.535 340.054 172.644 340.119 173.949C340.38 177.995 337.835 184.716 337.313 188.696Z" fill="#497D2D"/>
<path d="M334.116 190.458C334.116 190.458 319.043 191.698 314.606 194.699C314.41 193.916 314.214 193.264 313.888 192.742C312.387 190.327 311.017 188.044 310.952 185.499C311.93 187.587 314.475 190.327 320.935 190.393C331.375 190.588 334.116 190.458 334.116 190.458Z" fill="#36601F"/>
<path d="M337.313 188.696C336.595 193.981 334.703 206.836 334.703 206.836L335.616 176.364L340.184 173.884C340.38 177.995 337.835 184.716 337.313 188.696Z" fill="#36601F"/>
<path d="M329.679 196.461C329.679 196.461 320.283 196.787 317.281 196.983C317.281 196.983 314.606 195.939 312.909 195.808C310.364 195.613 308.146 198.157 307.493 200.572H329.287L329.679 196.461Z" fill="#FFC29F"/>
<path d="M339.793 172.122C339.793 172.122 342.598 177.277 344.36 184.128C346.187 190.98 348.667 197.896 346.383 199.854C344.099 201.746 329.418 201.028 329.418 201.028L329.026 195.874L340.184 194.047C340.184 194.047 335.943 183.476 335.29 181.584C334.638 179.691 334.116 173.819 336.465 172.775C338.814 171.731 339.793 172.122 339.793 172.122Z" fill="#5E9A3D"/>
<path d="M285.96 279.721H282.632L282.176 274.762L286.287 274.37L285.96 279.721Z" fill="#FFC29F"/>
<path d="M285.96 279.721C285.96 279.721 287.2 281.026 286.809 283.897C286.613 285.267 283.677 285.137 278.717 285.137H273.758C272.91 285.137 272.519 284.093 273.171 283.571C273.497 283.31 273.889 283.049 274.476 282.918C280.088 281.157 282.633 279.786 282.633 279.786H285.96V279.721Z" fill="#192730"/>
<path d="M325.829 206.901C325.829 208.598 329.744 214.405 328.961 220.082C328.439 223.801 325.241 227.455 317.803 227.455C307.624 227.455 291.441 227.325 288.831 227.455C286.743 227.52 285.765 227.586 286.939 231.566C289.875 240.962 287.396 256.883 286.613 278.481H282.176C282.176 278.481 278.261 256.035 276.629 245.203C274.085 228.303 270.235 221.713 277.608 218.189C285.373 214.47 314.997 206.836 314.997 206.836H325.829V206.901Z" fill="#005B84"/>
<path d="M295.552 279.721H292.225L291.768 274.762L295.879 274.37L295.552 279.721Z" fill="#FFC29F"/>
<path d="M295.552 279.721C295.552 279.721 296.792 281.026 296.401 283.897C296.205 285.267 293.268 285.137 288.309 285.137H283.35C282.502 285.137 282.111 284.093 282.763 283.571C283.089 283.31 283.481 283.049 284.068 282.918C289.68 281.157 292.224 279.786 292.224 279.786H295.552V279.721Z" fill="#21323F"/>
<path d="M334.703 206.901C334.703 208.598 338.618 214.405 337.835 220.082C337.313 223.801 334.115 227.455 326.677 227.455C316.498 227.455 300.381 227.455 297.705 227.455C295.617 227.455 294.639 227.586 295.813 231.566C298.749 240.962 297.444 257.079 295.944 278.481H291.507C291.507 278.481 287.135 256.035 285.504 245.203C282.959 228.303 279.109 221.713 286.482 218.189C294.247 214.47 321.587 206.836 321.587 206.836H334.703V206.901Z" fill="#0D97D6"/>
<path d="M319.565 169.512C319.565 169.512 319.5 173.688 322.371 176.103C322.371 176.103 328.439 173.297 330.592 169.512C330.592 169.512 324.915 168.86 319.565 169.512Z" fill="#FFC29F"/>
<path d="M320.805 169.382C320.805 169.382 322.305 169.251 322.305 167.489C322.305 165.728 322.501 162.4 322.501 162.4L328.113 162.857C328.113 162.857 327.656 168.338 328.569 169.382C329.483 170.361 329.483 170.361 329.483 170.361C329.483 170.361 321.718 171.666 320.805 169.382Z" fill="#FFC29F"/>
<path d="M322.305 166.772C322.305 166.772 326.025 167.359 327.982 165.793L328.113 162.922L322.305 164.162V166.772Z" fill="#FFA980"/>
<path d="M319.043 151.242C319.043 151.242 314.084 164.814 321.066 166.315C327.982 167.816 329.418 160.573 329.418 160.573C329.418 160.573 331.245 160.116 331.506 158.615C331.767 157.115 329.679 157.702 329.679 157.702C329.679 157.702 331.506 152.09 327.33 150.263C322.893 148.306 319.891 149.285 319.043 151.242Z" fill="#FFC29F"/>
<path d="M319.695 149.611C319.695 149.611 321.261 157.245 329.679 157.702C329.679 157.702 331.832 152.286 330.397 150.002C328.896 147.719 322.175 146.283 319.695 149.611Z" fill="#21323F"/>
<path d="M312.061 199.071H278.979L271.083 177.277C270.757 176.364 271.41 175.385 272.388 175.385H302.469C303.056 175.385 303.578 175.776 303.774 176.298L312.061 199.071Z" fill="#21323F"/>
<path d="M331.701 201.094H298.815C298.228 201.094 297.771 200.637 297.771 200.05C297.771 199.462 298.228 199.006 298.815 199.006H331.701C332.289 199.006 332.745 199.462 332.745 200.05C332.745 200.637 332.289 201.094 331.701 201.094Z" fill="#21323F"/>
<path d="M311.93 201.094H279.044C278.457 201.094 278 200.637 278 200.05C278 199.462 278.457 199.006 279.044 199.006H311.93C312.517 199.006 312.974 199.462 312.974 200.05C312.974 200.637 312.517 201.094 311.93 201.094Z" fill="#21323F"/>
<path d="M390.036 283.897L371.57 203.051H378.486L392.776 283.897C392.711 285.594 390.101 285.594 390.036 283.897Z" fill="#2C4C6A"/>
<path d="M203.614 283.897L185.148 203.051H192.064L206.354 283.897C206.289 285.594 203.744 285.594 203.614 283.897Z" fill="#2C4C6A"/>
<path d="M130.598 283.897L149.064 203.051H142.147L127.858 283.897C127.988 285.594 130.533 285.594 130.598 283.897Z" fill="#C3DBE6"/>
<path d="M307.95 283.897L326.416 203.051H319.5L305.21 283.897C305.34 285.594 307.885 285.594 307.95 283.897Z" fill="#C3DBE6"/>
<path d="M129.554 204.944H392.972C393.886 204.944 394.603 204.226 394.603 203.312V202.79C394.603 201.877 393.886 201.159 392.972 201.159H129.554C128.641 201.159 127.923 201.877 127.923 202.79V203.312C127.858 204.226 128.641 204.944 129.554 204.944Z" fill="#A2C5D2"/>
<path d="M334.05 204.944H392.646C393.69 204.944 394.538 204.095 394.538 203.051C394.538 202.007 393.69 201.159 392.646 201.159H334.05C333.006 201.159 332.158 202.007 332.158 203.051C332.158 204.095 333.006 204.944 334.05 204.944Z" fill="#91B9C4"/>
<path d="M185.539 199.071H218.621L226.517 177.277C226.843 176.364 226.191 175.385 225.212 175.385H195.131C194.544 175.385 194.022 175.776 193.826 176.298L185.539 199.071Z" fill="#21323F"/>
<path d="M165.899 201.094H198.785C199.372 201.094 199.829 200.637 199.829 200.05C199.829 199.462 199.372 199.006 198.785 199.006H165.899C165.311 199.006 164.855 199.462 164.855 200.05C164.855 200.637 165.377 201.094 165.899 201.094Z" fill="#21323F"/>
<path d="M185.67 201.094H218.556C219.143 201.094 219.6 200.637 219.6 200.05C219.6 199.462 219.143 199.006 218.556 199.006H185.67C185.083 199.006 184.626 199.462 184.626 200.05C184.626 200.637 185.083 201.094 185.67 201.094Z" fill="#21323F"/>
</svg>
