<svg width="377" height="370" viewBox="0 0 377 370" fill="none" xmlns="http://www.w3.org/2000/svg">
<path d="M45.6193 55.8941C111.419 5.05632 326.674 -40.8217 343.206 62.5072C359.739 165.836 283.854 291.153 194.992 304.71C106.046 318.349 -59.3628 136.904 45.6193 55.8941Z" fill="#F7FFF2"/>
<path d="M142.17 94.5804H219.294C219.294 94.5804 212.02 87.6367 204.415 89.7033C204.415 89.7033 205.572 75.8985 193.586 83.5862C193.586 83.5862 196.562 65.979 182.096 62.5898C167.63 59.2006 166.059 82.8422 166.059 82.8422C166.059 82.8422 163.827 78.0478 159.529 79.8663C155.231 81.6023 154.983 89.4553 154.983 89.4553C154.983 89.4553 146.468 87.8847 142.17 94.5804Z" fill="#E5F9F9"/>
<path d="M103.732 272.306C105.55 273.629 107.286 274.951 109.105 276.191C111.006 255.112 116.296 200.307 116.296 200.307L124.811 199.397L119.355 128.142L112.99 129.134V130.622L106.377 131.696V130.208L91.7455 132.523C91.7455 132.523 89.927 151.288 87.5297 175.26L102.988 173.772L103.732 272.306Z" fill="#86D3D9"/>
<path d="M154.156 246.267H171.846L170.523 158.314L184.989 152.858L173.169 29.3594L154.404 41.1802L157.876 44.3214L147.543 47.8759V45.5613L143.906 47.7932L134.648 198.488L150.436 196.835L154.156 246.267Z" fill="#74B750"/>
<path d="M112.99 130.704V129.216V124.091L106.377 125.331V130.291V131.779L112.99 130.704Z" fill="#86D3D9"/>
<path d="M55.7044 102.351V100.863L40.9904 103.26C40.9904 103.26 36.2786 151.453 32.3107 192.123C38.5105 203.2 45.8675 213.946 54.0511 224.279L55.787 178.483L74.6342 176.665L68.6825 98.8789L62.3174 99.8709V101.359L55.7044 102.351Z" fill="#74B750"/>
<path d="M55.7045 102.351L62.3175 101.359V99.871V94.7458L55.7045 95.9858V100.863V102.351Z" fill="#A5F17C"/>
<path d="M218.22 298.51C219.542 298.014 220.865 297.518 222.188 296.94L220.865 223.204L238.142 221.386C236.984 200.72 235.992 183.857 235.992 183.857L250.954 186.667L238.307 80.0319L225.329 74.5761L225.577 79.7012L220.038 76.3947L219.625 72.2615L204.25 65.8965L204.167 145.749L210.78 143.269L218.22 298.51Z" fill="#74B750"/>
<path d="M276.498 258.915C278.895 256.435 281.292 253.872 283.607 251.31L274.266 153.271L291.873 156.33L285.508 98.879L256.824 92.3486L260.957 188.734L269.141 190.304L276.498 258.915Z" fill="#74B750"/>
<path d="M157.876 44.3214L154.404 41.1802L147.543 34.8152V45.5614V47.876L157.876 44.3214Z" fill="#A5F17C"/>
<path d="M225.494 79.7011L225.329 74.6587L225.164 71.1868L219.212 68.0457L219.625 72.2615L219.956 76.3946L225.494 79.7011Z" fill="#A5F17C"/>
<path d="M325.186 185.345C330.311 173.524 334.61 161.29 337.834 148.808L330.642 84.3303L326.095 84.4957C326.426 86.5622 326.591 88.4635 326.261 88.3808C325.434 88.0502 318.49 87.3062 318.49 87.3062L318.325 84.909L297.246 85.8183L299.313 133.846L319.73 137.4L325.186 185.345Z" fill="#74B750"/>
<path d="M326.178 88.2982C326.509 88.4635 326.343 86.5622 326.013 84.413C325.682 81.9331 325.103 79.1226 325.103 79.1226L317.746 79.3705L318.16 84.7436L318.325 87.1409C318.408 87.2235 325.434 87.9675 326.178 88.2982Z" fill="#A5F17C"/>
<path d="M54.0511 224.196C68.5999 242.382 85.7111 258.915 103.732 272.306L103.07 173.854L87.6124 175.342L74.7169 176.582L55.7871 178.484L54.0511 224.196Z" fill="#74B750"/>
<path d="M109.105 276.191C123.405 286.194 138.119 294.047 152.255 299.172C150.271 278.093 147.13 246.267 147.13 246.267H154.239L150.436 196.835L134.648 198.488L124.811 199.48L116.296 200.389C116.296 200.307 111.006 255.112 109.105 276.191Z" fill="#74B750"/>
<path d="M171.846 246.267H177.302L180.278 305.289C185.403 305.619 190.28 305.454 194.992 304.71C202.845 303.47 210.698 301.404 218.303 298.51L210.863 143.269L204.25 145.749L185.072 152.941L170.606 158.314L171.846 246.267Z" fill="#74B750"/>
<path d="M171.846 246.267H154.239H147.13C147.13 246.267 150.271 278.093 152.255 299.172C161.926 302.644 171.267 304.71 180.195 305.289L177.219 246.267H171.846Z" fill="#74B750"/>
<path d="M238.224 221.468L220.948 223.287L222.27 297.022C230.867 293.468 239.299 288.839 247.4 283.466L241.448 221.22L238.224 221.468Z" fill="#74B750"/>
<path d="M283.606 251.227C290.716 243.209 297.329 234.529 303.446 225.354L296.915 156.991L291.873 156.164L274.266 153.106L283.606 251.227Z" fill="#74B750"/>
<path d="M303.446 225.436C311.795 212.871 319.069 199.397 325.186 185.345L319.648 137.317L299.23 133.763L294.601 132.936L296.915 157.074L303.446 225.436Z" fill="#74B750"/>
<path d="M281.044 67.4671H376.272C376.272 67.4671 367.344 58.9528 357.838 61.4327C357.838 61.4327 359.243 44.3214 344.446 53.8277C344.446 53.8277 348.083 32.0046 330.228 27.8715C312.373 23.6556 310.389 52.9184 310.389 52.9184C310.389 52.9184 307.579 47.0493 302.288 49.1985C296.998 51.3478 296.667 61.102 296.667 61.102C296.667 61.102 286.334 59.2008 281.044 67.4671Z" fill="#C5FEA7"/>
<path d="M0.0719604 78.3784H95.2998C95.2998 78.3784 86.3722 69.8641 76.866 72.344C76.866 72.344 78.2712 55.2328 63.4745 64.739C63.4745 64.739 67.1117 42.916 49.2565 38.7828C31.4013 34.567 29.4174 63.8297 29.4174 63.8297C29.4174 63.8297 26.6068 57.9607 21.3164 60.1099C16.0259 62.2591 15.6953 72.0134 15.6953 72.0134C15.6953 72.0134 5.3624 70.1121 0.0719604 78.3784Z" fill="#C5FEA7"/>
<path d="M75.3783 326.202C67.9386 326.698 86.9511 368.361 93.8122 369.848C99.5986 371.419 183.915 346.868 184.08 338.189C183.75 331.989 94.4735 326.781 75.3783 326.202Z" fill="#E6E7E8"/>
<path d="M130.928 196.421L175.401 337.941L169.779 343.314L124.48 200.72L130.928 196.421Z" fill="#AD744B"/>
<path d="M124.067 213.863L101.086 364.889L93.9774 362.657L120.76 209.234L124.067 213.863Z" fill="#AD744B"/>
<path d="M120.182 187.907L85.2152 332.237L77.5276 333.807L120.264 160.793L120.182 187.907Z" fill="#914E33"/>
<path d="M127.621 164.927L125.885 88.2154L117.867 86.6448L123.901 166.911L127.621 164.927Z" fill="#AD744B"/>
<path d="M181.766 119.545L185.651 115.494L179.368 113.758L58.8456 122.19L62.8135 216.756L69.5918 221.22L181.766 119.545Z" fill="#244213"/>
<path d="M185.651 115.494L196.232 210.805L69.5918 221.22L62.8135 125.083L185.651 115.494Z" fill="#74B750"/>
<path d="M99.0199 136.325L68.3519 131.614L75.2956 217.418L188.048 208.656L179.616 124.587L99.0199 136.325Z" fill="#D8BF9E"/>
<path d="M199.951 205.101L180.112 206.589H179.699L159.86 208.077H159.447L141.261 209.482H140.847L121.67 210.97H121.256L101.582 212.458H101.169L83.2312 213.863C83.2312 213.863 80.09 209.4 77.1968 201.547C77.1968 201.464 77.1142 201.299 77.1142 201.216C75.3782 196.339 73.6423 190.222 72.8157 183.03C72.8157 182.947 72.8157 182.782 72.733 182.699C72.6504 181.625 72.485 180.468 72.4024 179.31C72.0717 174.433 71.6584 169.225 71.2451 164.183C71.2451 164.1 71.2451 163.935 71.2451 163.852C70.7491 157.818 70.2531 151.866 69.7571 146.824C69.7571 146.741 69.7571 146.576 69.7571 146.493C68.9305 137.731 68.3519 131.531 68.3519 131.531L84.6365 130.539H84.9671L102.905 129.382H103.236L120.512 128.307H120.843L140.517 127.067H140.847L160.852 125.827H161.183L179.616 124.67C179.616 124.67 180.03 129.96 181.022 137.813C181.022 137.896 181.022 138.061 181.104 138.144C181.766 143.269 182.592 149.552 183.75 156.165C183.75 156.247 183.75 156.413 183.832 156.495C184.824 162.199 185.899 168.151 187.221 173.854C187.221 173.937 187.304 174.102 187.304 174.185C188.792 180.55 190.528 186.667 192.512 191.875C192.594 191.958 192.594 192.123 192.677 192.206C194.744 197.827 197.141 202.373 199.951 205.101Z" fill="#F7EADC"/>
<path d="M101.582 212.623H101.169C98.7718 208.904 96.7052 204.688 94.9693 200.224C94.8866 200.141 94.8866 199.976 94.804 199.893C92.5721 194.107 90.8361 187.907 89.5135 181.873C89.5135 181.79 89.4309 181.625 89.4309 181.542C88.1909 175.838 87.2816 170.135 86.6203 165.01C86.5377 164.431 86.455 163.852 86.3723 163.356C86.3723 163.274 86.3723 163.108 86.3723 163.026C85.6284 156.826 85.2151 150.957 84.8844 145.832C84.8844 145.749 84.8844 145.584 84.8844 145.501C84.5538 138.888 84.4711 133.68 84.4711 130.704H84.8017C84.8017 133.598 84.8844 138.888 85.2151 145.501C85.2151 145.584 85.2151 145.749 85.2151 145.832C85.4631 150.957 85.959 156.826 86.703 163.026C86.703 163.108 86.703 163.274 86.7857 163.356C86.8683 163.935 86.951 164.431 86.951 165.01C87.6123 170.217 88.5216 175.838 89.7615 181.625C89.7615 181.707 89.8442 181.873 89.8442 181.955C91.1668 188.073 92.9027 194.272 95.1346 199.976C95.2173 200.059 95.2173 200.224 95.3 200.307C97.1185 204.688 99.1025 208.904 101.582 212.623Z" fill="#E2C9A8"/>
<path d="M121.587 211.135H121.174C118.776 207.581 116.71 203.282 114.891 198.571C114.809 198.488 114.809 198.323 114.726 198.24C112.577 192.619 110.841 186.419 109.435 180.302C109.435 180.219 109.353 180.054 109.353 179.971C108.113 174.681 107.204 169.39 106.377 164.596C106.212 163.687 106.129 162.86 105.964 161.951C105.964 161.868 105.964 161.703 105.881 161.62C104.972 155.42 104.31 149.469 103.814 144.344C103.814 144.261 103.814 144.096 103.814 144.013C103.236 137.731 102.905 132.688 102.74 129.547H103.07C103.236 132.605 103.566 137.731 104.228 144.013C104.228 144.096 104.228 144.261 104.228 144.344C104.724 149.469 105.385 155.42 106.377 161.62C106.377 161.703 106.377 161.868 106.46 161.951C107.369 167.82 108.444 174.02 109.849 179.971C109.849 180.054 109.931 180.219 109.931 180.302C111.337 186.584 113.073 192.784 115.222 198.24C115.222 198.323 115.305 198.488 115.387 198.571C117.123 203.282 119.19 207.581 121.587 211.135Z" fill="#E2C9A8"/>
<path d="M141.261 209.565H140.847C138.616 206.176 136.549 201.877 134.73 196.917C134.648 196.835 134.648 196.669 134.565 196.587C132.581 191.131 130.763 185.014 129.192 178.732C129.192 178.649 129.109 178.484 129.109 178.401C127.621 172.449 126.381 166.415 125.307 160.546C125.307 160.463 125.224 160.298 125.224 160.215C124.067 153.933 123.158 147.981 122.331 142.773C122.331 142.691 122.331 142.525 122.248 142.443C121.339 136.408 120.76 131.448 120.43 128.307H120.76C121.091 131.448 121.752 136.408 122.579 142.36C122.579 142.443 122.579 142.608 122.662 142.691C123.406 147.898 124.397 153.85 125.555 160.132C125.555 160.215 125.637 160.38 125.637 160.463C126.712 166.332 127.952 172.367 129.44 178.318C129.44 178.401 129.523 178.566 129.523 178.649C131.093 185.014 132.912 191.131 134.896 196.504C134.978 196.587 134.978 196.752 135.061 196.835C136.88 201.877 138.946 206.258 141.261 209.565Z" fill="#E2C9A8"/>
<path d="M159.86 208.16H159.446C157.297 204.77 155.396 200.307 153.66 195.347C153.66 195.264 153.577 195.099 153.577 195.016C151.676 189.478 150.023 183.361 148.535 177.161C148.535 177.078 148.452 176.913 148.452 176.83C147.46 172.366 146.551 167.985 145.724 163.769C145.476 162.199 145.146 160.628 144.898 159.058C144.898 158.975 144.815 158.81 144.815 158.727C143.741 152.362 142.831 146.328 142.17 141.12C142.17 141.037 142.17 140.872 142.087 140.789C141.343 134.92 140.765 130.126 140.434 126.984H140.765C141.095 130.043 141.591 134.92 142.418 140.789C142.418 140.872 142.418 141.037 142.501 141.12C143.162 146.328 144.071 152.445 145.146 158.727C145.146 158.81 145.228 158.975 145.228 159.058C145.476 160.628 145.807 162.116 146.055 163.687C146.799 167.903 147.708 172.284 148.783 176.748C148.783 176.83 148.866 176.996 148.866 177.078C150.271 183.278 152.007 189.395 153.908 194.933C153.908 195.016 153.991 195.181 153.991 195.264C155.727 200.307 157.711 204.77 159.86 208.16Z" fill="#E2C9A8"/>
<path d="M180.112 206.672H179.699C177.55 203.2 175.566 198.819 173.747 193.776C173.747 193.694 173.665 193.528 173.665 193.446C171.763 188.072 170.11 181.955 168.705 175.673C168.705 175.59 168.622 175.425 168.622 175.342C167.299 169.556 166.142 163.522 165.15 157.818C165.15 157.735 165.15 157.57 165.068 157.487C163.993 151.039 163.084 144.922 162.422 139.632C162.422 139.549 162.422 139.384 162.34 139.301C161.596 133.515 161.1 128.72 160.769 125.827H161.1C161.43 128.72 161.926 133.432 162.67 139.301C162.67 139.384 162.67 139.549 162.753 139.632C163.414 144.922 164.324 151.039 165.398 157.487C165.398 157.57 165.398 157.735 165.481 157.818C166.473 163.522 167.63 169.556 168.953 175.342C168.953 175.425 169.035 175.59 169.035 175.673C170.441 181.955 172.177 188.072 173.995 193.446C173.995 193.528 174.078 193.694 174.078 193.776C175.896 198.736 177.88 203.2 180.112 206.672Z" fill="#E2C9A8"/>
<path d="M181.022 138.144L162.753 139.632H162.422L142.501 141.202H142.17L122.744 142.773H122.414L104.393 144.178H103.98L85.3804 145.666H85.0498L69.8398 146.906C69.8398 146.824 69.8398 146.658 69.8398 146.576L85.0498 145.336H85.3804L103.98 143.848H104.31L122.331 142.442H122.661L142.087 140.872H142.418L162.34 139.301H162.67L180.939 137.813C181.022 137.896 181.022 137.979 181.022 138.144Z" fill="#E2C9A8"/>
<path d="M183.749 156.495L165.481 157.735H165.15L145.228 159.14H144.898L125.637 160.463H125.307L106.542 161.786H106.129L86.8683 163.108H86.5377L71.3276 164.183C71.3276 164.1 71.3276 163.935 71.3276 163.852L86.5377 162.778H86.8683L106.129 161.455H106.542L125.307 160.132H125.637L144.898 158.81H145.228L165.15 157.404H165.481L183.749 156.165C183.667 156.247 183.667 156.33 183.749 156.495Z" fill="#E2C9A8"/>
<path d="M187.221 174.185L169.036 175.59H168.705L148.866 177.161H148.535L129.605 178.649H129.275L110.014 180.137H109.601L90.0097 181.707H89.679L72.8984 183.03C72.8984 182.947 72.8984 182.782 72.8157 182.699L89.5963 181.377H89.927L109.518 179.806H109.931L129.192 178.318H129.523L148.452 176.83H148.783L168.622 175.26H168.953L187.139 173.854C187.139 173.937 187.221 174.102 187.221 174.185Z" fill="#E2C9A8"/>
<path d="M192.512 192.206L174.078 193.694H173.747L153.991 195.347H153.66L135.061 196.835H134.73L115.387 198.405H115.056L95.3826 200.059H95.0519L77.2794 201.547C77.2794 201.464 77.1967 201.299 77.1967 201.216L94.9693 199.728H95.2999L114.974 198.075H115.304L134.648 196.504H134.978L153.577 195.016H153.908L173.665 193.363H173.995L192.429 191.875C192.429 191.958 192.512 192.123 192.512 192.206Z" fill="#E2C9A8"/>
<path d="M100.094 200.72L100.425 202.787L93.9773 203.283L88.6042 203.696L88.0255 201.381L100.094 200.72Z" fill="#D89705"/>
<path d="M99.7638 196.174L100.094 198.323H99.6811L98.6065 198.405L93.1507 198.819L88.2736 199.232L87.695 197L92.8201 196.67L95.6306 196.504L99.7638 196.174Z" fill="#D89705"/>
<path d="M97.5319 189.726L97.8626 191.792L91.9935 192.123L86.3724 192.454L85.9591 192.536L85.3805 190.387L97.5319 189.726Z" fill="#EDAB01"/>
<path d="M98.4412 191.792L98.7719 193.859H98.5239L92.4895 194.355H92.4068L86.9511 194.768L86.3724 192.454L98.4412 191.792Z" fill="#D89705"/>
<path d="M100.342 200.72L88.4389 201.381L87.8603 199.315L88.2736 199.232L93.1507 198.819L98.6065 198.405L99.6811 198.323L100.342 200.72Z" fill="#EDAB01"/>
<path d="M99.1023 196.256L95.6305 196.504L92.8199 196.669L87.6948 197H87.2815L86.6202 194.851L92.4066 194.355H92.4893L98.5237 193.859L99.1023 196.256Z" fill="#EDAB01"/>
<path d="M97.3666 187.411L97.7799 189.643L91.5801 190.056L85.8764 190.387L85.2978 188.072L97.3666 187.411Z" fill="#D89705"/>
<path d="M97.036 182.865L97.3667 184.931L96.9533 185.014L90.7536 185.51L85.5458 185.923L84.9672 183.691V183.609L90.423 183.278L93.8121 183.113L97.036 182.865Z" fill="#D89705"/>
<path d="M94.7214 176.417L95.1347 178.484L89.5963 178.814L83.6445 179.145H83.2312L82.6526 177.078L94.7214 176.417Z" fill="#EDAB01"/>
<path d="M95.7133 178.401L96.044 180.55H95.7133L90.0096 180.963L85.2978 181.377L84.2231 181.459L83.6445 179.145V179.062L95.7133 178.401Z" fill="#D89705"/>
<path d="M97.5319 187.411L85.7111 188.072L85.1325 185.923H85.5458L90.7536 185.51L96.9533 185.014L97.5319 187.411Z" fill="#EDAB01"/>
<path d="M96.3746 182.947L93.8121 183.113L90.4229 183.278L84.9671 183.691H84.5538L83.8925 181.459H84.2232L85.2978 181.377L90.0096 180.963L95.7133 180.55L96.3746 182.947Z" fill="#EDAB01"/>
<path d="M94.8043 174.103L95.135 176.334L89.1832 176.665L83.3141 176.996L82.7355 174.764L94.8043 174.103Z" fill="#D89705"/>
<path d="M94.4734 169.556L94.8041 171.623L94.3908 171.705L88.3564 172.119L82.9833 172.615L82.4046 170.3L88.0257 169.969L90.3403 169.804L94.4734 169.556Z" fill="#D89705"/>
<path d="M92.1589 163.026L92.5722 165.175L87.1991 165.423L81.1647 165.836H80.6687L80.1728 163.687L92.1589 163.026Z" fill="#EDAB01"/>
<path d="M93.1509 165.092L93.4816 167.159L93.1509 167.242L87.6125 167.655L81.7434 168.151L81.1648 165.836L81.0821 165.754L93.1509 165.092Z" fill="#D89705"/>
<path d="M94.9694 174.103L83.2312 174.681L82.5699 172.615H82.9832L88.3563 172.119L94.3907 171.705L94.9694 174.103Z" fill="#EDAB01"/>
<path d="M93.8122 169.639L90.3403 169.804L88.0258 169.969L82.4047 170.3L81.9914 170.383L81.4127 168.151H81.7434L87.6124 167.655L93.1509 167.241L93.8122 169.639Z" fill="#EDAB01"/>
<path d="M120.347 199.562L120.677 201.629L114.808 202.042L108.856 202.538L108.195 200.306L120.347 199.562Z" fill="#D89705"/>
<path d="M119.933 195.099L120.264 197.165H119.933L118.776 197.248L113.899 197.661L108.443 198.157V198.075L107.865 195.843L113.403 195.512L115.8 195.347L119.933 195.099Z" fill="#D89705"/>
<path d="M117.619 188.568L118.032 190.718L112.411 191.048L106.542 191.379H106.129L105.55 189.23L117.619 188.568Z" fill="#EDAB01"/>
<path d="M118.611 190.635L118.941 192.702H118.693L112.907 193.198H112.659L107.203 193.694L106.542 191.379V191.296L118.611 190.635Z" fill="#D89705"/>
<path d="M120.512 199.563L108.691 200.224L108.03 198.157L108.443 198.075L113.899 197.661L118.776 197.248L119.933 197.165L120.512 199.563Z" fill="#EDAB01"/>
<path d="M119.272 195.099L115.8 195.347L113.403 195.512L107.865 195.843L107.451 195.925L106.79 193.693L112.659 193.197H112.907L118.693 192.701L119.272 195.099Z" fill="#EDAB01"/>
<path d="M117.536 186.254L117.867 188.568L111.915 188.899L106.046 189.23L105.467 186.998L117.536 186.254Z" fill="#D89705"/>
<path d="M117.123 181.79L117.536 183.857H117.123L110.923 184.353L105.715 184.849L105.054 182.534L110.427 182.203L113.982 181.955L117.123 181.79Z" fill="#D89705"/>
<path d="M114.891 175.26L115.222 177.409L109.435 177.74L103.814 178.07H103.401L102.822 175.921L114.891 175.26Z" fill="#EDAB01"/>
<path d="M115.883 177.326L116.131 179.393L115.883 179.476L109.931 179.889L105.385 180.302L104.393 180.385L103.814 178.07V177.988L115.883 177.326Z" fill="#D89705"/>
<path d="M117.702 186.254L105.881 186.915L105.302 184.849H105.715L110.923 184.353L117.123 183.857L117.702 186.254Z" fill="#EDAB01"/>
<path d="M116.462 181.79L113.982 181.955L110.427 182.203L105.054 182.534L104.723 182.617L104.062 180.385H104.393L105.385 180.302L109.931 179.889L115.883 179.393V179.475L116.462 181.79Z" fill="#EDAB01"/>
<path d="M140.517 198.488L140.847 200.472L135.061 200.968L129.026 201.381L128.365 199.149L140.517 198.488Z" fill="#D89705"/>
<path d="M140.103 193.942L140.434 196.008L140.103 196.091L138.946 196.174L133.738 196.587L128.613 197L128.035 194.768V194.686L133.077 194.438L135.97 194.19L140.103 193.942Z" fill="#D89705"/>
<path d="M137.789 187.494L138.202 189.56L131.589 189.974L126.712 190.222H126.299L125.72 188.155L137.789 187.494Z" fill="#EDAB01"/>
<path d="M138.781 189.478L139.111 191.627H138.863L132.829 192.123H132.333L127.373 192.536L126.712 190.222L138.781 189.478Z" fill="#D89705"/>
<path d="M140.682 198.405L128.861 199.067L128.2 197H128.613L133.738 196.587L138.946 196.173L140.103 196.091L140.682 198.405Z" fill="#EDAB01"/>
<path d="M139.442 194.024L135.97 194.19L133.077 194.437L128.035 194.768H127.621L126.96 192.536L132.333 192.123H132.829L138.863 191.627L139.442 194.024Z" fill="#EDAB01"/>
<path d="M160.686 197.331L161.017 199.397L154.982 199.811L149.196 200.307L148.617 197.992L160.686 197.331Z" fill="#D89705"/>
<path d="M160.273 192.867L160.604 194.934H160.273L159.116 195.016L153.743 195.43L148.783 195.843L148.204 193.611L153.164 193.28L156.14 193.115L160.273 192.867Z" fill="#D89705"/>
<path d="M160.852 197.331L149.031 197.992L148.452 195.926L148.783 195.843L153.743 195.43L159.116 195.016L160.273 194.934L160.852 197.331Z" fill="#EDAB01"/>
<path d="M159.612 192.867L156.14 193.115L153.164 193.28L148.204 193.611H147.791L147.13 191.462L152.585 191.048L159.033 190.47L159.612 192.867Z" fill="#EDAB01"/>
<path d="M180.856 196.174L181.187 198.24L174.987 198.736L169.366 199.149L168.787 196.835L180.856 196.174Z" fill="#D89705"/>
<path d="M91.9934 192.123L92.4067 194.355L86.9509 194.768L86.3723 192.454L85.959 192.536L85.3803 190.387H85.8763L85.2977 188.072H85.711L85.1323 185.923H85.5456L84.967 183.691H84.5537L83.8924 181.459H84.223L83.6444 179.145H83.2311L82.6524 177.078L83.3137 176.996L82.7351 174.764L83.2311 174.681L82.5698 172.614H82.9831L82.4045 170.3L81.9911 170.383L81.4125 168.151H81.7431L81.1645 165.836H80.6685L80.1725 163.687L86.7856 163.356L87.1989 165.423L87.6122 167.655L88.0255 169.969L88.3562 172.118L88.7695 174.433L89.1828 176.665L89.5961 178.732V178.814L90.0095 180.963L90.4228 183.278L90.7534 185.51L91.1667 187.742L91.58 190.056L91.9934 192.123Z" fill="#E6E7E8"/>
<path d="M93.9773 203.283L88.6042 203.696L88.0256 201.381H88.4389L87.8602 199.315L88.2736 199.232L87.6949 197H87.2816L86.6203 194.851L92.4067 194.355L92.82 196.67L93.1507 198.819L93.564 201.051L93.9773 203.283Z" fill="#E6E7E8"/>
<path d="M114.808 202.043L108.857 202.539L108.195 200.307L108.691 200.224L108.03 198.157L108.443 198.075L107.865 195.843L107.451 195.925L106.79 193.694L112.659 193.198L107.203 193.694L106.542 191.379H106.129L105.55 189.23H106.046L105.467 186.998L105.881 186.915L105.302 184.849H105.715L105.054 182.534L104.723 182.617L104.062 180.385H104.393L103.814 178.07H103.401L102.822 175.921L109.022 175.59L109.435 177.657V177.74L109.931 179.889L110.427 182.203L110.923 184.353L111.419 186.667L111.915 188.899L112.411 190.966V191.048L112.907 193.198L113.403 195.512L113.899 197.661L114.395 199.893L114.808 202.043Z" fill="#E6E7E8"/>
<path d="M131.589 189.974C131.837 190.635 132.085 191.379 132.333 192.123L127.373 192.536L126.794 190.222H126.381L125.803 188.072L131.01 187.824C131.176 188.486 131.341 189.147 131.589 189.974C131.589 189.974 131.589 189.891 131.589 189.974Z" fill="#E6E7E8"/>
<path d="M135.061 200.968L129.026 201.464L128.448 199.232H128.944L128.282 197.165H128.696L128.117 194.934H127.704L127.042 192.702L132.416 192.288C132.664 193.032 132.912 193.776 133.16 194.52C133.408 195.264 133.656 196.008 133.821 196.669C134.069 197.413 134.317 198.157 134.482 198.901C134.647 199.563 134.895 200.307 135.061 200.968Z" fill="#E6E7E8"/>
<path d="M154.983 199.811L149.196 200.307L148.618 197.992H149.031L148.452 195.925L148.783 195.843L148.204 193.611H147.791L147.13 191.462L152.585 191.048L153.164 193.28L153.743 195.429L154.404 197.661L154.983 199.811Z" fill="#E6E7E8"/>
<path d="M174.987 198.736L169.366 199.149L168.787 196.835L174.408 196.587L174.904 198.24L174.987 198.736Z" fill="#E6E7E8"/>
<path d="M81.2472 144.84L105.798 160.05L118.528 157.487L134.4 178.401L153.825 175.508L172.838 186.502L171.433 187.659C171.433 187.659 152.916 178.979 152.42 179.475C151.924 179.971 132.25 181.459 132.25 181.459L118.032 164.017L102.822 165.671L78.602 152.527L81.2472 144.84Z" fill="#DA232D"/>
<path d="M167.299 189.23L172.094 186.998L172.177 181.955L179.864 191.296L167.299 189.23Z" fill="#DA232D"/>
<path d="M173.003 148.229L132.581 149.965L133.408 153.767L172.838 150.047L173.003 148.229Z" fill="#C2B59B"/>
<path d="M173.913 154.18L142.335 156.826L143.658 160.876L173.747 156.164L173.913 154.18Z" fill="#C2B59B"/>
<path d="M174.409 160.546L155.561 163.356L156.636 166.001L174.243 162.778L174.409 160.546Z" fill="#C2B59B"/>
<path d="M248.888 367.286C280.8 367.286 306.669 362.401 306.669 356.374C306.669 350.348 280.8 345.463 248.888 345.463C216.976 345.463 191.106 350.348 191.106 356.374C191.106 362.401 216.976 367.286 248.888 367.286Z" fill="#E6E7E8"/>
<path d="M177.963 150.626C177.963 150.626 182.426 155.172 185.072 157.57C183.914 158.066 182.179 158.892 182.096 159.223C181.931 159.554 180.36 165.423 180.277 165.753C179.947 166.58 183.914 169.886 186.477 171.457C187.221 171.87 187.8 172.201 188.213 172.284L190.693 172.449L196.893 177.739C196.893 177.739 198.05 176.995 199.29 175.59C199.455 175.425 199.62 175.177 199.786 175.012C200.282 174.35 200.695 173.689 201.026 172.862C201.274 172.284 201.439 171.622 201.604 170.878C201.687 170.548 198.463 167.489 198.463 167.489C198.463 167.489 201.108 162.364 199.538 159.636C198.628 157.983 197.719 156.33 197.471 154.511C197.306 153.519 197.306 152.527 197.141 151.618C196.893 150.626 196.397 149.717 195.487 149.303C195.405 149.221 195.239 149.221 195.157 149.221C194.909 149.221 194.743 149.469 194.661 149.717V149.799C193.586 152.279 193.338 155.255 194.082 157.9C194.082 157.9 179.699 148.311 178.955 149.055C178.707 149.303 178.459 149.634 178.376 149.882C177.88 150.295 177.963 150.626 177.963 150.626Z" fill="#F28A6D"/>
<path d="M194.413 149.717C194.578 149.882 194.661 150.047 194.743 150.213C195.653 151.618 195.653 153.354 196.066 154.924C196.645 157.156 197.967 159.14 198.132 161.372C198.215 163.273 197.471 165.092 196.893 166.911C196.727 167.489 196.562 168.068 196.727 168.646C196.893 169.142 197.223 169.473 197.554 169.804C198.628 170.796 199.786 171.87 200.778 172.945C201.026 172.366 201.191 171.705 201.356 170.961C201.439 170.63 198.215 167.572 198.215 167.572C198.215 167.572 200.86 162.447 199.29 159.719C198.38 158.066 197.471 156.412 197.223 154.594C197.058 153.602 197.058 152.61 196.893 151.701C196.645 150.709 196.149 149.799 195.239 149.386C195.157 149.303 194.991 149.303 194.909 149.303C194.743 149.221 194.578 149.469 194.413 149.717Z" fill="#FFA07F"/>
<path d="M181.021 167.241C182.261 168.564 184.576 170.382 186.312 171.457C186.642 170.961 186.973 170.382 187.386 169.721C187.469 169.638 187.469 169.556 187.552 169.473C187.634 169.308 187.8 169.143 187.882 168.895C188.048 168.564 188.296 168.233 188.461 167.903C188.544 167.82 188.544 167.737 188.626 167.655C188.626 167.655 188.626 167.572 188.709 167.572C188.874 167.324 188.957 167.076 189.122 166.828C189.37 166.332 189.618 165.919 189.866 165.423C189.949 165.34 189.949 165.175 190.032 165.092C190.032 165.009 190.114 165.009 190.114 165.009C190.28 164.761 190.362 164.513 190.445 164.265C190.445 164.183 190.528 164.1 190.528 164.017C190.858 163.273 191.106 162.695 191.024 162.364C190.776 160.959 185.072 157.652 185.072 157.652C183.915 158.148 182.179 158.975 182.096 159.306C181.931 159.636 180.36 165.505 180.277 165.836C180.029 166.001 180.443 166.58 181.021 167.241Z" fill="#FFA07F"/>
<path d="M184.906 161.62C184.906 161.62 185.237 161.951 185.816 162.364C186.394 162.777 187.221 163.439 188.13 163.935C188.792 164.348 189.453 164.679 190.032 164.927C190.197 164.679 190.28 164.431 190.362 164.183C189.866 163.769 189.37 163.273 188.626 162.943C187.634 162.364 186.725 162.033 185.981 161.785C185.32 161.703 184.906 161.62 184.906 161.62Z" fill="#CF4A57"/>
<path d="M182.675 163.521C182.675 163.521 184.328 165.092 186.56 166.497C187.304 166.91 187.965 167.324 188.626 167.572C188.626 167.572 188.626 167.489 188.709 167.489C188.874 167.241 188.957 166.993 189.122 166.745C188.544 166.332 187.965 165.836 187.221 165.422C184.906 164.1 182.675 163.521 182.675 163.521Z" fill="#CF4A57"/>
<path d="M183.418 166.497C183.418 166.497 184.41 167.903 186.146 168.977C186.56 169.225 187.056 169.473 187.469 169.639C187.552 169.556 187.552 169.473 187.634 169.391C187.717 169.225 187.882 169.06 187.965 168.812C187.634 168.564 187.221 168.233 186.808 167.985C185.072 166.911 183.418 166.497 183.418 166.497Z" fill="#CF4A57"/>
<path d="M243.763 336.618C244.837 341.082 245.829 349.679 245.995 351.497V352.407V355.382L240.787 355.465L239.712 352.241L239.216 350.836L238.307 352.241L236.075 355.63L209.127 356.044L209.044 352.076C209.044 351.911 209.127 351.663 209.127 351.497C209.292 351.001 209.623 350.505 210.201 350.175C212.516 348.935 221.196 345.05 223.51 342.983C225.329 341.33 226.817 337.941 227.395 336.453L243.763 336.618Z" fill="#985551"/>
<path d="M229.048 342.652C229.048 342.735 229.131 342.735 229.131 342.818C229.296 343.148 229.462 343.644 229.048 343.892C228.8 343.975 228.552 343.975 228.304 343.892C227.478 343.727 226.734 343.396 225.99 342.983C225.246 342.57 224.419 342.074 223.841 341.247C223.345 340.42 224.006 339.676 224.915 339.842C226.486 340.09 228.222 341.247 229.048 342.652Z" fill="#763231"/>
<path d="M226.321 344.802C226.321 344.884 226.403 344.884 226.403 344.967C226.569 345.298 226.734 345.794 226.321 346.041C226.073 346.124 225.825 346.124 225.577 346.041C224.75 345.876 224.006 345.546 223.262 345.132C222.518 344.719 221.692 344.223 221.113 343.396C220.617 342.57 221.278 341.826 222.188 341.991C223.758 342.239 225.494 343.396 226.321 344.802Z" fill="#763231"/>
<path d="M222.931 346.207C222.931 346.289 223.014 346.289 223.014 346.372C223.179 346.703 223.345 347.199 222.931 347.447C222.683 347.529 222.435 347.529 222.187 347.447C221.361 347.281 220.617 346.951 219.873 346.537C219.129 346.124 218.302 345.628 217.724 344.802C217.228 343.975 217.889 343.231 218.798 343.396C220.369 343.727 222.105 344.802 222.931 346.207Z" fill="#763231"/>
<path d="M209.209 351.497L238.307 352.241L236.075 355.63L209.127 356.044L209.044 352.076C209.127 351.911 209.209 351.745 209.209 351.497Z" fill="#763231"/>
<path d="M245.994 352.407L246.077 355.465L240.787 355.548L239.712 352.241L245.994 352.407Z" fill="#763231"/>
<path d="M285.838 355.878C285.838 355.878 277.902 361.83 275.67 361.995C273.439 362.243 261.783 359.598 261.7 358.11C261.7 357.614 261.866 355.796 262.196 353.564C262.775 349.431 263.684 344.058 264.098 343.314C264.842 342.156 263.932 335.543 263.932 335.543C263.932 335.543 275.836 332.485 277.489 332.981C278.812 333.394 283.028 346.785 284.929 352.902C285.507 354.721 285.838 355.878 285.838 355.878Z" fill="#985551"/>
<path d="M285.838 355.878C285.838 355.878 277.902 361.83 275.67 361.996C273.439 362.244 261.783 359.598 261.7 358.11C261.7 357.614 261.866 355.796 262.196 353.564C265.999 354.969 274.183 357.697 276.828 356.622C278.646 355.961 282.036 354.308 284.929 352.903C285.507 354.721 285.838 355.878 285.838 355.878Z" fill="#763231"/>
<path d="M275.918 346.124C274.927 346.538 273.935 346.703 272.86 346.868C271.703 347.034 270.545 347.116 269.471 346.786C268.313 346.455 268.561 345.38 269.553 344.967C271.372 344.223 273.935 344.058 275.753 344.636C275.836 344.636 275.836 344.636 275.918 344.719C276.332 344.884 276.828 345.215 276.58 345.711C276.497 345.876 276.166 346.042 275.918 346.124Z" fill="#763231"/>
<path d="M269.636 348.439C271.455 347.695 274.017 347.53 275.836 348.108C275.918 348.108 275.918 348.108 276.001 348.191C276.414 348.356 276.91 348.687 276.662 349.183C276.497 349.431 276.249 349.513 275.918 349.679C274.926 350.092 273.934 350.257 272.86 350.423C271.703 350.588 270.545 350.671 269.471 350.34C268.479 349.927 268.644 348.852 269.636 348.439Z" fill="#763231"/>
<path d="M270.132 351.497C271.951 350.753 274.513 350.588 276.332 351.167C276.414 351.167 276.414 351.167 276.497 351.249C276.91 351.415 277.406 351.745 277.158 352.241C276.993 352.489 276.745 352.572 276.414 352.737C275.423 353.151 274.431 353.316 273.356 353.481C272.199 353.647 271.041 353.729 269.967 353.399C268.975 353.068 269.14 351.911 270.132 351.497Z" fill="#763231"/>
<path d="M228.47 144.095C229.875 143.103 235.331 141.285 235.331 141.285L234.587 179.971L220.948 195.016C220.948 195.016 217.063 198.074 212.681 195.925C208.3 193.776 195.074 178.649 195.074 178.649L203.506 168.316L215.409 175.507C215.575 175.59 227.065 145.087 228.47 144.095Z" fill="#73D3FF"/>
<path d="M279.804 335.957L276.167 336.287L262.941 337.527C261.039 328.682 259.469 308.182 259.138 306.28C258.725 303.801 257.981 287.351 257.815 284.375C257.815 284.292 257.815 284.209 257.815 284.127C257.815 283.961 257.815 283.879 257.815 283.879L250.128 235.273L244.176 280.324C244.176 280.324 244.341 281.73 244.589 283.713C244.589 283.879 244.672 284.127 244.672 284.292C244.672 284.623 244.755 284.953 244.755 285.284C244.837 285.697 244.837 286.193 244.92 286.689C245.416 290.822 245.995 295.617 245.995 296.609C245.995 297.105 246.904 323.722 245.995 337.444H225.412C225.412 311.158 224.089 283.383 223.924 280.49C223.841 278.919 225.164 256.435 226.321 237.835C226.569 233.702 226.817 229.734 227.065 226.263C227.065 225.932 227.065 225.684 227.147 225.353C227.147 225.271 227.147 225.271 227.147 225.188C227.147 225.023 227.147 224.857 227.147 224.609C227.23 223.783 227.23 223.039 227.313 222.295C227.478 219.98 227.561 217.996 227.726 216.426C227.891 214.194 227.974 212.954 227.974 212.954H228.222L277.159 215.268V216.426V222.295L277.076 239.737L276.911 280.407C276.911 280.407 278.564 293.716 279.143 297.105C279.143 297.188 279.143 297.353 279.225 297.518C279.556 302.065 279.887 326.781 279.804 335.957Z" fill="#005B84"/>
<path d="M226.404 237.918C234.505 236.761 239.63 232.297 242.854 227.668C246.656 222.212 247.731 216.674 247.731 216.674C250.707 221.22 254.096 224.857 257.485 227.833C264.511 233.868 271.455 236.678 274.266 237.67C275.092 238.001 275.588 238.084 275.588 238.084L276.993 239.902L277.159 215.351L228.222 213.037H227.974C227.974 213.037 227.644 218.079 227.148 225.436C227.148 225.684 227.148 226.015 227.065 226.345C226.9 229.817 226.652 233.785 226.404 237.918Z" fill="#003F5C"/>
<path d="M245.995 296.609C245.995 297.105 246.904 323.722 245.995 337.445H243.267C243.928 322.565 243.184 298.924 242.854 297.353C242.275 294.708 240.374 279.911 240.374 279.911L250.045 235.273L244.093 280.324C244.093 280.324 244.259 281.73 244.507 283.714C244.507 283.879 244.589 284.127 244.589 284.292C244.672 284.623 244.672 284.953 244.672 285.284C244.755 285.697 244.755 286.193 244.837 286.689C245.499 290.823 245.995 295.617 245.995 296.609Z" fill="#003F5C"/>
<path d="M279.804 335.957L276.167 336.287C276.415 323.392 276.663 300.081 276.828 298.675C277.159 296.526 273.769 277.348 273.769 277.348L274.348 237.67L274.513 226.676C268.562 227.337 262.858 227.668 257.567 227.833C254.178 224.94 250.706 221.22 247.813 216.674C247.813 216.674 246.739 222.212 242.936 227.668C236.406 227.337 231.115 226.841 227.23 226.263C227.23 225.932 227.23 225.684 227.313 225.353C227.313 225.271 227.313 225.271 227.313 225.188C227.313 225.023 227.313 224.857 227.313 224.609C227.561 220.972 227.974 216.591 228.305 212.954C228.718 208.655 229.049 205.349 229.049 205.349L277.241 215.268L277.076 239.819L276.911 280.49C276.911 280.49 278.564 293.798 279.143 297.188C279.143 297.27 279.143 297.436 279.225 297.601C279.556 302.065 279.886 326.781 279.804 335.957Z" fill="#003F5C"/>
<path d="M277.159 212.871L277.076 222.46H227.395L228.47 211.631L245.168 212.045L246.904 212.127L251.368 212.21L253.021 212.293L277.159 212.871Z" fill="#424242"/>
<path d="M251.368 212.21V222.46H246.904V212.127L251.368 212.21Z" fill="#FFB600"/>
<path d="M225.412 235.273C237.976 234.364 248.888 214.359 248.888 214.359C254.757 226.345 277.903 235.273 277.903 235.273L278.399 170.63L282.945 139.218L274.844 135.995L271.62 135.664L268.479 135.333L263.354 134.755L253.682 136.573L243.101 139.384L237.563 140.872L237.15 140.954L235.496 141.368C235.496 141.368 230.785 151.618 231.033 160.628C231.115 168.233 227.478 205.349 225.412 235.273Z" fill="#0077AD"/>
<path d="M242.936 139.301L238.968 140.376C238.968 140.376 236.571 152.693 237.067 155.255C237.563 157.735 239.547 158.975 239.547 158.975C239.547 158.975 237.563 163.274 237.976 164.348C238.39 165.423 248.144 173.193 248.144 173.193C248.144 173.193 264.677 165.34 265.172 163.439C265.668 161.538 264.429 157.652 264.429 157.652C264.429 157.652 270.876 156.413 271.455 154.759C272.034 153.106 274.679 135.995 274.679 135.995L271.455 135.664L250.872 146.576L242.936 139.301Z" fill="#005B84"/>
<path d="M242.936 139.301C242.936 139.301 243.597 152.362 245.251 161.455C246.16 166.332 247.317 170.052 248.888 170.052C250.128 170.052 252.36 167.407 255.005 163.687C261.949 153.685 271.455 135.664 271.455 135.664L268.314 135.334L263.188 134.755L253.517 136.573L242.936 139.301Z" fill="#E2E2E2"/>
<path d="M265.09 131.862C265.09 131.862 267.983 133.763 269.305 135.416C269.305 135.416 263.188 144.84 259.386 147.816L253.186 142.277L247.234 145.997C247.234 145.997 248.64 138.227 249.466 137.4C250.293 136.573 252.856 133.763 252.856 133.763L265.09 131.862Z" fill="white"/>
<path d="M245.333 161.455C246.243 166.332 247.4 170.052 248.971 170.052C250.211 170.052 252.442 167.407 255.088 163.687L253.352 148.973L256.328 145.005L253.104 142.194L248.64 145.005L249.88 148.559L245.333 161.455Z" fill="#424242"/>
<path d="M258.807 203.2H230.206C225.329 190.883 224.42 179.723 224.42 173.028C224.42 169.06 224.75 166.745 224.75 166.745L251.037 167.82C251.202 187.824 258.807 203.2 258.807 203.2Z" fill="#F7EADC"/>
<path d="M251.12 167.82C249.136 168.399 246.573 174.185 246.573 174.185L224.502 173.028L220.204 172.78C220.948 167.241 224.833 166.745 224.833 166.745L251.12 167.82Z" fill="white"/>
<path d="M253.186 173.937C252.856 173.358 252.442 172.945 252.029 172.614C249.218 170.548 244.837 167.407 243.845 168.481C242.853 169.556 250.872 175.508 250.872 175.508L250.128 178.153L246.573 176.003L240.456 175.673C240.456 175.673 239.877 176.747 239.299 178.07C239.216 178.153 239.216 178.318 239.133 178.401C239.133 178.401 239.133 178.483 239.051 178.483C238.968 178.649 238.885 178.814 238.885 178.979C238.638 179.641 238.307 180.302 238.142 180.963C238.142 181.046 238.059 181.129 238.059 181.211C237.976 181.625 237.894 181.955 237.811 182.286C237.728 182.617 237.811 182.865 237.894 183.113L242.523 184.352C242.523 184.352 245.168 190.387 245.912 190.966C246.243 191.214 254.261 192.949 254.261 192.949L258.725 184.27L256.41 183.195C256.245 183.03 254.013 175.177 253.186 173.937Z" fill="#FFA07F"/>
<path d="M239.216 177.987C239.133 178.153 239.051 178.318 238.968 178.483H239.051C239.795 178.566 240.704 178.731 241.696 178.897C242.688 179.062 243.597 179.31 244.259 179.558C244.424 179.641 244.589 179.641 244.672 179.723C244.837 179.806 244.92 179.806 245.003 179.889C245.168 179.971 245.333 180.054 245.333 180.054C245.333 180.054 245.251 179.971 245.085 179.806C245.003 179.723 244.92 179.641 244.837 179.475C244.755 179.393 244.589 179.227 244.424 179.145C243.845 178.649 242.853 178.153 241.696 177.905C240.869 177.822 239.877 177.905 239.216 177.987Z" fill="#CF4A57"/>
<path d="M238.059 180.963C238.059 181.046 237.976 181.129 237.976 181.211C238.142 181.211 238.39 181.294 238.72 181.294C239.464 181.377 240.374 181.542 241.366 181.707C242.357 181.873 243.267 182.121 243.928 182.369C244.093 182.451 244.259 182.534 244.341 182.534C244.507 182.617 244.589 182.617 244.672 182.699C244.837 182.782 245.003 182.865 245.003 182.865C245.003 182.865 244.92 182.782 244.755 182.617C244.672 182.534 244.589 182.451 244.507 182.286C244.424 182.203 244.259 182.038 244.093 181.955C243.515 181.459 242.523 180.963 241.366 180.715C240.208 180.55 239.216 180.633 238.555 180.798C238.472 180.881 238.224 180.881 238.059 180.963Z" fill="#CF4A57"/>
<path d="M282.945 139.219C282.945 139.219 291.624 144.674 292.451 147.815C293.195 150.957 298.485 193.197 296.915 196.917C295.427 200.72 287.409 208.408 285.673 209.151C283.937 209.895 251.946 194.603 251.946 194.603L256.41 182.782L277.241 187.08L275.505 170.134L282.945 139.219Z" fill="#73D3FF"/>
<path d="M262.196 181.707L256.493 197.165L251.037 195.181L256.741 180.137L262.196 181.707Z" fill="white"/>
<path d="M204.829 168.316L201.026 165.671L190.941 176.995L195.488 179.971L204.829 168.316Z" fill="white"/>
<path d="M264.842 133.763L252.938 140.624L252.69 135.085C252.69 135.085 252.856 134.176 252.938 133.763C253.104 132.853 253.186 132.275 253.186 132.109C253.352 130.952 252.938 125.992 252.938 125.992L265.586 121.942C265.586 121.942 265.503 124.422 265.338 127.15C265.172 130.622 264.842 133.763 264.842 133.763Z" fill="#FFA07F"/>
<path d="M265.338 127.315C261.701 129.299 253.765 133.763 253.021 133.845H252.938C253.104 132.936 253.186 132.358 253.186 132.192C253.352 131.035 252.938 126.075 252.938 126.075L265.586 122.025C265.586 122.107 265.42 124.587 265.338 127.315Z" fill="#FF7D6F"/>
<path d="M268.231 122.19C268.231 122.19 267.9 123.017 266.578 124.256C266.33 124.504 265.999 124.752 265.586 125C264.18 125.992 250.872 131.531 248.805 131.2C246.739 130.87 244.92 123.843 244.837 123.099C244.259 118.553 242.605 102.351 242.605 102.351C247.813 87.1408 265.668 97.4737 267.652 98.9616C269.719 100.532 268.231 122.19 268.231 122.19Z" fill="#FFA07F"/>
<path d="M266.578 124.174C266.33 124.422 265.999 124.67 265.586 124.918C264.18 125.91 250.872 131.448 248.805 131.118C246.738 130.787 244.92 123.761 244.837 123.017C246.077 126.075 247.482 130.374 248.888 130.291C251.12 130.208 264.924 125.001 266.578 124.174Z" fill="#FFBF90"/>
<path d="M266.247 122.686C268.975 122.521 270.959 120.867 272.033 119.545C272.281 119.214 272.447 118.966 272.612 118.718C273.439 117.313 273.687 112.436 271.703 111.278C270.298 110.452 269.306 111.609 268.81 112.353C268.562 112.684 268.479 112.932 268.479 112.932L266.247 122.686Z" fill="#FFBF90"/>
<path d="M266.247 122.686C268.975 122.521 270.959 120.867 272.033 119.545C272.116 119.38 272.199 119.297 272.281 119.132C273.108 117.726 273.356 112.849 271.372 111.692C270.215 111.031 269.306 111.692 268.81 112.353C268.562 112.684 268.479 112.932 268.479 112.932L266.247 122.686Z" fill="#FFA07F"/>
<path d="M272.364 115.164C272.447 115.577 272.364 115.99 272.281 116.321C271.703 117.974 270.05 119.214 268.479 120.371C268.975 119.545 269.14 118.718 269.058 117.809C269.058 117.478 268.975 117.23 268.975 116.9C268.892 115.66 271.785 112.849 272.364 115.164Z" fill="#FF7D6F"/>
<path d="M267.652 120.785C267.652 120.785 267.652 120.785 267.735 120.702C267.818 120.702 267.9 120.619 267.983 120.537C268.231 120.371 268.479 120.206 268.727 119.875C268.975 119.545 269.223 119.131 269.388 118.553C269.471 118.057 269.471 117.396 269.223 116.817C269.223 116.734 269.14 116.652 269.14 116.569V116.486V116.404L269.223 116.321C269.223 116.238 269.306 116.238 269.306 116.156C269.471 115.908 269.636 115.66 269.802 115.494C269.967 115.246 270.132 115.081 270.298 114.916C270.463 114.75 270.628 114.585 270.794 114.42C270.959 114.337 271.124 114.254 271.289 114.172C271.455 114.172 271.62 114.172 271.703 114.254C271.785 114.337 271.868 114.42 271.868 114.42C271.868 114.502 271.868 114.502 271.868 114.502C271.868 114.502 271.868 114.502 271.868 114.42C271.868 114.337 271.785 114.254 271.703 114.172C271.62 114.089 271.455 114.006 271.207 114.006C270.959 114.006 270.711 114.089 270.546 114.172C270.298 114.254 270.132 114.42 269.967 114.585C269.802 114.75 269.554 114.916 269.388 115.164C269.223 115.412 268.975 115.577 268.81 115.825C268.727 115.908 268.727 115.99 268.644 115.99L268.562 116.073L268.479 116.238L268.396 116.321C268.396 116.321 268.396 116.404 268.479 116.404L268.562 116.569C268.562 116.652 268.644 116.652 268.644 116.734C268.892 117.23 268.892 117.809 268.892 118.305C268.81 118.801 268.644 119.214 268.479 119.545C268.314 119.875 268.066 120.123 267.9 120.289C267.818 120.619 267.735 120.702 267.652 120.785Z" fill="#CF4A57"/>
<path d="M270.628 110.865L267.156 114.42L264.181 102.02C261.453 99.0442 256.906 97.9696 253.104 99.3749C251.45 100.036 249.88 101.028 248.309 101.855C246.739 102.681 244.92 103.343 243.184 103.012C240.704 102.599 238.72 100.201 238.39 97.6389C238.142 95.8203 238.555 93.9191 239.382 92.1832C239.712 91.5219 240.126 90.8606 240.622 90.1993C241.944 88.4633 244.093 86.9754 246.243 86.8927C248.392 86.8101 250.541 87.802 251.781 89.5379C255.253 87.6367 260.295 88.7113 262.362 92.1832C264.511 90.7779 267.487 90.7779 269.554 92.1832C271.62 93.6711 272.777 96.4816 272.281 99.0442L270.959 109.212L270.628 110.865Z" fill="#252727"/>
<path d="M240.043 102.433C239.051 103.095 238.472 104.252 238.39 105.492C238.307 106.649 238.72 107.889 239.381 108.881C238.968 107.145 239.712 105.161 241.117 104.169C240.704 105.492 241.117 106.98 242.109 107.889C241.696 106.815 241.861 105.575 242.44 104.583C243.019 103.591 244.093 102.929 245.251 102.847C244.92 102.847 244.093 102.268 243.763 102.185C243.432 102.103 243.019 101.937 242.605 101.855C241.779 101.772 240.869 101.937 240.043 102.433Z" fill="#252727"/>
<path d="M270.876 109.212C269.636 108.385 268.727 107.145 268.066 105.823C266.991 103.508 266.991 100.78 267.652 98.3003C265.007 99.2923 261.618 97.887 260.543 95.2418C258.807 95.9858 256.989 96.8124 255.087 96.8951C253.186 96.9777 251.12 96.3164 250.128 94.6632C248.309 97.1431 244.341 97.8044 241.779 96.0684C240.539 95.1591 239.712 93.8365 239.381 92.3486C239.712 91.6873 240.125 91.026 240.621 90.3647C241.448 89.2901 242.605 88.2981 243.928 87.6368C244.672 87.2235 245.498 87.0582 246.242 86.9755C248.392 86.8928 250.541 87.8848 251.781 89.6207C255.253 87.7195 260.295 88.7941 262.362 92.2659C264.511 90.8607 267.487 90.8607 269.553 92.2659C271.62 93.7539 272.777 96.5644 272.281 99.127L272.116 100.615L270.876 109.212Z" fill="#424242"/>
<path d="M272.033 100.532C271.537 99.6228 271.041 98.7136 270.463 97.8869C269.553 96.4816 268.479 94.9937 266.908 94.2497C265.42 93.5058 263.271 93.6711 262.279 94.9937C261.039 93.2578 259.138 92.1005 257.154 91.6872C255.087 91.2739 252.856 91.6872 251.12 92.7618C249.549 90.1166 246.821 88.298 243.928 87.554C244.672 87.1407 245.499 86.9754 246.242 86.8927C248.392 86.8101 250.541 87.802 251.781 89.5379C255.253 87.6367 260.295 88.7113 262.362 92.1832C264.511 90.7779 267.487 90.7779 269.553 92.1832C271.62 93.6711 272.777 96.4816 272.281 99.0442L272.033 100.532Z" fill="#595959"/>
<path d="M258.89 123.182C257.402 122.521 255.749 122.273 254.096 122.273C253.352 122.273 252.608 122.355 252.029 122.769C251.202 123.347 251.616 124.091 251.698 124.835C250.954 123.843 250.293 122.603 251.864 121.942C253.434 121.198 255.666 121.942 257.154 122.438C257.733 122.603 258.146 122.686 258.89 123.182Z" fill="#FC5B68"/>
<path d="M255.749 103.756C255.749 103.756 254.261 106.153 256.575 107.228C258.89 108.303 262.692 107.145 262.692 107.145C262.692 107.145 256.575 106.236 255.749 103.756Z" fill="#252727"/>
<path d="M246.821 118.966C246.573 119.545 245.416 119.545 244.093 119.049C242.853 118.553 241.944 117.726 242.192 117.148C242.44 116.569 243.597 116.569 244.92 117.065C246.243 117.561 247.069 118.387 246.821 118.966Z" fill="#FF7D6F"/>
<path d="M265.255 115.494C265.503 116.321 264.098 117.395 262.114 117.891C260.213 118.387 258.477 118.057 258.229 117.23C257.981 116.403 259.386 115.329 261.37 114.833C263.271 114.337 265.007 114.668 265.255 115.494Z" fill="#FF7D6F"/>
<path d="M261.618 111.196C261.287 112.353 259.965 113.18 258.559 113.262C257.237 113.262 255.914 112.601 255.005 111.609C257.071 112.436 259.634 112.188 261.618 111.196Z" fill="#252727"/>
<path d="M244.754 112.188C244.837 113.097 245.581 113.676 246.325 113.593C247.069 113.593 247.813 113.014 248.309 112.27C247.234 113.014 245.746 112.932 244.754 112.188Z" fill="#252727"/>
<path d="M248.061 106.567C248.061 106.567 247.235 107.393 246.491 107.807C245.747 108.22 244.341 108.468 244.341 108.468C244.341 108.468 247.483 109.295 248.226 108.303C248.97 107.311 248.061 106.567 248.061 106.567Z" fill="#252727"/>
<path d="M250.376 118.718C250.376 118.718 253.021 117.478 253.434 116.982C253.434 116.982 254.344 118.222 253.682 118.883C253.682 118.883 251.616 119.297 250.376 118.718Z" fill="#FF7D6F"/>
<path d="M253.682 118.883C252.525 119.379 251.12 119.545 249.962 119.131C249.797 116.321 250.128 113.51 250.954 110.948C250.376 113.345 250.458 116.156 251.037 118.553C251.781 118.801 252.855 118.966 253.682 118.883Z" fill="#FC5B68"/>
<path d="M132.674 130.665L133.117 140.808L129.252 141.543L126.645 136.343L126.851 141.881L123.502 142.206L122.747 131.628L126.451 131.088L129.545 136.197L129.173 131.125L132.674 130.665ZM142.041 134.459C142.083 134.891 142.095 135.326 142.077 135.763C141.234 135.9 140.4 136.071 139.573 136.276C138.746 136.476 137.919 136.677 137.093 136.877C137.256 137.222 137.485 137.488 137.778 137.675C138.077 137.861 138.417 137.936 138.799 137.899C138.997 137.879 139.21 137.821 139.436 137.724C139.667 137.627 139.893 137.512 140.116 137.38C140.338 137.244 140.549 137.1 140.75 136.951C140.951 136.801 141.123 136.667 141.267 136.548L141.237 139.961C141.058 140.128 140.86 140.275 140.642 140.402C140.428 140.527 140.203 140.634 139.967 140.722C139.73 140.81 139.489 140.881 139.244 140.935C138.998 140.989 138.757 141.027 138.519 141.051C138.028 141.098 137.572 141.075 137.152 140.98C136.732 140.886 136.345 140.735 135.989 140.53C135.638 140.318 135.323 140.061 135.043 139.757C134.763 139.454 134.523 139.117 134.322 138.746C134.12 138.375 133.957 137.977 133.83 137.554C133.704 137.13 133.62 136.698 133.577 136.256C133.532 135.795 133.53 135.33 133.569 134.86C133.609 134.39 133.692 133.934 133.82 133.491C133.952 133.048 134.13 132.632 134.352 132.245C134.58 131.853 134.854 131.503 135.175 131.197C135.496 130.89 135.867 130.639 136.288 130.443C136.715 130.246 137.194 130.122 137.725 130.07C138.166 130.028 138.574 130.051 138.948 130.14C139.327 130.223 139.668 130.36 139.972 130.551C140.281 130.737 140.553 130.968 140.791 131.246C141.033 131.522 141.238 131.833 141.407 132.177C141.58 132.516 141.718 132.881 141.821 133.271C141.928 133.657 142.002 134.053 142.041 134.459ZM139.027 134.361C139.014 134.222 138.985 134.082 138.941 133.941C138.897 133.795 138.834 133.666 138.753 133.554C138.677 133.441 138.581 133.353 138.465 133.289C138.348 133.22 138.208 133.194 138.044 133.209C137.846 133.229 137.675 133.3 137.531 133.424C137.393 133.543 137.277 133.689 137.183 133.864C137.09 134.033 137.017 134.215 136.966 134.411C136.915 134.606 136.88 134.785 136.86 134.947L139.043 134.525L139.027 134.361ZM149.979 129.168L150.21 132.33L148.001 132.635L148.403 139.567L145.278 140.035L144.326 133.156L142.12 133.49L141.869 129.969L149.979 129.168ZM131.166 152.372L131.173 155.706L124.955 156.805C124.817 155.07 124.682 153.346 124.551 151.631C124.425 149.915 124.305 148.189 124.192 146.453L128.062 146.078C128.053 147.175 128.049 148.272 128.05 149.369C128.051 150.46 128.082 151.559 128.144 152.665C128.378 152.652 128.61 152.635 128.838 152.612C129.066 152.59 129.297 152.568 129.53 152.545C129.808 152.518 130.08 152.49 130.348 152.459C130.615 152.428 130.888 152.399 131.166 152.372ZM140.572 149.988C140.616 150.439 140.606 150.881 140.543 151.313C140.479 151.739 140.365 152.146 140.203 152.532C140.045 152.918 139.839 153.279 139.586 153.614C139.338 153.943 139.048 154.234 138.717 154.487C138.391 154.739 138.028 154.947 137.628 155.111C137.228 155.27 136.797 155.371 136.336 155.416C135.889 155.459 135.457 155.444 135.039 155.369C134.626 155.294 134.234 155.172 133.862 155.002C133.489 154.828 133.145 154.611 132.83 154.351C132.519 154.086 132.244 153.787 132.007 153.455C131.774 153.117 131.58 152.75 131.427 152.354C131.278 151.958 131.182 151.539 131.14 151.097C131.098 150.666 131.109 150.239 131.173 149.817C131.237 149.39 131.348 148.984 131.506 148.598C131.669 148.212 131.874 147.851 132.122 147.517C132.37 147.182 132.654 146.887 132.975 146.63C133.301 146.373 133.659 146.163 134.048 146C134.438 145.837 134.856 145.734 135.303 145.691C136.022 145.621 136.688 145.669 137.3 145.835C137.917 146.001 138.454 146.272 138.911 146.648C139.373 147.019 139.746 147.489 140.032 148.057C140.322 148.62 140.502 149.263 140.572 149.988ZM137.287 150.501C137.266 150.288 137.214 150.085 137.13 149.893C137.051 149.696 136.944 149.526 136.81 149.383C136.676 149.236 136.514 149.124 136.327 149.047C136.144 148.965 135.938 148.935 135.71 148.957C135.476 148.979 135.272 149.042 135.097 149.144C134.921 149.246 134.774 149.378 134.654 149.54C134.539 149.696 134.457 149.877 134.406 150.082C134.356 150.282 134.341 150.492 134.362 150.71C134.382 150.918 134.432 151.124 134.512 151.326C134.592 151.529 134.699 151.709 134.835 151.866C134.97 152.023 135.13 152.145 135.314 152.233C135.502 152.319 135.713 152.352 135.946 152.329C136.179 152.306 136.384 152.242 136.558 152.134C136.738 152.022 136.885 151.883 136.999 151.716C137.112 151.545 137.194 151.354 137.244 151.144C137.293 150.934 137.308 150.72 137.287 150.501ZM148.904 151.088C148.97 151.768 148.908 152.367 148.718 152.886C148.532 153.4 148.249 153.838 147.868 154.2C147.492 154.557 147.036 154.839 146.501 155.047C145.969 155.248 145.389 155.38 144.759 155.441C144.516 155.464 144.245 155.458 143.946 155.422C143.652 155.385 143.351 155.334 143.044 155.269C142.737 155.199 142.439 155.122 142.151 155.04C141.867 154.953 141.613 154.869 141.391 154.791L141.435 151.842C141.881 152.054 142.366 152.202 142.89 152.287C143.419 152.366 143.931 152.381 144.427 152.333C144.522 152.324 144.635 152.31 144.769 152.293C144.902 152.27 145.026 152.235 145.142 152.189C145.262 152.137 145.361 152.07 145.438 151.987C145.515 151.905 145.547 151.794 145.533 151.655C145.524 151.561 145.487 151.484 145.421 151.426C145.355 151.362 145.273 151.315 145.174 151.284C145.076 151.249 144.966 151.227 144.845 151.218C144.724 151.205 144.605 151.199 144.49 151.2C144.375 151.201 144.268 151.207 144.169 151.216C144.07 151.226 143.99 151.234 143.931 151.24C143.504 151.281 143.108 151.252 142.743 151.152C142.383 151.052 142.064 150.892 141.788 150.674C141.516 150.45 141.293 150.171 141.121 149.837C140.948 149.498 140.84 149.115 140.799 148.689C140.742 148.103 140.808 147.569 140.997 147.085C141.189 146.595 141.466 146.17 141.827 145.81C142.192 145.444 142.622 145.149 143.116 144.926C143.61 144.703 144.13 144.565 144.676 144.512C144.919 144.488 145.17 144.474 145.43 144.469C145.69 144.459 145.948 144.464 146.205 144.484C146.468 144.504 146.724 144.536 146.974 144.582C147.223 144.628 147.462 144.693 147.691 144.776L147.701 147.824C147.353 147.743 146.989 147.683 146.609 147.645C146.235 147.601 145.871 147.596 145.519 147.63C145.454 147.636 145.37 147.647 145.267 147.662C145.167 147.672 145.061 147.69 144.949 147.716C144.841 147.736 144.731 147.764 144.619 147.8C144.507 147.836 144.409 147.881 144.324 147.934C144.238 147.982 144.172 148.044 144.124 148.118C144.076 148.193 144.059 148.277 144.073 148.371C144.089 148.48 144.137 148.56 144.217 148.613C144.302 148.665 144.406 148.7 144.528 148.718C144.654 148.731 144.789 148.73 144.933 148.716C145.082 148.702 145.228 148.685 145.371 148.666C145.514 148.642 145.648 148.622 145.771 148.605C145.894 148.583 145.996 148.571 146.075 148.568C146.475 148.554 146.84 148.604 147.172 148.717C147.503 148.83 147.789 148.995 148.031 149.212C148.277 149.429 148.473 149.697 148.62 150.019C148.771 150.335 148.865 150.691 148.904 151.088ZM156.941 150.309C157.007 150.989 156.945 151.588 156.755 152.107C156.569 152.621 156.286 153.059 155.905 153.421C155.529 153.778 155.073 154.06 154.538 154.268C154.006 154.469 153.426 154.601 152.796 154.662C152.553 154.685 152.282 154.679 151.983 154.643C151.689 154.606 151.388 154.555 151.081 154.49C150.774 154.42 150.476 154.343 150.188 154.261C149.904 154.173 149.65 154.09 149.428 154.012L149.472 151.063C149.918 151.275 150.404 151.423 150.927 151.508C151.456 151.587 151.968 151.602 152.464 151.554C152.559 151.545 152.672 151.531 152.806 151.513C152.939 151.49 153.063 151.456 153.179 151.41C153.299 151.358 153.398 151.291 153.475 151.208C153.552 151.126 153.584 151.015 153.57 150.876C153.561 150.782 153.524 150.705 153.458 150.646C153.392 150.583 153.31 150.536 153.211 150.505C153.113 150.47 153.003 150.448 152.882 150.439C152.761 150.426 152.642 150.42 152.527 150.421C152.412 150.422 152.305 150.428 152.206 150.437C152.107 150.447 152.027 150.455 151.968 150.46C151.541 150.502 151.145 150.473 150.78 150.373C150.42 150.272 150.101 150.113 149.825 149.894C149.553 149.67 149.33 149.392 149.158 149.058C148.985 148.719 148.877 148.336 148.836 147.91C148.779 147.324 148.845 146.789 149.034 146.305C149.226 145.816 149.503 145.391 149.864 145.031C150.229 144.665 150.659 144.37 151.153 144.147C151.647 143.924 152.167 143.786 152.713 143.733C152.956 143.709 153.207 143.695 153.467 143.69C153.727 143.68 153.985 143.685 154.242 143.705C154.505 143.724 154.761 143.757 155.011 143.803C155.26 143.849 155.5 143.913 155.728 143.996L155.738 147.045C155.39 146.964 155.026 146.904 154.646 146.866C154.272 146.822 153.908 146.817 153.556 146.851C153.491 146.857 153.407 146.868 153.304 146.883C153.204 146.893 153.098 146.91 152.986 146.936C152.878 146.957 152.768 146.985 152.656 147.021C152.544 147.057 152.446 147.101 152.361 147.155C152.275 147.203 152.209 147.265 152.161 147.339C152.113 147.414 152.096 147.498 152.11 147.592C152.126 147.701 152.174 147.781 152.254 147.834C152.339 147.885 152.443 147.921 152.565 147.939C152.691 147.952 152.826 147.951 152.97 147.937C153.119 147.923 153.265 147.906 153.408 147.887C153.551 147.863 153.685 147.843 153.808 147.826C153.931 147.804 154.033 147.791 154.112 147.789C154.512 147.775 154.877 147.825 155.209 147.938C155.54 148.051 155.826 148.216 156.068 148.433C156.314 148.649 156.51 148.918 156.657 149.24C156.808 149.556 156.902 149.912 156.941 150.309Z" fill="#005B84"/>
</svg>
