<svg width="105" height="22" viewBox="0 0 105 22" fill="none" xmlns="http://www.w3.org/2000/svg">
<g clip-path="url(#clip0_117_1747)">
<path d="M82.4443 10.5791C82.3847 10.9969 82.2653 11.4146 82.0863 11.7726C81.9073 12.1307 81.6686 12.4291 81.3702 12.6678C81.0718 12.9065 80.7138 13.0855 80.3557 13.2645C79.9977 13.3839 79.5799 13.5032 79.1025 13.5032C78.6251 13.5032 78.1477 13.4435 77.73 13.2645C77.3123 13.0855 76.9542 12.8468 76.6559 12.4887C76.3575 12.1307 76.1188 11.713 75.9398 11.2356C75.7607 10.7582 75.7011 10.1614 75.7011 9.50497C75.7011 8.84855 75.7607 8.2518 75.9398 7.7744C76.1188 7.297 76.3575 6.87928 76.6559 6.5809C76.9542 6.28253 77.3123 6.04382 77.73 5.92447C78.1477 5.74545 78.6251 5.68578 79.1622 5.68578C79.6396 5.68578 80.0573 5.74545 80.4751 5.8648C80.8928 5.98415 81.1912 6.16318 81.4895 6.46155C81.7879 6.70025 82.0266 6.99863 82.2056 7.35668C82.3847 7.71473 82.504 8.07278 82.504 8.55018H80.5347C80.4751 8.19213 80.3557 7.89375 80.0573 7.65505C79.8186 7.41635 79.4606 7.35668 79.1025 7.35668C78.8638 7.35668 78.6848 7.41635 78.5058 7.47603C78.3268 7.5357 78.1477 7.65505 78.0284 7.83408C77.909 8.0131 77.7897 8.19213 77.73 8.4905C77.6703 8.78888 77.6107 9.08725 77.6107 9.50497C77.6107 10.3404 77.73 10.9372 78.0284 11.2952C78.3268 11.713 78.6848 11.892 79.0429 11.892C79.4009 11.892 79.759 11.7726 79.9977 11.5936C80.296 11.3549 80.4154 11.0565 80.4751 10.6985H82.4443V10.5791ZM72.3593 4.96968V3.17943H74.3285V4.96968H72.3593ZM72.3593 13.2645V5.8648H74.3285V13.2645H72.3593ZM69.0175 13.2645V8.78888C69.0175 8.31148 68.8981 7.95342 68.7191 7.71472C68.4804 7.41635 68.2417 7.297 67.8836 7.297C67.5256 7.297 67.2272 7.47603 66.9885 7.7744C66.7498 8.07278 66.6305 8.43082 66.6305 8.90823V13.3242H64.6612V8.84855C64.6612 8.55018 64.6612 8.31148 64.6015 8.13245C64.5418 7.95343 64.4822 7.7744 64.4225 7.65505C64.3031 7.5357 64.1838 7.47602 64.0644 7.41635C63.8854 7.35667 63.7064 7.35668 63.5274 7.35668C62.7516 7.35668 62.3339 7.83408 62.3339 8.78888V13.2645H60.3646V5.8648H62.2145V6.93895C62.4532 6.46155 62.7516 6.1035 63.1096 5.92447C63.4677 5.74545 63.8854 5.6261 64.3628 5.6261C64.6015 5.6261 64.8402 5.6261 65.0192 5.68578C65.1983 5.74545 65.3773 5.80513 65.5563 5.8648C65.7353 5.98415 65.8547 6.1035 65.974 6.22285C66.0934 6.40187 66.2724 6.5809 66.3918 6.75993C66.5708 6.3422 66.8692 6.04383 67.1675 5.8648C67.5256 5.68578 67.8836 5.56643 68.361 5.56643C68.7191 5.56643 69.0771 5.6261 69.3755 5.74545C69.6739 5.8648 69.9723 6.04383 70.1513 6.28253C70.3303 6.52123 70.569 6.75993 70.6884 7.0583C70.8077 7.35668 70.8674 7.65505 70.8674 8.0131V13.1452H69.0175V13.2645ZM57.0825 13.2645C57.0228 13.0855 56.9631 12.8468 56.9631 12.6081C56.7244 12.8468 56.426 13.0855 56.068 13.2048C55.7099 13.3839 55.2325 13.4435 54.7551 13.4435C53.9197 13.4435 53.2633 13.2645 52.9052 12.9065C52.4875 12.5484 52.3085 12.071 52.3085 11.4146C52.3085 10.8775 52.3681 10.4598 52.5472 10.1614C52.7262 9.86303 52.9649 9.62433 53.2633 9.4453C53.5616 9.26628 53.9197 9.14693 54.3374 9.02758C54.7551 8.9679 55.2325 8.84855 55.7099 8.78888C56.1873 8.7292 56.5454 8.60985 56.7244 8.4905C56.9034 8.37115 56.9631 8.19213 56.9631 7.95343C56.9631 7.71473 56.8438 7.5357 56.6051 7.41635C56.3664 7.297 56.068 7.23733 55.7099 7.23733C55.2325 7.23733 54.9342 7.35668 54.7551 7.5357C54.5761 7.71473 54.4568 8.0131 54.3971 8.31147H52.6068C52.6068 7.95342 52.6665 7.59538 52.7859 7.23733C52.9052 6.93895 53.0842 6.64058 53.3229 6.40188C53.5616 6.16318 53.9197 5.98415 54.3374 5.8648C54.7551 5.74545 55.2325 5.68578 55.8293 5.68578C56.426 5.68578 56.9034 5.74545 57.3212 5.8648C57.7389 5.98415 58.0373 6.16318 58.276 6.40188C58.5147 6.64058 58.6937 6.93895 58.813 7.297C58.9324 7.65505 58.9921 8.07278 58.9921 8.55018V13.2048H57.0825V13.2645ZM56.9631 9.62433C56.8438 9.74368 56.7244 9.80335 56.5454 9.86303C56.3664 9.9227 56.068 9.98238 55.7099 10.0421C55.1729 10.1614 54.7551 10.2808 54.5761 10.4598C54.3374 10.6388 54.2777 10.8775 54.2777 11.1759C54.2777 11.713 54.5761 12.0113 55.2325 12.0113C55.4712 12.0113 55.7099 11.9517 55.9486 11.892C56.1873 11.8323 56.3664 11.713 56.4857 11.5339C56.6647 11.4146 56.7841 11.2355 56.8438 10.9969C56.9631 10.8178 56.9631 10.5791 56.9631 10.4001V9.62433ZM49.0263 13.2645V8.78888C49.0263 8.19213 48.907 7.83408 48.728 7.65505C48.5489 7.47603 48.1909 7.35668 47.7732 7.35668C46.7587 7.297 46.2813 7.89375 46.2813 9.02758V13.2645H44.312V5.8648H46.1619V6.93895C46.4006 6.52123 46.699 6.22285 47.0571 5.98415C47.4151 5.74545 47.9522 5.68578 48.5489 5.68578C48.907 5.68578 49.2054 5.74545 49.5037 5.8648C49.8021 5.98415 50.0408 6.1035 50.2795 6.3422C50.5182 6.5809 50.6376 6.8196 50.8166 7.11797C50.9359 7.41635 50.9956 7.7744 50.9956 8.19213V13.3242H49.0263V13.2645ZM40.9105 12.25C40.7912 12.6081 40.4928 12.8468 40.1348 13.0258C39.7767 13.2048 39.359 13.3242 38.8816 13.3242C38.4639 13.3242 38.1058 13.2645 37.8074 13.1452C37.4494 13.0258 37.2107 12.8468 36.972 12.6081C36.7333 12.3694 36.5543 12.071 36.4349 11.7726C36.3156 11.4743 36.2559 11.0565 36.2559 10.6388V5.8648H38.2252V10.4001C38.2252 11.2952 38.6429 11.7726 39.4783 11.7726C39.9557 11.7726 40.3138 11.6533 40.5525 11.3549C40.8509 11.1162 40.9702 10.7582 40.9702 10.3404V5.80513H42.9395V13.3839C42.9395 13.9209 42.8798 14.3983 42.7008 14.7564C42.5218 15.1741 42.2831 15.5322 41.9847 15.7709C41.6863 16.0692 41.3283 16.2483 40.9105 16.4273C40.4928 16.6063 40.0751 16.666 39.5977 16.666C38.5235 16.666 37.6881 16.3676 37.151 15.8305C36.6139 15.2935 36.3156 14.5177 36.3156 13.5629H38.1058C38.1058 13.9806 38.2252 14.3387 38.4639 14.5774C38.7026 14.8161 39.1203 14.9354 39.5977 14.9354C39.7767 14.9354 39.9557 14.8757 40.1348 14.8161C40.3138 14.7564 40.4331 14.637 40.5525 14.5177C40.6718 14.3983 40.7912 14.2193 40.8509 14.0403C40.9105 13.8613 40.9702 13.6226 40.9702 13.3839V12.25H40.9105ZM32.9141 13.2645V12.3694C32.4367 13.0855 31.7803 13.4435 30.8255 13.4435C30.3481 13.4435 29.9303 13.3242 29.5126 13.1452C29.0949 12.9661 28.7965 12.7274 28.4981 12.3694C28.1998 12.0113 28.0207 11.5936 27.8417 11.1162C27.6627 10.6388 27.603 10.0421 27.603 9.4453C27.603 8.90823 27.6627 8.37115 27.782 7.89375C27.9014 7.41635 28.1401 6.99863 28.3788 6.70025C28.6175 6.3422 28.9755 6.1035 29.3336 5.92447C29.6916 5.74545 30.1094 5.6261 30.6464 5.6261C31.5416 5.6261 32.3173 5.98415 32.8544 6.75993V3.11975H34.764V13.2645H32.9141ZM31.3029 11.8323C31.7803 11.8323 32.1383 11.6533 32.4964 11.2356C32.7947 10.8178 32.9738 10.3404 32.9738 9.684C32.9738 8.07278 32.4367 7.297 31.3625 7.297C30.2287 7.297 29.6916 8.07278 29.6916 9.56465C29.6916 10.2211 29.8707 10.7582 30.169 11.1759C30.4077 11.6533 30.8255 11.8323 31.3029 11.8323Z" fill="white"/>
<path d="M97.0644 16.7256V5.86476H98.974V6.75989C99.4514 6.04379 100.108 5.68574 101.063 5.68574C101.54 5.68574 101.958 5.80509 102.376 5.98412C102.793 6.16314 103.092 6.40184 103.39 6.75989C103.689 7.11794 103.868 7.53566 104.047 8.01306C104.226 8.49046 104.285 9.08721 104.285 9.68396C104.285 10.221 104.226 10.7581 104.106 11.2355C103.987 11.7129 103.748 12.1306 103.51 12.429C103.271 12.7871 102.913 13.0258 102.555 13.2048C102.197 13.3838 101.779 13.5032 101.242 13.5032C100.347 13.5032 99.5708 13.1451 99.0337 12.3693V16.845H97.0644V16.7256ZM100.585 11.7726C101.719 11.7726 102.256 10.9968 102.256 9.50494C102.256 8.84851 102.077 8.31144 101.779 7.89371C101.481 7.47599 101.063 7.29696 100.585 7.29696C100.108 7.29696 99.7498 7.47599 99.3918 7.89371C99.0934 8.31144 98.9144 8.78884 98.9144 9.44526C98.9144 10.9371 99.5111 11.7726 100.585 11.7726ZM91.6937 13.2645V5.86476H93.5436V6.70021C93.7226 6.46151 93.9017 6.28249 94.021 6.10346C94.2 5.98411 94.3791 5.86476 94.5581 5.80509C94.7371 5.74541 94.9161 5.68574 95.0952 5.68574C95.2742 5.68574 95.4532 5.62606 95.6919 5.62606H95.9306V7.65501C95.7516 7.59534 95.5726 7.59534 95.3935 7.59534C94.2 7.59534 93.6033 8.19209 93.6033 9.38559V13.2645H91.6937ZM85.3681 10.042C85.4278 10.5791 85.5472 11.0565 85.8455 11.3549C86.1439 11.7129 86.502 11.8323 87.039 11.8323C87.3374 11.8323 87.6358 11.7726 87.8745 11.5936C88.1132 11.4742 88.2922 11.2355 88.3519 10.9968H90.3808C90.1421 11.7726 89.7244 12.3693 89.1873 12.7274C88.5906 13.1451 87.9342 13.3241 87.1584 13.3241C84.7117 13.3241 83.4585 11.9516 83.4585 9.26624C83.4585 8.66949 83.5182 8.19209 83.6972 7.71469C83.8763 7.23729 84.115 6.87924 84.4133 6.52119C84.7117 6.16314 85.0698 5.92444 85.5472 5.74541C85.9649 5.56639 86.502 5.50671 87.039 5.50671C88.1729 5.50671 89.068 5.86477 89.6051 6.58087C90.2018 7.29697 90.5002 8.43079 90.5002 9.86299H85.3681V10.042ZM88.4712 8.84851C88.4712 8.55014 88.4116 8.31144 88.3519 8.13241C88.2922 7.95339 88.1729 7.77436 87.9938 7.59534C87.8745 7.47599 87.6955 7.35664 87.5164 7.29696C87.3374 7.23729 87.1584 7.17762 86.9794 7.17762C86.5616 7.17762 86.2633 7.29696 85.9649 7.59534C85.6665 7.89371 85.4875 8.25176 85.4875 8.78884H88.4712V8.84851Z" fill="white"/>
<path d="M86.9198 16.6063L85.786 16.666V17.2031H86.5021V17.5611H85.786V18.0982H86.9198V18.4562H85.3683V16.2483H86.9198V16.6063ZM83.757 16.2483L84.1748 16.1886V18.4562H83.8167H83.757L82.8619 17.024V18.4562H82.4442V16.2483H82.8022H82.8619L83.757 17.6805V16.2483ZM80.8926 18.5756V16.2483H81.3104V18.5159H80.8926V18.5756ZM79.9975 16.6063L78.8637 16.666V17.2031H79.5798V17.5611H78.8637V18.5159H78.446V16.2483H79.9975V16.6063ZM77.3718 16.6063L76.238 16.666V17.2031H76.9541V17.5611H76.238V18.0982H77.3718V18.4562H75.8203V16.2483H77.3718V16.6063ZM73.4929 18.1579H73.9107C74.03 18.1579 74.0897 18.0982 74.1494 18.0385C74.209 17.9788 74.2687 17.8595 74.2687 17.7401V16.9644C74.2687 16.845 74.209 16.7257 74.1494 16.666C74.0897 16.6063 73.9703 16.5466 73.9107 16.5466H73.4929V18.1579ZM73.0752 18.5756L73.0155 16.2483H73.851C74.03 16.2483 74.1494 16.3079 74.2687 16.3676C74.3881 16.4273 74.5074 16.487 74.5671 16.6063C74.6268 16.7257 74.6864 16.845 74.6864 16.9644V17.9192C74.6864 18.0385 74.6268 18.1579 74.5671 18.2772C74.5074 18.3966 74.3881 18.4562 74.2687 18.5159C74.1494 18.5756 73.9703 18.6353 73.851 18.6353H73.0752V18.5756ZM72.0607 16.6063C72.0011 16.6063 72.0011 16.6063 72.0607 16.6063L70.9269 16.666V17.2031H71.643V17.5611H70.9269V18.0982H72.0607V18.4562H70.5092V16.2483H72.0607V16.6063ZM68.1819 16.6063V17.2031H68.5996C68.7189 17.2031 68.7786 17.2031 68.8383 17.1434C68.898 17.0837 68.9576 17.024 68.9576 16.9047C68.9576 16.7853 68.898 16.7257 68.8383 16.666C68.7786 16.6063 68.7189 16.6063 68.5996 16.6063H68.1819ZM68.9576 18.5756L68.4802 17.6208H68.1819V18.5159H67.7641V16.2483H68.7189C68.8383 16.2483 69.0173 16.2483 69.077 16.3079C69.1963 16.3676 69.256 16.4273 69.3157 16.5466C69.3754 16.666 69.435 16.7853 69.435 16.9047C69.435 17.0837 69.3754 17.2031 69.3157 17.3224C69.256 17.4418 69.1367 17.5014 69.0173 17.5611L69.4947 18.5159C69.4947 18.5159 69.4947 18.5159 69.435 18.5159H68.9576V18.5756ZM64.8997 18.5756L64.8401 17.6805L64.1836 16.2483C64.1836 16.2483 64.1836 16.2483 64.2433 16.2483H64.661C64.661 16.2483 64.7207 16.2483 64.7207 16.3079L65.1384 17.2031L65.5562 16.3079C65.5562 16.3079 65.5562 16.2483 65.6158 16.2483H66.0336C66.0336 16.2483 66.0336 16.2483 66.0932 16.2483C66.0932 16.2483 66.0932 16.2483 66.0932 16.3079L65.3771 17.6805V18.5159H64.8997V18.5756ZM62.5127 18.6353C62.3337 18.6353 62.1547 18.5756 62.0353 18.5159C61.916 18.4562 61.7966 18.3369 61.737 18.2175C61.6773 18.0982 61.6176 17.9788 61.6176 17.7998V17.024C61.6176 16.845 61.6773 16.7257 61.737 16.6063C61.7966 16.487 61.916 16.3676 62.0353 16.3079C62.1547 16.2483 62.3337 16.1886 62.5127 16.1886C62.6918 16.1886 62.8111 16.2483 62.9901 16.3079C63.1095 16.3676 63.2288 16.487 63.2885 16.6063C63.3482 16.7257 63.4079 16.845 63.4079 17.024C63.4079 17.024 63.4079 17.0837 63.3482 17.0837H62.9305C62.9305 17.0837 62.8708 17.0837 62.8708 17.024C62.8708 16.9047 62.8111 16.7853 62.7514 16.7257C62.6918 16.666 62.5724 16.6063 62.4531 16.6063C62.3337 16.6063 62.2144 16.666 62.1547 16.7257C62.095 16.7853 62.0353 16.9047 62.0353 17.024V17.8595C62.0353 17.9788 62.095 18.0982 62.1547 18.1579C62.2144 18.2175 62.3337 18.2772 62.4531 18.2772C62.5724 18.2772 62.6918 18.2175 62.7514 18.1579C62.8111 18.0982 62.8708 17.9788 62.8708 17.8595C62.8708 17.8595 62.8708 17.7998 62.9305 17.7998H63.3482C63.3482 17.9788 63.2885 18.0982 63.2288 18.2175C63.1692 18.3369 63.0498 18.4562 62.9305 18.5159C62.8708 18.5756 62.6918 18.6353 62.5127 18.6353ZM59.4693 17.7998C59.4693 17.8595 59.4693 17.8595 59.4693 17.7998H60.0661L59.7677 16.7853L59.4693 17.7998ZM60.3644 18.5756C60.3048 18.5756 60.3048 18.5756 60.3644 18.5756L60.2451 18.2175H59.4096L59.2903 18.5756C59.2903 18.5756 59.2903 18.6353 59.2306 18.6353H58.8129C58.8129 18.6353 58.8129 18.6353 58.7532 18.6353C58.7532 18.6353 58.7532 18.6353 58.7532 18.5756L59.4693 16.3079C59.4693 16.3079 59.4693 16.2483 59.529 16.2483H60.0661C60.0661 16.2483 60.1257 16.2483 60.1257 16.3079L60.8418 18.5756C60.8418 18.5756 60.8418 18.6353 60.7822 18.6353H60.3644V18.5756ZM56.6049 16.6063C56.5452 16.666 56.5452 16.6063 56.6049 16.6063V17.2031H57.0226C57.142 17.2031 57.2017 17.2031 57.2613 17.1434C57.321 17.0837 57.3807 17.024 57.3807 16.9047C57.3807 16.7853 57.321 16.7257 57.2613 16.666C57.2017 16.6063 57.142 16.6063 57.0226 16.6063H56.6049ZM57.3807 18.5756L56.9033 17.6208H56.6049V18.5159H56.1872V16.2483H57.142C57.2613 16.2483 57.4404 16.2483 57.5 16.3079C57.6194 16.3676 57.6791 16.4273 57.7387 16.5466C57.7984 16.666 57.8581 16.7853 57.8581 16.9047C57.8581 17.0837 57.7984 17.2031 57.7387 17.3224C57.6791 17.4418 57.5597 17.5014 57.4404 17.5611L57.9178 18.5159C57.9178 18.5159 57.9178 18.5159 57.8581 18.5159H57.3807V18.5756ZM54.1582 18.6353C53.9792 18.6353 53.8599 18.5756 53.6808 18.5159C53.5615 18.4562 53.4421 18.3369 53.3825 18.2175C53.3228 18.0982 53.2631 17.9788 53.2631 17.7998V16.2483H53.6808V17.7998C53.6808 17.9192 53.7405 18.0385 53.8002 18.0982C53.8599 18.1579 53.9792 18.2175 54.0986 18.2175C54.2179 18.2175 54.3373 18.1579 54.3969 18.0982C54.4566 18.0385 54.5163 17.9192 54.5163 17.7998V16.2483H54.934V17.7998C54.934 17.9788 54.8743 18.0982 54.8147 18.2175C54.755 18.3369 54.6356 18.4562 54.5163 18.5159C54.5163 18.5756 54.3373 18.6353 54.1582 18.6353ZM51.4729 18.6353C51.2938 18.6353 51.1148 18.5756 50.9955 18.5159C50.8761 18.4562 50.7568 18.3369 50.6971 18.2175C50.6374 18.0982 50.5777 17.9788 50.5777 17.7998V17.024C50.5777 16.845 50.6374 16.7257 50.6971 16.6063C50.7568 16.487 50.8761 16.3676 50.9955 16.3079C51.1148 16.2483 51.2938 16.1886 51.4729 16.1886C51.6519 16.1886 51.7712 16.2483 51.9503 16.3079C52.0696 16.3676 52.189 16.487 52.2486 16.6063C52.3083 16.7257 52.368 16.845 52.368 17.024C52.368 17.024 52.368 17.0837 52.3083 17.0837H51.8906C51.8906 17.0837 51.8309 17.0837 51.8309 17.024C51.8309 16.9047 51.7712 16.7853 51.7116 16.7257C51.6519 16.666 51.5325 16.6063 51.4132 16.6063C51.2938 16.6063 51.1745 16.666 51.1148 16.7257C51.0551 16.7853 50.9955 16.9047 50.9955 17.024V17.8595C50.9955 17.9788 51.0551 18.0982 51.1148 18.1579C51.1745 18.2175 51.2938 18.2772 51.4132 18.2772C51.5325 18.2772 51.6519 18.2175 51.7116 18.1579C51.7712 18.0982 51.8309 17.9788 51.8309 17.8595C51.8309 17.8595 51.8309 17.7998 51.8906 17.7998H52.3083C52.3083 17.9788 52.2486 18.0982 52.189 18.2175C52.1293 18.3369 52.0099 18.4562 51.8906 18.5159C51.7712 18.5756 51.6519 18.6353 51.4729 18.6353ZM48.7875 18.6353C48.6085 18.6353 48.4294 18.5756 48.3101 18.5159C48.1907 18.4562 48.0714 18.3369 48.0117 18.2175C47.952 18.0982 47.8924 17.9788 47.8924 17.7998V17.024C47.8924 16.845 47.952 16.7257 48.0117 16.6063C48.0714 16.487 48.1907 16.3676 48.3101 16.3079C48.4294 16.2483 48.6085 16.1886 48.7875 16.1886C48.9665 16.1886 49.0859 16.2483 49.2649 16.3079C49.3842 16.3676 49.5036 16.487 49.5633 16.6063C49.6229 16.7257 49.6826 16.845 49.6826 17.024C49.6826 17.024 49.6826 17.0837 49.6229 17.0837H49.2052C49.2052 17.0837 49.1455 17.0837 49.1455 17.024C49.1455 16.9047 49.0859 16.7853 49.0262 16.7257C48.9665 16.666 48.8472 16.6063 48.7278 16.6063C48.6085 16.6063 48.4891 16.666 48.4294 16.7257C48.3698 16.7853 48.3101 16.9047 48.3101 17.024V17.8595C48.3101 17.9788 48.3698 18.0982 48.4294 18.1579C48.4891 18.2175 48.6085 18.2772 48.7278 18.2772C48.8472 18.2772 48.9665 18.2175 49.0262 18.1579C49.0859 18.0982 49.1455 17.9788 49.1455 17.8595C49.1455 17.8595 49.1455 17.7998 49.2052 17.7998H49.6229C49.6229 17.9788 49.5633 18.0982 49.5036 18.2175C49.4439 18.3369 49.3246 18.4562 49.2052 18.5159C49.0859 18.5756 48.9665 18.6353 48.7875 18.6353ZM45.7441 17.7998C45.7441 17.8595 45.7441 17.8595 45.7441 17.7998H46.3408L46.0424 16.7853L45.7441 17.7998ZM46.5795 18.5756L46.4602 18.2175H45.6247L45.5054 18.5756C45.5054 18.5756 45.5054 18.6353 45.4457 18.6353H45.028C45.028 18.6353 45.028 18.6353 44.9683 18.6353C44.9683 18.6353 44.9683 18.6353 44.9683 18.5756L45.6844 16.3079C45.6844 16.3079 45.6844 16.2483 45.7441 16.2483H46.2811C46.2811 16.2483 46.3408 16.2483 46.3408 16.3079L47.0569 18.5756C47.0569 18.5756 47.0569 18.6353 46.9972 18.6353H46.5795V18.5756Z" fill="white"/>
<path d="M28.9756 14.458H35.4205" stroke="white" stroke-width="1.1912" stroke-miterlimit="2.6131"/>
<path d="M44.0732 14.458H95.8115" stroke="white" stroke-width="1.1809" stroke-miterlimit="2.6131"/>
<path fill-rule="evenodd" clip-rule="evenodd" d="M8.56669 6.75991H2.71854V2.28429H10.715C15.7873 2.58266 19.8452 5.44706 19.8452 10.8178C19.8452 15.5918 16.1454 18.9933 11.5504 19.4707H11.3714V21.619H11.5504C17.5179 21.619 22.1726 16.7853 22.1726 10.8178C22.1726 4.90999 17.7566 0.135986 10.715 0.135986H0.331543V15.0547L8.56669 6.75991Z" fill="white"/>
<path fill-rule="evenodd" clip-rule="evenodd" d="M9.04395 9.02754L11.3713 6.75989V21.619H9.04395V9.02754Z" fill="white"/>
<path fill-rule="evenodd" clip-rule="evenodd" d="M4.6875 13.4435L6.95515 11.1162V21.619H4.6875V13.4435Z" fill="white"/>
<path fill-rule="evenodd" clip-rule="evenodd" d="M0.271973 17.6805L2.53962 15.3531V21.619H0.271973V17.6805Z" fill="white"/>
</g>
<defs>
<clipPath id="clip0_117_1747">
<rect width="105" height="22" fill="white"/>
</clipPath>
</defs>
</svg>
