<svg width="446" height="394" viewBox="0 0 446 394" fill="none" xmlns="http://www.w3.org/2000/svg">
<path d="M223.079 393.482C346.048 393.482 445.734 387.673 445.734 380.507C445.734 373.34 346.048 367.531 223.079 367.531C100.11 367.531 0.423828 373.34 0.423828 380.507C0.423828 387.673 100.11 393.482 223.079 393.482Z" fill="#F5F5F5"/>
<path d="M390.73 328.374H204.246C196.438 328.374 190.467 321.943 191.041 314.135L213.892 14.6588C214.466 6.85039 221.356 0.419922 229.279 0.419922H415.763C423.571 0.419922 429.543 6.85039 428.968 14.6588L406.117 314.135C405.543 321.943 398.539 328.374 390.73 328.374Z" fill="#005B84"/>
<path d="M387.974 328.374H201.49C193.682 328.374 187.711 321.943 188.285 314.135L211.136 14.6588C211.71 6.85039 218.6 0.419922 226.523 0.419922H413.007C420.815 0.419922 426.787 6.85039 426.212 14.6588L403.361 314.135C402.787 321.943 395.783 328.374 387.974 328.374Z" fill="#0D97D6"/>
<path d="M201.834 323.666C196.552 323.666 192.648 319.417 192.993 314.135L215.499 18.6778C215.844 13.3957 220.552 9.14697 225.719 9.14697H412.203C417.485 9.14697 421.389 13.3957 421.045 18.6778L398.538 314.135C398.193 319.417 393.485 323.666 388.318 323.666H201.834Z" fill="#0077AD"/>
<path d="M252.934 53.2416C253.623 44.6294 247.078 37.6248 238.466 37.6248H373.965C382.577 37.6248 389.007 44.6294 388.433 53.2416H252.934Z" fill="#F0F0F0"/>
<path d="M238.58 37.6248C229.968 37.6248 222.389 44.6294 221.815 53.2416L207.921 235.247C207.232 243.859 199.768 250.864 191.155 250.864H326.655C335.267 250.864 342.846 243.859 343.42 235.247L357.314 53.2416C358.003 44.6294 365.467 37.6248 374.079 37.6248H238.58Z" fill="white"/>
<path d="M312.071 235.132C311.382 243.744 317.928 250.749 326.54 250.749H191.041C182.429 250.749 175.998 243.744 176.572 235.132H312.071Z" fill="#DAD9D9"/>
<path d="M232.839 231.572C233.298 224.912 231.231 219.515 224.571 219.515H328.952C335.612 219.515 340.549 225.601 337.219 231.572H232.839Z" fill="#E0E0E0"/>
<path d="M312.072 235.132C312.761 226.52 320.225 219.515 328.837 219.515H193.338C184.725 219.515 177.147 226.52 176.572 235.132H312.072Z" fill="#DAD9D9"/>
<path d="M376.147 280.26H220.667C218.37 280.26 216.763 278.423 216.878 276.126C216.992 273.83 219.059 271.992 221.241 271.992H376.836C379.132 271.992 380.74 273.83 380.625 276.126C380.395 278.423 378.443 280.26 376.147 280.26Z" fill="white"/>
<path d="M297.603 300.011H219.06C216.763 300.011 215.156 298.174 215.27 295.877C215.385 293.58 217.452 291.743 219.634 291.743H298.178C300.474 291.743 302.082 293.58 301.967 295.877C301.852 298.174 299.9 300.011 297.603 300.011Z" fill="white"/>
<path d="M351.918 300.011H320.11C317.813 300.011 316.206 298.174 316.32 295.877C316.435 293.58 318.502 291.743 320.684 291.743H352.492C354.788 291.743 356.396 293.58 356.281 295.877C356.166 298.174 354.214 300.011 351.918 300.011Z" fill="white"/>
<path d="M383.726 222.041L375.573 223.305C375.228 222.271 374.884 221.582 374.654 221.238C374.31 220.893 373.85 220.434 373.161 220.089L372.702 226.29C376.951 227.438 379.821 228.702 381.199 229.965C383.037 231.687 383.84 233.869 383.611 236.625C383.496 238.232 383.037 239.61 382.233 240.988C381.429 242.252 380.51 243.4 379.362 244.318C378.214 245.237 377.065 245.811 375.802 246.271C374.539 246.615 373.046 246.845 371.209 246.96L370.865 250.979H367.764L368.109 246.96C366.042 246.73 364.319 246.385 363.056 245.926C361.793 245.467 360.645 244.778 359.841 243.859C358.922 242.941 358.233 242.022 357.889 240.988C357.43 239.955 357.2 238.807 356.97 237.314L365.697 236.28C365.812 237.658 366.157 238.692 366.501 239.381C366.846 240.07 367.535 240.529 368.568 241.103L369.142 233.524C366.271 232.721 364.319 232.032 363.171 231.458C362.023 230.883 360.989 229.965 360.185 228.587C359.382 227.324 359.037 225.716 359.267 223.879C359.497 221.352 360.53 219.171 362.482 217.448C364.434 215.726 367.19 214.807 370.635 214.578L370.75 212.396H373.85L373.735 214.578C376.951 214.807 379.362 215.496 380.97 216.874C382.462 217.908 383.381 219.745 383.726 222.041ZM370.061 219.86C369.142 220.204 368.453 220.549 368.109 221.008C367.764 221.467 367.535 221.927 367.42 222.616C367.42 223.305 367.535 223.764 367.879 224.223C368.224 224.683 368.798 225.142 369.716 225.372L370.061 219.86ZM371.554 241.103C372.817 240.874 373.735 240.414 374.31 239.725C374.884 239.151 375.228 238.347 375.343 237.658C375.343 236.969 375.228 236.395 374.769 235.821C374.31 235.247 373.391 234.673 372.128 234.213L371.554 241.103Z" fill="white"/>
<path d="M230.772 88.2649H234.676L233.758 100.781H229.853L230.772 88.2649Z" fill="#0077AD"/>
<path d="M237.432 88.2649H240.992L245.126 95.1547L245.7 88.2649H249.374L248.456 100.781H244.781L240.647 93.8916L240.073 100.781H236.399L237.432 88.2649Z" fill="#0077AD"/>
<path d="M250.753 88.2649H254.772L256.839 97.2216L260.283 88.2649H264.188L258.561 100.781H254.427L250.753 88.2649Z" fill="#0077AD"/>
<path d="M263.958 94.4656C264.073 92.3987 264.762 90.7911 266.025 89.7576C267.288 88.6093 268.896 88.0352 270.848 88.0352C272.915 88.0352 274.523 88.6093 275.556 89.7576C276.59 90.9059 277.049 92.3987 276.934 94.4656C276.819 95.9584 276.475 97.1067 275.901 98.0253C275.327 98.944 274.523 99.633 273.604 100.207C272.685 100.781 271.422 101.011 270.044 101.011C268.666 101.011 267.518 100.781 266.599 100.322C265.681 99.8626 264.992 99.1737 264.533 98.1402C264.073 97.1067 263.844 95.9584 263.958 94.4656ZM267.748 94.4656C267.633 95.7288 267.863 96.6474 268.207 97.2215C268.666 97.7957 269.241 98.0253 270.044 98.0253C270.848 98.0253 271.537 97.7957 271.996 97.2215C272.456 96.6474 272.8 95.7288 272.915 94.3508C273.03 93.2025 272.8 92.2839 272.456 91.8245C271.996 91.2504 271.422 91.0207 270.619 91.0207C269.815 91.0207 269.241 91.2504 268.666 91.8245C268.207 92.2839 267.863 93.2025 267.748 94.4656Z" fill="#0077AD"/>
<path d="M279.575 88.2649H283.479L282.56 100.781H278.656L279.575 88.2649Z" fill="#0077AD"/>
<path d="M293.929 95.614L297.259 96.6475C296.914 97.5661 296.57 98.3699 295.996 99.0589C295.422 99.7479 294.847 100.207 294.044 100.552C293.24 100.896 292.321 101.011 291.288 101.011C289.91 101.011 288.876 100.781 287.958 100.437C287.154 100.092 286.465 99.4034 285.891 98.3699C285.317 97.3365 285.087 96.0733 285.202 94.5805C285.317 92.5136 286.006 90.906 287.154 89.8725C288.302 88.7242 289.91 88.2649 291.977 88.2649C293.584 88.2649 294.733 88.6094 295.651 89.1835C296.455 89.8725 297.144 90.7912 297.374 92.0543L293.929 92.8581C293.814 92.5136 293.699 92.1691 293.584 92.0543C293.355 91.7098 293.125 91.4801 292.895 91.3653C292.551 91.2505 292.206 91.1356 291.862 91.1356C290.943 91.1356 290.254 91.4801 289.795 92.1691C289.45 92.7433 289.221 93.5471 289.106 94.5805C288.991 95.9585 289.106 96.8771 289.565 97.4513C289.91 97.9106 290.484 98.2551 291.288 98.2551C291.977 98.2551 292.551 98.0254 293.01 97.6809C293.355 96.992 293.699 96.4178 293.929 95.614Z" fill="#0077AD"/>
<path d="M299.67 88.2649H310.005L309.775 90.906H303.344L303.23 92.8581H309.201L308.971 95.3843H303L302.77 97.7958H309.43L309.201 100.667H298.636L299.67 88.2649Z" fill="#0077AD"/>
<path d="M340.664 116.857H228.59L228.82 113.642H340.894L340.664 116.857Z" fill="#0D97D6"/>
<path d="M340.664 116.857H228.59L227.901 126.273H339.861L340.664 116.857Z" fill="#F0F0F0"/>
<path d="M339.172 135.804H227.213L226.409 145.335H338.483L339.172 135.804Z" fill="#F0F0F0"/>
<path d="M337.679 154.866H225.72L225.031 164.397H336.99L337.679 154.866Z" fill="#F0F0F0"/>
<path d="M336.301 173.813H224.227L223.538 183.344H335.497L336.301 173.813Z" fill="#F0F0F0"/>
<path d="M334.579 195.975H222.619L222.849 192.875H334.808L334.579 195.975Z" fill="#0D97D6"/>
<path d="M321.717 58.8684H345.027L343.994 72.7628H320.684L321.717 58.8684Z" fill="#F0F0F0"/>
<path d="M93.5508 147.172L97.6847 148.895C99.1775 149.469 100.555 150.503 101.589 151.766L103.541 154.177C104.804 155.785 104.689 158.081 103.426 159.574L101.359 161.871C99.7516 163.593 97.1106 163.823 95.3881 162.215L93.436 160.493C93.436 160.493 87.4648 156.244 85.7424 150.732L86.8907 149.584C88.6131 147.747 91.1394 146.828 93.5508 147.172Z" fill="#FFB573"/>
<path d="M104.919 106.867L103.541 107.786L102.048 108.819C101.015 109.508 100.096 110.312 99.0626 111.001C97.1105 112.494 95.1584 114.102 93.4359 115.824C89.8762 119.154 86.7758 122.829 84.594 126.618C84.3643 127.077 84.0199 127.537 83.7902 128.111L83.5605 128.455C83.5605 128.34 83.6754 128.111 83.6754 127.996C83.6754 127.652 83.6754 127.537 83.6754 127.422C83.5605 127.077 83.5605 127.996 83.7902 128.8C84.2495 130.637 85.3978 132.934 86.5461 135.115C88.9575 139.594 91.8283 144.302 94.699 148.895L94.8139 149.01C95.9622 150.962 95.388 153.373 93.4359 154.522C91.9431 155.44 90.1058 155.211 88.8427 154.292C86.4313 152.455 84.3643 150.617 82.2974 148.551C80.2305 146.484 78.2784 144.417 76.3263 142.005C74.489 139.594 72.6517 137.182 71.0441 133.852C70.6996 133.049 70.2403 132.13 70.0106 130.982C69.6661 129.948 69.4365 128.685 69.4365 127.077C69.4365 126.274 69.4365 125.47 69.6661 124.436C69.781 123.977 69.8958 123.403 70.1254 122.943L70.3551 122.369C70.6996 121.566 70.9293 120.762 71.2737 120.073C73.9148 113.987 77.9339 108.819 82.1826 104.341C84.3643 102.159 86.6609 100.092 89.0724 98.1402C90.3355 97.2216 91.4838 96.303 92.7469 95.3843C93.4359 94.925 94.01 94.4657 94.699 94.1212L95.7325 93.5471L96.8808 92.8581C100.67 90.6763 105.608 91.9394 107.904 95.8437C110.086 99.5182 108.938 104.226 105.378 106.523L104.919 106.867Z" fill="#FFB573"/>
<path d="M105.034 88.7242C98.3735 88.7242 91.0244 91.5949 81.6084 103.308C81.6084 110.312 96.3066 119.499 96.3066 119.499C96.3066 119.499 120.421 88.6094 105.034 88.7242Z" fill="#5E9A3D"/>
<path d="M55.198 364.66C55.0831 364.66 54.9683 364.66 54.8535 364.545C53.4755 364.086 52.0976 360.526 52.0976 358.574C52.0976 358.459 52.2124 358.345 52.3272 358.23C52.4421 358.23 52.5569 358.23 52.6717 358.23C52.7865 358.345 56.2314 361.215 56.4611 363.053C56.4611 363.512 56.3463 363.856 56.1166 364.086C55.8869 364.545 55.5425 364.66 55.198 364.66ZM52.7865 359.378C53.131 361.215 54.1645 363.742 55.0831 363.971C55.198 363.971 55.4276 364.086 55.5425 363.742C55.6573 363.627 55.7721 363.397 55.6573 363.167C55.6573 362.134 53.9348 360.412 52.7865 359.378Z" fill="#263238"/>
<path d="M57.3797 360.526C55.7721 360.526 53.4755 359.723 52.2124 358.919C52.0976 358.804 52.0976 358.689 52.0976 358.574C52.0976 358.459 52.2124 358.345 52.3272 358.345C52.5569 358.345 56.8056 357.196 58.528 358.115C58.8725 358.345 59.1022 358.574 59.217 359.034C59.3318 359.493 59.217 359.952 58.7577 360.182C58.4132 360.412 57.9539 360.526 57.3797 360.526ZM53.2459 358.804C54.9683 359.608 57.4946 360.182 58.2984 359.723C58.4132 359.608 58.528 359.493 58.4132 359.263C58.4132 359.034 58.2984 358.919 58.0687 358.804C57.1501 358.115 54.7387 358.459 53.2459 358.804Z" fill="#263238"/>
<path d="M40.1552 357.885C42.1073 355.474 45.3225 352.374 48.7674 345.713C48.7674 345.713 59.4466 348.354 57.3797 351.455C53.5903 357.082 51.753 368.45 56.5759 374.651C59.3318 378.095 54.9682 378.784 51.9827 377.292C47.3895 374.88 47.5043 374.076 45.0929 370.057C43.0259 366.727 42.2221 365.349 39.3514 363.971C37.0548 362.593 38.2031 360.297 40.1552 357.885Z" fill="#407BFF"/>
<path d="M130.526 157.852C130.526 157.852 115.024 233.18 103.771 265.332C91.9433 299.092 59.102 351.225 57.8389 353.522C53.1308 352.258 48.997 350.651 46.2411 347.895C46.2411 347.895 61.6283 291.399 76.671 254.653C82.4125 178.062 94.9289 157.852 94.9289 157.852H130.526Z" fill="#0077AD"/>
<path d="M107.905 65.5286C109.512 72.0739 111.12 82.753 108.479 88.4945C108.479 88.4945 118.125 88.9539 130.526 98.8292C136.383 90.3318 129.608 88.6094 129.608 88.6094C124.44 87.3462 124.67 80.5713 124.785 75.7484L107.905 65.5286Z" fill="#FFB573"/>
<path d="M105.493 91.3652C100.67 90.791 104 81.7195 106.527 82.5233C112.842 84.8199 127.081 82.2936 131.445 84.7051C135.808 87.1165 134.775 92.0542 134.775 92.0542C134.775 92.0542 110.661 91.9393 105.493 91.3652Z" fill="#244213"/>
<path d="M133.627 53.9306C133.742 54.8492 134.316 55.4234 134.89 55.3086C135.464 55.1937 135.809 54.3899 135.694 53.5861C135.579 52.6675 135.005 52.0933 134.431 52.2082C133.857 52.323 133.512 53.1268 133.627 53.9306Z" fill="#263238"/>
<path d="M134.086 52.323L136.038 51.2896C136.153 51.2896 135.349 53.1268 134.086 52.323Z" fill="#263238"/>
<path d="M134.775 46.9261C134.89 46.8112 134.89 46.6964 134.775 46.5816C134.66 46.3519 134.43 46.1223 134.086 46.2371C131.33 46.9261 130.526 49.2227 130.526 49.3375C130.411 49.5672 130.641 49.9116 130.871 50.0265C131.1 50.1413 131.445 49.9116 131.56 49.682C131.56 49.5672 132.249 47.8447 134.43 47.2706C134.66 47.1557 134.775 47.0409 134.775 46.9261Z" fill="#263238"/>
<path d="M134.66 56.1125C134.66 56.1125 136.612 59.7871 138.45 61.3947C137.416 62.6579 135.349 62.3134 135.349 62.3134L134.66 56.1125Z" fill="#ED893E"/>
<path d="M103.656 53.4713C106.182 64.1504 107.101 68.6288 113.416 73.222C122.947 80.1118 135.234 74.7148 135.808 63.4615C136.382 53.3564 132.134 37.6247 120.995 35.2133C109.971 32.9167 101.13 42.9069 103.656 53.4713Z" fill="#FFB573"/>
<path d="M124.326 55.4235C130.641 47.1557 134.66 40.3808 131.56 33.1465C128.919 27.0605 121.8 28.7829 120.881 31.8833C101.819 30.2757 95.0442 37.1655 98.9484 48.5337C101.475 55.768 91.7141 51.9786 94.1255 61.2798C95.9628 68.3992 89.5323 71.0403 92.7476 75.0594C97.4556 80.9157 107.101 73.2221 118.125 77.7005C127.197 81.2602 140.746 75.8632 124.326 55.4235Z" fill="#263238"/>
<path d="M123.292 57.1459C124.555 59.098 126.392 60.1315 128 60.476C130.526 60.8205 131.33 58.0645 130.296 55.4235C129.378 53.1269 126.966 50.0264 124.67 50.9451C122.373 51.7489 121.914 54.9641 123.292 57.1459Z" fill="#FFB573"/>
<path d="M126.967 371.78C125.359 371.78 122.718 370.517 121.57 369.368C121.455 369.253 121.455 369.139 121.455 369.024C121.455 368.909 121.57 368.794 121.684 368.794C121.914 368.794 126.278 368.335 127.77 369.483C128.115 369.713 128.23 370.057 128.345 370.402C128.345 370.861 128.23 371.32 127.77 371.55C127.541 371.665 127.311 371.78 126.967 371.78ZM122.603 369.368C124.211 370.402 126.622 371.435 127.541 370.976C127.656 370.861 127.77 370.861 127.77 370.517C127.77 370.287 127.656 370.172 127.541 370.057C126.622 369.253 124.096 369.253 122.603 369.368Z" fill="#263238"/>
<path d="M121.799 369.483C121.684 369.483 121.569 369.483 121.569 369.368C121.454 369.253 121.454 369.139 121.569 369.024C121.684 368.909 123.866 365.005 125.703 364.545C126.048 364.431 126.507 364.545 126.737 364.66C127.196 364.89 127.426 365.349 127.311 365.809C127.081 367.186 123.751 369.024 121.799 369.483ZM126.048 365.005C125.933 365.005 125.933 365.005 125.818 365.005C124.784 365.234 123.292 367.301 122.488 368.564C124.325 367.99 126.507 366.498 126.622 365.579C126.622 365.464 126.622 365.234 126.392 365.12C126.277 365.12 126.162 365.005 126.048 365.005Z" fill="#263238"/>
<path d="M135.578 375.799C126.277 375.11 119.961 368.679 120.65 361.904C120.995 358.23 109.053 357.885 109.053 357.885C110.89 369.483 108.593 371.091 107.789 374.076C106.986 377.062 107.215 380.392 109.627 380.392C112.612 380.507 113.99 379.933 117.665 380.047C121.914 380.162 126.622 380.392 134.2 380.392C137.301 380.392 139.712 376.028 135.578 375.799Z" fill="#407BFF"/>
<path d="M146.602 157.852C146.602 157.852 145.798 214.922 141.32 252.357C136.842 289.906 121.34 363.397 121.34 363.397C116.861 364.316 112.727 364.431 108.938 363.282C108.938 363.282 104 305.867 112.268 250.29C106.182 192.071 102.508 157.737 102.508 157.737H146.602V157.852Z" fill="#0077AD"/>
<path d="M148.784 105.145C148.555 109.508 155.559 119.728 146.947 125.699C148.555 129.259 149.933 153.603 146.603 157.967C141.894 161.411 116.173 160.722 94.9291 157.967C94.0105 149.125 98.8333 130.982 92.977 102.504C91.599 95.9584 96.1922 89.6428 102.967 88.9538C104.804 88.7242 106.642 88.6093 108.594 88.4945C116.173 88.15 122.373 87.9203 128.919 88.4945C131.1 88.7241 133.397 88.9538 135.579 89.2983C143.387 90.3318 149.129 97.2216 148.784 105.145Z" fill="#497D2D"/>
<path d="M174.851 120.877L179.903 115.479L186.908 125.355C186.908 125.355 180.937 129.604 175.31 129.374L174.621 127.881C173.702 125.699 173.702 123.058 174.851 120.877Z" fill="#FFB573"/>
<path d="M188.056 116.054L190.008 119.843C190.927 121.566 190.238 123.633 188.63 124.551L187.022 125.47L180.018 115.594L184.037 114.446C185.644 113.872 187.367 114.561 188.056 116.054Z" fill="#FFB573"/>
<path d="M148.095 101.585L148.554 103.767L149.014 106.064C149.358 107.556 149.703 109.164 150.047 110.657C150.851 113.757 151.655 116.743 152.688 119.613C153.722 122.484 154.755 125.355 156.133 127.766C157.396 130.178 158.889 132.36 160.382 133.623L157.97 132.474C157.281 132.36 157.166 132.589 157.511 132.589C157.855 132.589 158.544 132.36 159.233 132.13C160.726 131.441 162.449 130.407 164.171 129.259C165.894 128.111 167.616 126.733 169.338 125.355C171.061 123.977 172.783 122.484 174.506 121.106L174.735 120.991C176.458 119.613 178.984 119.843 180.477 121.566C181.51 122.829 181.625 124.551 180.936 125.929C179.788 128.226 178.525 130.293 177.032 132.245C175.654 134.312 174.046 136.264 172.324 138.216C170.602 140.053 168.649 142.005 166.123 143.728C164.86 144.532 163.367 145.45 161.53 146.024C160.611 146.369 159.578 146.598 158.315 146.713C157.052 146.828 155.674 146.828 154.181 146.369C153.377 146.139 152.688 145.795 151.999 145.335L151.769 145.106C147.75 142.235 145.109 138.79 143.042 135.345C142.009 133.623 141.09 131.9 140.172 130.178C139.368 128.455 138.564 126.733 137.875 125.01C136.497 121.566 135.464 118.006 134.545 114.561C134.086 112.839 133.626 111.001 133.282 109.279C133.052 108.36 132.937 107.442 132.823 106.638C132.708 105.719 132.478 104.915 132.363 103.767C131.789 99.4034 134.889 95.2695 139.253 94.6954C143.502 94.1212 147.406 96.992 148.21 101.126L148.095 101.585Z" fill="#FFB573"/>
<path d="M137.071 89.528C143.732 90.217 149.129 94.6953 152.803 108.819C149.932 112.838 131.789 121.566 131.789 121.566C131.789 121.566 121.799 87.9204 137.071 89.528Z" fill="#5E9A3D"/>
</svg>
