<svg width="435" height="394" viewBox="0 0 435 394" fill="none" xmlns="http://www.w3.org/2000/svg">
<path d="M277.493 285.265H158.006V351.352H277.493V285.265Z" fill="#36601F"/>
<path d="M306.703 351.352H128.794C123.904 351.352 119.939 347.387 119.939 342.496C119.939 337.606 123.904 333.641 128.794 333.641H306.571C311.461 333.641 315.426 337.606 315.426 342.496C315.559 347.387 311.593 351.352 306.703 351.352Z" fill="#244213"/>
<path d="M414.558 289.626H20.9395C9.7046 289.626 0.584473 280.506 0.584473 269.271V20.7813C0.584473 9.54638 9.7046 0.42627 20.9395 0.42627H414.558C425.793 0.42627 434.913 9.54638 434.913 20.7813V269.271C434.913 280.638 425.793 289.626 414.558 289.626Z" fill="#497D2D"/>
<path d="M420.952 244.221L420.952 14.4995L14.5124 14.4995L14.5124 244.221L420.952 244.221Z" fill="#F4F5F9"/>
<path fill-rule="evenodd" clip-rule="evenodd" d="M398.697 47.4809H36.8003C31.3811 47.4809 27.0193 43.1191 27.0193 37.6999V30.959C27.0193 25.5398 31.3811 21.178 36.8003 21.178H398.697C404.116 21.178 408.478 25.5398 408.478 30.959V37.6999C408.478 43.1191 404.116 47.4809 398.697 47.4809Z" fill="#005B84"/>
<path fill-rule="evenodd" clip-rule="evenodd" d="M398.697 108.546H184.308C178.889 108.546 174.527 104.184 174.527 98.7651V92.0241C174.527 86.6049 178.889 82.2432 184.308 82.2432H398.697C404.116 82.2432 408.478 86.6049 408.478 92.0241V98.7651C408.478 104.184 404.116 108.546 398.697 108.546Z" fill="#005B84"/>
<path d="M398.697 190.098H184.308C178.889 190.098 174.527 185.737 174.527 180.317V123.218C174.527 117.798 178.889 113.437 184.308 113.437H398.697C404.116 113.437 408.478 117.798 408.478 123.218V180.317C408.478 185.737 404.116 190.098 398.697 190.098Z" fill="#BCCACE"/>
<path d="M408.478 203.051C408.478 199.615 405.702 196.839 402.266 196.839H180.74C177.303 196.839 174.527 199.615 174.527 203.051V232.791H408.478V203.051Z" fill="#BCCACE"/>
<path d="M42.7482 41.6653C46.7631 41.6653 50.0178 38.4106 50.0178 34.3956C50.0178 30.3807 46.7631 27.126 42.7482 27.126C38.7333 27.126 35.4785 30.3807 35.4785 34.3956C35.4785 38.4106 38.7333 41.6653 42.7482 41.6653Z" fill="#F4F5F9"/>
<path d="M128.265 31.8843H65.2178V36.907H128.265V31.8843Z" fill="#F4F5F9"/>
<path d="M209.686 31.8843H146.638V36.907H209.686V31.8843Z" fill="#F4F5F9"/>
<path d="M290.974 31.8843H227.926V36.907H290.974V31.8843Z" fill="#F4F5F9"/>
<path d="M76.0568 60.8306H40.8981C39.8407 60.8306 39.0476 61.6236 39.0476 62.681C39.0476 63.7384 39.8407 64.5315 40.8981 64.5315H76.0568C77.1142 64.5315 77.9072 63.7384 77.9072 62.681C77.9072 61.6236 77.1142 60.8306 76.0568 60.8306Z" fill="#BCCACE"/>
<path fill-rule="evenodd" clip-rule="evenodd" d="M32.5708 59.9055C31.1169 59.9055 29.7952 61.0951 29.7952 62.6812C29.7952 64.1351 30.9847 65.4569 32.5708 65.4569C34.0248 65.4569 35.3465 64.2673 35.3465 62.6812C35.3465 61.2273 34.1569 59.9055 32.5708 59.9055Z" fill="#297FB8"/>
<path fill-rule="evenodd" clip-rule="evenodd" d="M32.5708 70.3472C31.1169 70.3472 29.7952 71.5367 29.7952 73.1229C29.7952 74.5768 30.9847 75.8985 32.5708 75.8985C34.0248 75.8985 35.3465 74.709 35.3465 73.1229C35.3465 71.5367 34.1569 70.3472 32.5708 70.3472Z" fill="#297FB8"/>
<path fill-rule="evenodd" clip-rule="evenodd" d="M32.5708 80.657C31.1169 80.657 29.7952 81.8466 29.7952 83.4327C29.7952 84.8866 30.9847 86.2084 32.5708 86.2084C34.0248 86.2084 35.3465 85.0188 35.3465 83.4327C35.3465 81.9787 34.1569 80.657 32.5708 80.657Z" fill="#297FB8"/>
<path fill-rule="evenodd" clip-rule="evenodd" d="M32.5708 91.0989C31.1169 91.0989 29.7952 92.2885 29.7952 93.8746C29.7952 95.3285 30.9847 96.6502 32.5708 96.6502C34.0248 96.6502 35.3465 95.4607 35.3465 93.8746C35.3465 92.2885 34.1569 91.0989 32.5708 91.0989Z" fill="#297FB8"/>
<path fill-rule="evenodd" clip-rule="evenodd" d="M32.5708 101.541C31.1169 101.541 29.7952 102.73 29.7952 104.316C29.7952 105.77 30.9847 107.092 32.5708 107.092C34.0248 107.092 35.3465 105.903 35.3465 104.316C35.3465 102.73 34.1569 101.541 32.5708 101.541Z" fill="#297FB8"/>
<path fill-rule="evenodd" clip-rule="evenodd" d="M32.5708 111.85C31.1169 111.85 29.7952 113.04 29.7952 114.626C29.7952 116.212 30.9847 117.402 32.5708 117.402C34.0248 117.402 35.3465 116.212 35.3465 114.626C35.3465 113.04 34.1569 111.85 32.5708 111.85Z" fill="#297FB8"/>
<path d="M76.0568 71.1404H40.8981C39.8407 71.1404 39.0476 71.9334 39.0476 72.9908C39.0476 74.0482 39.8407 74.8413 40.8981 74.8413H76.0568C77.1142 74.8413 77.9072 74.0482 77.9072 72.9908C77.9072 72.0656 77.1142 71.1404 76.0568 71.1404Z" fill="#BCCACE"/>
<path d="M76.0568 81.5823H40.8981C39.8407 81.5823 39.0476 82.3753 39.0476 83.4327C39.0476 84.4901 39.8407 85.2832 40.8981 85.2832H76.0568C77.1142 85.2832 77.9072 84.4901 77.9072 83.4327C77.9072 82.3753 77.1142 81.5823 76.0568 81.5823Z" fill="#BCCACE"/>
<path d="M76.0568 91.8918H40.8981C39.8407 91.8918 39.0476 92.6849 39.0476 93.7423C39.0476 94.7997 39.8407 95.5927 40.8981 95.5927H76.0568C77.1142 95.5927 77.9072 94.7997 77.9072 93.7423C77.9072 92.6849 77.1142 91.8918 76.0568 91.8918Z" fill="#BCCACE"/>
<path d="M76.0568 102.334H40.8981C39.8407 102.334 39.0476 103.127 39.0476 104.184C39.0476 105.242 39.8407 106.035 40.8981 106.035H76.0568C77.1142 106.035 77.9072 105.242 77.9072 104.184C77.9072 103.127 77.1142 102.334 76.0568 102.334Z" fill="#BCCACE"/>
<path d="M76.0568 112.776H40.8981C39.8407 112.776 39.0476 113.569 39.0476 114.626C39.0476 115.684 39.8407 116.477 40.8981 116.477H76.0568C77.1142 116.477 77.9072 115.684 77.9072 114.626C77.9072 113.569 77.1142 112.776 76.0568 112.776Z" fill="#BCCACE"/>
<path d="M239.822 125.729H187.745V177.806H239.822V125.729Z" fill="#4CC7FF"/>
<path d="M257.137 125.729V129.165H389.973V125.729H257.137ZM257.137 138.285H389.973V134.849H257.137V138.285ZM257.137 147.538H389.973V144.101H257.137V147.538ZM257.137 156.79H389.973V153.353H257.137V156.79ZM257.137 166.042H389.973V162.606H257.137V166.042ZM257.137 175.295H335.649V171.858H257.137V175.295Z" fill="#F4F5F9"/>
<path d="M249.735 61.6238H202.02V66.6465H249.735V61.6238Z" fill="#BCCACE"/>
<path d="M196.174 64.1862C196.18 58.2004 191.333 53.3426 185.347 53.3362C179.361 53.3298 174.503 58.1772 174.497 64.1631C174.491 70.1489 179.338 75.0067 185.324 75.0131C191.31 75.0195 196.167 70.1721 196.174 64.1862Z" fill="#005B84"/>
<path d="M328.776 61.6238H281.061V66.6465H328.776V61.6238Z" fill="#BCCACE"/>
<path d="M275.13 64.2347C275.137 58.2488 270.289 53.3912 264.303 53.3848C258.317 53.3784 253.46 58.2258 253.453 64.2116C253.447 70.1975 258.294 75.0552 264.28 75.0616C270.266 75.068 275.124 70.2206 275.13 64.2347Z" fill="#0D97D6"/>
<path d="M407.685 61.6238H359.969V66.6465H407.685V61.6238Z" fill="#BCCACE"/>
<path d="M354.088 64.1511C354.094 58.1652 349.247 53.3075 343.261 53.3011C337.275 53.2947 332.417 58.142 332.411 64.1279C332.405 70.1138 337.252 74.9715 343.238 74.9779C349.224 74.9843 354.081 70.137 354.088 64.1511Z" fill="#4CC7FF"/>
<path fill-rule="evenodd" clip-rule="evenodd" d="M152.586 147.406H100.509C94.5608 147.406 89.8025 142.647 89.8025 136.699V64.0028C89.8025 58.0549 94.5608 53.2966 100.509 53.2966H152.586C158.534 53.2966 163.292 58.0549 163.292 64.0028V136.699C163.292 142.647 158.402 147.406 152.586 147.406Z" fill="#0D97D6"/>
<path d="M151.396 125.729H101.566V130.751H151.396V125.729Z" fill="#F4F5F9"/>
<path d="M140.426 134.452H112.669V139.475H140.426V134.452Z" fill="#F4F5F9"/>
<path d="M152.586 187.851H100.509C94.5608 187.851 89.8025 183.093 89.8025 177.145V165.778C89.8025 159.83 94.5608 155.072 100.509 155.072H152.586C158.534 155.072 163.292 159.83 163.292 165.778V177.145C163.292 183.093 158.402 187.851 152.586 187.851Z" fill="#BCCACE"/>
<path d="M138.179 103.259C135.007 101.673 132.495 99.2938 130.777 96.2538C136.196 92.9494 140.161 84.2258 140.161 78.2779C140.161 70.7439 134.081 64.6638 126.547 64.6638C119.013 64.6638 112.933 70.7439 112.933 78.2779C112.933 84.2258 116.898 93.0815 122.318 96.2538C120.599 99.2938 118.088 101.673 114.916 103.259C108.836 106.299 103.945 111.586 101.566 118.063H151.396C149.149 111.586 144.259 106.299 138.179 103.259Z" fill="#F4F5F9"/>
<path d="M265.86 88.7197H244.052C240.351 88.7197 237.311 91.7598 237.311 95.4607C237.311 99.1616 240.351 102.202 244.052 102.202H265.86C269.561 102.202 272.601 99.1616 272.601 95.4607C272.601 91.6276 269.561 88.7197 265.86 88.7197ZM283.704 92.9493V97.972H345.694V92.9493H283.704Z" fill="#F4F5F9"/>
<path fill-rule="evenodd" clip-rule="evenodd" d="M317.806 334.037C317.145 336.549 316.22 339.192 314.105 339.985C312.651 340.514 307.496 337.474 306.307 336.284C305.117 335.095 295.204 276.805 296.526 273.237C298.244 268.478 320.846 275.087 321.904 283.282C323.225 293.856 322.697 305.091 321.375 315.533C320.582 321.745 319.392 327.957 317.806 334.037Z" fill="#0D97D6"/>
<path d="M333.27 383.603C331.156 384.661 328.909 385.321 326.53 385.321C325.736 382.678 325.076 380.034 324.283 377.391C324.15 376.994 324.15 376.73 324.15 376.334C324.283 375.805 324.679 375.54 325.208 375.276C326.926 374.351 329.57 373.294 330.363 375.541C331.42 378.184 332.345 380.828 333.27 383.603Z" fill="#F4A086"/>
<path d="M317.41 388.229C315.163 388.626 312.651 388.361 310.405 387.701C310.272 384.925 310.272 382.281 310.14 379.506C310.14 379.109 310.14 378.845 310.272 378.448C310.537 378.052 311.065 377.787 311.462 377.787C313.312 377.391 316.22 377.391 316.485 379.77C316.881 382.546 317.145 385.321 317.41 388.229Z" fill="#F4A086"/>
<path fill-rule="evenodd" clip-rule="evenodd" d="M304.985 327.429C306.967 322.538 313.576 319.234 318.467 327.693C326.001 340.514 316.352 364.438 317.409 379.902H309.479C308.818 378.316 303.795 330.072 304.985 327.429Z" fill="#0D97D6"/>
<path d="M304.192 223.539C303.531 232.659 301.813 241.911 296.658 249.445C295.6 251.031 294.014 252.749 292.032 252.485C290.842 252.353 289.917 251.56 289.256 250.635C288.595 249.709 288.331 248.52 288.199 247.462C286.48 238.607 289.256 229.619 291.899 220.895C292.957 217.326 294.543 211.114 298.112 209.132C301.813 207.149 303.795 213.229 304.06 215.74C304.456 218.384 304.456 221.027 304.192 223.539Z" fill="#F4A086"/>
<path d="M304.721 210.585C304.589 209.131 304.192 207.281 302.738 206.62C301.284 205.959 299.698 206.884 298.509 207.942C291.504 214.154 288.992 222.878 287.67 232.394L304.325 233.452C305.382 225.918 305.514 218.251 304.721 210.585Z" fill="#FE6B80"/>
<path fill-rule="evenodd" clip-rule="evenodd" d="M313.444 326.635C312.123 336.681 295.733 330.601 297.187 321.613C299.963 304.033 306.968 274.426 309.611 271.915C317.013 264.645 334.064 268.742 334.064 280.506C334.064 294.781 315.559 310.378 313.444 326.635Z" fill="#4CC7FF"/>
<path d="M281.458 247.991C280.929 249.048 281.458 250.37 282.251 251.031C283.044 251.824 288.992 254.6 294.675 252.088C297.583 250.767 297.98 247.991 297.055 245.348C295.733 241.779 282.119 246.801 281.458 247.991Z" fill="#F7B690"/>
<path fill-rule="evenodd" clip-rule="evenodd" d="M297.187 323.86C296.79 318.705 303.928 315.929 310.801 322.935C321.903 334.17 325.076 355.714 330.891 374.747L323.357 377.391C320.846 373.293 297.98 333.905 297.187 323.86Z" fill="#4CC7FF"/>
<path d="M335.254 243.629C337.897 235.038 341.201 224.332 339.747 215.212C336.047 210.718 328.645 200.408 313.709 200.408C303.267 200.408 295.469 210.982 293.618 213.626C291.636 216.666 292.296 220.895 292.825 224.332C293.883 231.734 297.055 260.548 294.279 280.506H336.311C336.443 270.858 332.61 252.353 335.254 243.629Z" fill="#005B84"/>
<path d="M345.034 233.055C342.919 225.125 338.557 217.855 332.345 212.304C331.288 211.378 329.702 210.321 328.38 210.85C327.587 211.114 327.19 211.907 326.926 212.7C326.662 213.493 326.794 214.286 326.794 215.079C327.19 224.464 328.909 233.716 330.627 242.968C331.156 245.744 331.684 248.652 332.874 251.295C334.063 253.939 336.178 256.318 338.822 257.243C340.276 257.772 342.523 258.036 343.844 257.111C344.902 256.318 345.034 254.203 345.298 253.014C346.224 248.784 346.488 244.422 346.224 240.193C345.959 237.946 345.563 235.434 345.034 233.055Z" fill="#F4A086"/>
<path d="M326.53 210.585C326.662 209.131 326.926 207.281 328.248 206.62C329.702 205.959 332.345 207.281 333.535 208.206C340.804 214.418 344.902 222.878 346.752 232.394L328.248 233.452C326.662 225.918 326.133 218.251 326.53 210.585Z" fill="#0D97D6"/>
<path d="M309.611 189.966C310.669 185.472 313.973 184.415 315.956 185.472C317.278 193.931 318.467 197.632 321.772 202.126C317.674 204.77 310.669 204.241 309.215 202.126C309.215 201.597 309.083 192.345 309.611 189.966Z" fill="#F4A086"/>
<path d="M309.876 179.524C305.778 176.748 299.963 179.128 299.17 184.282C298.377 189.041 303.135 197.236 305.514 198.557C309.479 200.937 314.766 195.253 315.031 192.61C315.163 188.776 313.312 181.903 309.876 179.524Z" fill="#F7B690"/>
<path fill-rule="evenodd" clip-rule="evenodd" d="M312.783 180.449C313.047 180.185 313.576 180.317 313.84 180.449C314.237 180.581 314.501 180.846 314.766 181.11C315.691 182.035 316.616 182.828 317.409 183.886C318.202 184.943 318.731 186.133 318.731 187.455C318.731 188.248 318.466 189.173 318.863 189.966C319.127 190.627 319.788 191.288 319.524 192.081C319.392 192.609 318.731 192.874 318.202 192.874C317.673 192.874 317.145 192.477 316.748 192.081C316.352 191.684 316.087 191.155 315.823 190.627C314.898 189.041 313.444 187.719 312.519 186.133C311.593 184.547 310.933 182.564 311.858 180.846L312.783 180.449Z" fill="#222B56"/>
<path fill-rule="evenodd" clip-rule="evenodd" d="M293.882 182.564C294.808 182.168 295.601 181.903 296.526 181.507C296.129 182.035 295.733 182.564 295.601 183.093C295.468 183.754 295.601 184.415 296.129 184.811C296.526 185.075 297.055 184.943 297.583 184.811C297.98 184.547 298.376 184.15 298.773 183.886C298.641 184.282 298.376 184.547 298.376 184.943C298.376 185.34 298.641 185.736 299.037 185.736C299.302 185.736 299.566 185.604 299.83 185.34C301.02 184.415 302.209 183.489 303.399 182.564C303.267 182.961 303.267 183.357 303.267 183.754C303.267 184.15 303.531 184.547 303.928 184.679C304.589 184.943 305.249 184.415 305.514 183.886C305.91 183.357 306.307 182.696 306.968 182.564C307.761 182.432 308.289 183.093 308.818 183.754C308.95 183.886 308.95 184.018 309.083 184.018C309.876 185.075 310.801 186.265 311.594 187.322C311.858 187.719 312.123 187.983 312.519 188.248C312.916 188.512 313.312 188.644 313.709 188.512C314.37 188.248 321.639 177.541 312.387 174.237C311.065 173.708 309.083 174.237 307.761 174.766C306.439 175.162 305.117 175.823 303.663 176.088C302.606 176.352 301.416 176.22 300.227 176.352C296.922 176.484 294.014 179.392 293.882 182.564Z" fill="#222B56"/>
<path d="M317.013 184.811C317.41 185.869 317.41 187.058 317.013 188.116C315.824 191.156 312.784 188.38 312.652 186.265C312.519 183.754 315.956 182.035 317.013 184.811Z" fill="#F7B690"/>
<path d="M295.733 392.195C295.601 391.005 296.658 390.08 297.848 389.816C298.905 389.551 300.095 389.816 301.284 389.683C304.589 389.683 307.761 387.701 309.215 384.793C309.479 384.396 309.611 384 310.008 383.735C310.537 383.471 311.197 383.603 311.726 384C312.123 384.396 312.519 384.925 312.916 385.322C313.709 386.115 314.766 386.511 315.824 386.511C316.749 386.511 317.674 385.85 318.599 386.247C319.392 386.643 319.524 387.701 319.789 388.494C320.185 389.816 320.45 391.137 320.714 392.327C320.846 392.591 320.846 392.856 320.846 393.252H314.634C314.37 392.856 314.105 391.666 313.973 391.137C313.973 391.666 313.709 392.856 313.444 393.252H296.394C295.997 392.988 295.733 392.591 295.733 392.195Z" fill="#222222"/>
<path d="M325.208 390.741C324.812 389.683 324.944 388.626 325.34 388.229C325.737 387.833 325.737 385.718 325.869 382.81C325.869 381.488 328.248 380.299 330.099 381.885C330.76 382.414 331.288 382.678 331.685 382.546C332.081 382.414 332.213 381.621 332.742 381.885C333.139 382.149 333.667 383.074 333.932 383.735C334.46 384.925 334.989 386.114 335.65 387.304C335.782 387.568 335.914 387.833 336.047 388.097L325.869 391.666C325.473 391.401 325.34 391.137 325.208 390.741Z" fill="#222222"/>
<path d="M314.898 260.283H289.653C288.199 260.283 286.613 259.094 286.216 257.64L275.113 217.987C274.717 216.533 275.51 215.344 277.096 215.344H302.341C303.795 215.344 305.381 216.533 305.778 217.987L316.881 257.64C317.277 259.094 316.352 260.283 314.898 260.283Z" fill="#3C79A6"/>
<path fill-rule="evenodd" clip-rule="evenodd" d="M316.749 257.64L305.646 217.987C305.249 216.533 303.663 215.344 302.209 215.344H299.566C301.02 215.344 302.606 216.533 303.002 217.987L314.105 257.64C314.502 259.094 313.709 260.283 312.123 260.283H314.766C316.352 260.283 317.277 259.094 316.749 257.64Z" fill="#222B54"/>
<path d="M313.18 248.52C311.99 249.313 311.726 251.163 312.387 252.485C313.048 253.807 334.46 258.961 339.615 258.961C341.201 258.961 343.051 258.829 343.977 257.508C344.77 256.318 344.505 254.732 344.109 253.41C343.316 251.163 342.126 248.652 340.276 247.066C338.954 246.14 313.973 248.123 313.18 248.52Z" fill="#F7B690"/>
<path d="M305.381 244.819C304.852 244.158 304.324 243.101 304.852 242.44C305.249 241.911 305.91 241.911 306.438 242.043C306.967 242.175 307.496 242.572 307.892 242.968C308.553 243.497 309.214 244.026 310.007 244.026C310.8 244.158 311.725 243.761 311.858 242.968C312.122 242.175 311.461 241.118 311.99 240.457C312.254 240.193 312.915 240.193 313.312 240.325C313.708 240.589 313.972 240.986 314.237 241.25C315.691 243.233 317.145 245.215 317.673 247.595C318.202 249.974 317.673 252.749 315.691 254.203C313.972 255.525 311.329 255.261 309.611 253.939C308.157 252.749 307.628 251.163 307.364 249.313C307.496 247.462 306.571 246.405 305.381 244.819Z" fill="#F7B690"/>
<path d="M280.136 242.836C280.268 242.572 280.4 238.21 280.664 238.078C281.061 237.814 282.647 242.836 282.25 243.233C283.308 243.101 283.704 243.101 284.762 242.968C285.555 242.836 286.612 242.968 286.876 243.761C287.009 244.422 286.612 244.951 286.216 245.48C285.555 246.405 286.48 252.089 286.083 252.617C284.365 254.336 280.532 251.295 279.871 249.577C278.946 247.066 279.342 245.083 280.136 242.836Z" fill="#F7B690"/>
<path d="M209.686 349.238C209.818 354.26 214.973 367.742 216.163 382.017C216.295 382.942 220.921 382.942 221.053 382.149C221.714 365.892 224.754 346.726 223.036 336.813C222.375 333.509 216.691 327.825 213.916 331.526C211.536 335.095 209.554 345.008 209.686 349.238Z" fill="#F7B690"/>
<path fill-rule="evenodd" clip-rule="evenodd" d="M214.048 387.701C213.916 386.379 213.916 384.925 214.18 383.603C214.445 382.281 214.973 380.96 216.031 380.034C216.295 380.695 216.956 381.621 217.749 381.621C218.278 381.621 221.054 380.431 221.582 380.695C221.979 380.827 222.64 386.247 224.226 387.436C225.944 388.626 227.927 389.155 229.777 390.08C230.438 390.344 231.099 390.741 231.495 391.269C232.024 391.798 232.288 392.591 232.024 393.252C232.024 393.252 232.024 393.384 231.892 393.384H219.6C219.335 392.988 219.071 392.459 218.807 392.062C218.013 390.476 217.088 388.89 216.295 387.304C215.767 389.287 215.634 391.402 215.767 393.384H214.445C214.313 391.402 214.18 389.551 214.048 387.701Z" fill="#222222"/>
<path d="M230.306 348.048C229.645 353.07 232.553 366.817 231.628 381.092C231.628 382.017 236.121 382.413 236.518 381.62C239.69 365.495 245.902 346.858 245.638 336.945C245.506 333.641 240.748 327.428 237.443 330.997C234.403 334.169 230.834 343.95 230.306 348.048Z" fill="#F7B690"/>
<path fill-rule="evenodd" clip-rule="evenodd" d="M229.644 387.701C229.512 386.379 229.512 384.925 229.777 383.603C230.041 382.281 230.57 380.96 231.627 380.034C231.891 380.695 232.552 381.621 233.345 381.621C233.874 381.621 236.65 380.431 237.178 380.695C237.575 380.827 238.236 386.247 239.822 387.436C241.54 388.626 243.523 389.155 245.373 390.08C246.034 390.344 246.695 390.741 247.092 391.269C247.62 391.798 247.885 392.591 247.62 393.252C247.62 393.252 247.62 393.384 247.488 393.384H235.196C234.931 392.988 234.667 392.459 234.403 392.062C233.61 390.476 232.684 388.89 231.891 387.304C231.363 389.287 231.231 391.402 231.363 393.384H230.041C229.909 391.402 229.777 389.551 229.644 387.701Z" fill="#222222"/>
<path fill-rule="evenodd" clip-rule="evenodd" d="M236.121 273.897C226.737 259.094 209.422 265.306 204.928 274.426C202.284 279.845 201.623 286.718 204.399 291.741C205.985 298.878 207.175 296.499 211.272 335.623C212.726 338.928 236.386 338.531 243.787 337.077C245.902 336.945 246.034 336.549 246.167 334.698C248.413 315.929 242.069 283.414 236.121 273.897Z" fill="#005B84"/>
<path fill-rule="evenodd" clip-rule="evenodd" d="M235.064 259.623C236.385 256.582 236.65 251.692 238.104 248.652C240.351 244.026 242.465 241.779 242.465 237.946C242.465 231.734 235.328 229.751 231.627 222.613C229.512 218.648 225.944 218.78 222.639 218.78C219.335 218.78 215.502 227.9 215.634 231.601C215.898 239.135 220.26 244.951 219.335 252.485C218.277 260.548 213.651 264.249 207.439 270.99L237.575 276.938C236.914 273.633 231.627 267.553 235.064 259.623Z" fill="#005B84"/>
<path fill-rule="evenodd" clip-rule="evenodd" d="M217.881 232.394C218.145 235.17 218.938 237.814 219.732 240.457C222.111 247.462 225.415 254.203 229.512 260.416C230.173 261.473 230.966 262.53 232.024 263.191C233.081 263.852 234.535 264.116 235.593 263.456C237.179 262.53 237.311 260.283 237.179 258.433C236.518 249.974 234.667 241.647 232.685 233.32C232.024 230.28 231.231 226.975 228.852 224.86C226.737 222.878 222.904 221.953 220.26 223.406C217.617 224.993 217.617 229.883 217.881 232.394Z" fill="#0D97D6"/>
<path fill-rule="evenodd" clip-rule="evenodd" d="M255.947 248.916C257.005 249.313 257.005 250.899 256.476 251.956C255.287 254.996 236.782 265.438 234.138 263.852C232.552 262.927 230.041 260.019 230.041 258.169C230.305 256.054 255.419 248.784 255.947 248.916Z" fill="#0D97D6"/>
<path d="M254.758 248.916C256.212 245.744 257.27 241.911 258.724 240.589C259.913 239.532 259.12 242.44 259.252 244.026C261.499 240.193 263.085 240.589 266.125 239.664C269.298 238.739 260.31 252.485 255.287 253.146L254.758 248.916Z" fill="#F7B690"/>
<path d="M222.903 206.091C223.432 205.034 229.248 208.074 229.512 208.735C229.909 209.396 230.173 217.591 231.495 222.613C231.759 223.671 220.921 220.366 221.714 219.045C222.903 216.93 224.225 208.735 222.903 206.091Z" fill="#F4A086"/>
<path d="M239.558 198.822C237.575 190.495 226.208 192.345 223.564 193.138C220.921 193.931 220.789 197.764 220.524 200.54C220.392 202.258 221.053 203.977 221.978 205.298C222.904 206.62 227.265 208.603 227.53 208.603C229.116 211.378 231.759 214.551 234.403 214.418C235.592 214.418 236.65 213.625 237.443 212.7C238.104 211.775 238.5 210.585 238.897 209.396C239.954 206.091 240.483 202.39 239.558 198.822Z" fill="#F7B690"/>
<path d="M219.864 203.58C218.938 202.39 218.145 200.937 217.881 199.483C217.617 197.632 218.278 195.782 219.335 194.328C221.185 191.552 225.944 188.116 229.645 187.983C233.742 187.851 240.747 191.949 240.087 196.971C239.822 198.425 239.029 198.425 237.575 198.954C235.725 199.615 233.081 200.011 231.495 201.201C229.645 202.655 230.438 206.224 226.605 207.413C225.415 207.81 224.093 209.924 223.3 211.643C222.375 210.718 220.921 204.77 219.864 203.58Z" fill="#2D3436"/>
<path d="M225.018 204.241C224.754 204.373 224.754 204.637 224.621 205.034C224.489 205.827 224.621 206.752 225.018 207.545C225.547 208.338 226.207 208.867 227.133 208.999C227.529 209.131 227.794 209.131 228.19 208.867C229.247 208.206 228.719 206.091 228.19 205.298C227.661 204.373 225.943 203.448 225.018 204.241Z" fill="#F7B690"/>
<path d="M215.634 206.752C214.048 208.206 213.123 210.453 213.519 212.7C213.783 214.683 214.973 216.665 214.973 218.648C214.973 220.366 214.18 221.82 213.387 223.274C211.272 226.843 208.496 230.147 205.324 232.791C204.928 233.055 204.531 233.452 204.663 233.98C204.796 234.509 205.456 234.641 205.985 234.774C208.1 234.906 210.215 234.774 212.33 234.377C214.444 233.848 216.427 232.923 217.881 231.469C219.599 229.751 220.524 227.504 220.657 225.125C220.921 222.746 220.392 220.366 219.467 218.252C218.938 216.93 218.277 215.74 217.881 214.419C217.484 213.097 217.484 211.643 218.277 210.453C218.938 209.396 219.996 208.735 220.789 207.81C221.185 207.413 221.714 206.356 221.582 205.827C221.45 205.034 220.657 205.298 219.996 205.298C218.277 205.166 216.691 205.695 215.634 206.752Z" fill="#2D3436"/>
<path fill-rule="evenodd" clip-rule="evenodd" d="M218.409 206.62C218.674 207.149 219.07 207.545 219.467 207.942C219.863 208.338 220.26 208.603 220.656 208.867C221.185 208.999 221.714 209.131 222.11 208.867C222.639 208.603 222.903 207.81 222.771 207.149C222.639 206.091 221.714 204.241 220.524 204.109C219.07 203.977 217.748 205.034 218.409 206.62Z" fill="#0A3C5F"/>
</svg>
